<mxfile host="app.diagrams.net" modified="2023-05-10T08:08:35.378Z" agent="Mozilla/5.0 (Windows NT 10.0; Win64; x64) AppleWebKit/537.36 (KHTML, like Gecko) Chrome/113.0.0.0 Safari/537.36" etag="j9toCA1I3L1WwqLBMVxc" version="21.2.9" type="github" pages="4">
  <diagram id="C5RBs43oDa-KdzZeNtuy" name="Page-1">
    <mxGraphModel dx="1434" dy="796" grid="1" gridSize="10" guides="1" tooltips="1" connect="1" arrows="1" fold="1" page="1" pageScale="1" pageWidth="827" pageHeight="1169" math="0" shadow="0">
      <root>
        <mxCell id="WIyWlLk6GJQsqaUBKTNV-0" />
        <mxCell id="WIyWlLk6GJQsqaUBKTNV-1" parent="WIyWlLk6GJQsqaUBKTNV-0" />
        <mxCell id="LfgiUwp_R-64w-xYoYRU-2" value="&lt;font style=&quot;font-size: 30px;&quot;&gt;수집기V1&lt;/font&gt;" style="text;html=1;align=center;verticalAlign=middle;resizable=0;points=[];autosize=1;strokeColor=none;fillColor=none;" vertex="1" parent="WIyWlLk6GJQsqaUBKTNV-1">
          <mxGeometry width="150" height="50" as="geometry" />
        </mxCell>
        <mxCell id="LfgiUwp_R-64w-xYoYRU-3" value="https://api.bithumb.com/public/candlestick/{coin.coin_name}/1m" style="rounded=1;whiteSpace=wrap;html=1;" vertex="1" parent="WIyWlLk6GJQsqaUBKTNV-1">
          <mxGeometry x="40" y="50" width="370" height="30" as="geometry" />
        </mxCell>
        <mxCell id="LfgiUwp_R-64w-xYoYRU-4" value="코인 별 1분, 3분, 5분, 10분, 30분, 1시간, 6 |시간, 12시간, 24시간 데이터 수신" style="rounded=1;whiteSpace=wrap;html=1;" vertex="1" parent="WIyWlLk6GJQsqaUBKTNV-1">
          <mxGeometry x="165" y="120" width="120" height="60" as="geometry" />
        </mxCell>
        <mxCell id="LfgiUwp_R-64w-xYoYRU-5" value="현재 코인 가격, 거래량, 거래 대금 추출" style="rounded=1;whiteSpace=wrap;html=1;" vertex="1" parent="WIyWlLk6GJQsqaUBKTNV-1">
          <mxGeometry x="180" y="240" width="270" height="60" as="geometry" />
        </mxCell>
        <mxCell id="LfgiUwp_R-64w-xYoYRU-6" value="&lt;div&gt;현재 주가 이동 평균추출&lt;/div&gt;&lt;div&gt;(이동평균선 = N개의&lt;/div&gt;&lt;div&gt;가격/N)&lt;/div&gt;" style="rounded=1;whiteSpace=wrap;html=1;" vertex="1" parent="WIyWlLk6GJQsqaUBKTNV-1">
          <mxGeometry x="180" y="330" width="270" height="60" as="geometry" />
        </mxCell>
        <mxCell id="LfgiUwp_R-64w-xYoYRU-7" value="&lt;div&gt;현재 이격도 추출&lt;/div&gt;&lt;div&gt;((( N개 봄에 대한 평균 가격-해당 봄에 대&lt;/div&gt;&lt;div&gt;한 가격) / N) * 100&lt;/div&gt;" style="rounded=1;whiteSpace=wrap;html=1;" vertex="1" parent="WIyWlLk6GJQsqaUBKTNV-1">
          <mxGeometry x="180" y="430" width="270" height="60" as="geometry" />
        </mxCell>
        <mxCell id="LfgiUwp_R-64w-xYoYRU-8" value="&lt;div&gt;현재 macd 추출&lt;/div&gt;&lt;div&gt;(MACD = 단기지수이동평균 - 장기지수이동 평균&lt;/div&gt;&lt;div&gt;Signal Line = MACD의 n일 지수이동평균 MACD&amp;nbsp;&lt;/div&gt;&lt;div&gt;오실레이터 =&lt;span style=&quot;background-color: initial;&quot;&gt;MACD - Signal Line의 막대 그래프)&lt;/span&gt;&lt;/div&gt;" style="rounded=1;whiteSpace=wrap;html=1;" vertex="1" parent="WIyWlLk6GJQsqaUBKTNV-1">
          <mxGeometry x="180" y="525" width="270" height="85" as="geometry" />
        </mxCell>
        <mxCell id="LfgiUwp_R-64w-xYoYRU-9" value="&lt;div&gt;nc_p_min_current_price_t nc_p_coin_3min_current_price_t&lt;/div&gt;&lt;div&gt;nc_p_coin_5min_current_price_t&lt;/div&gt;&lt;div&gt;nc_p_coin_10min_current_price_t&lt;/div&gt;&lt;div&gt;nc_p_coin_30min_current_price_t&lt;/div&gt;&lt;div&gt;nc_p_coin_1h_current_price_t&lt;/div&gt;&lt;div&gt;nc_p_coin_6h_current_price_t&lt;/div&gt;&lt;div&gt;nc_p_coin 12h_current_price_t&lt;/div&gt;&lt;div&gt;nc_p_coin_1d_current_price_t&lt;/div&gt;" style="swimlane;whiteSpace=wrap;html=1;startSize=130;" vertex="1" parent="WIyWlLk6GJQsqaUBKTNV-1">
          <mxGeometry x="600" y="50" width="200" height="230" as="geometry" />
        </mxCell>
        <mxCell id="LfgiUwp_R-64w-xYoYRU-10" value="&lt;div&gt;coin_name &lt;span style=&quot;white-space: pre;&quot;&gt;	&lt;/span&gt;&lt;span style=&quot;white-space: pre;&quot;&gt;	&lt;/span&gt;:&lt;span style=&quot;background-color: initial;&quot;&gt;코인명&lt;/span&gt;&lt;/div&gt;&lt;div&gt;time&amp;nbsp;&lt;span style=&quot;white-space: pre;&quot;&gt;	&lt;/span&gt;&lt;span style=&quot;white-space: pre;&quot;&gt;	&lt;/span&gt;&lt;span style=&quot;white-space: pre;&quot;&gt;	&lt;/span&gt;:&lt;span style=&quot;background-color: initial;&quot;&gt;시간&lt;/span&gt;&lt;/div&gt;&lt;div&gt;price &lt;span style=&quot;white-space: pre;&quot;&gt;	&lt;/span&gt;&lt;span style=&quot;white-space: pre;&quot;&gt;	&lt;/span&gt;&lt;span style=&quot;white-space: pre;&quot;&gt;	&lt;/span&gt;:가격&lt;/div&gt;&lt;div&gt;volume&amp;nbsp; &lt;span style=&quot;white-space: pre;&quot;&gt;	&lt;/span&gt;&lt;span style=&quot;white-space: pre;&quot;&gt;	&lt;/span&gt;&lt;span style=&quot;white-space: pre;&quot;&gt;	&lt;/span&gt;:거래량&lt;/div&gt;&lt;div&gt;transaction_amount :거래대금&amp;nbsp;&lt;/div&gt;" style="text;html=1;align=left;verticalAlign=middle;resizable=0;points=[];autosize=1;strokeColor=none;fillColor=none;" vertex="1" parent="LfgiUwp_R-64w-xYoYRU-9">
          <mxGeometry x="5" y="130" width="190" height="90" as="geometry" />
        </mxCell>
        <mxCell id="LfgiUwp_R-64w-xYoYRU-11" value="&lt;div&gt;nc_p_min_masp_t&lt;/div&gt;&lt;div&gt;nc_p_coin_3min_masp_t&lt;/div&gt;&lt;div&gt;nc_p_coin_5min_masp_t&lt;/div&gt;&lt;div&gt;nc_p_coin 10min_masp_t&lt;/div&gt;&lt;div&gt;nc_p_coin_30min_masp_t&lt;/div&gt;&lt;div&gt;nc_p_coin_1h_masp_t&lt;/div&gt;&lt;div&gt;nc_p_coin_6h_masp_t&lt;/div&gt;&lt;div&gt;nc_p_coin 12h_masp_t&lt;/div&gt;&lt;div&gt;nc_p_coin_1d_masp_t&lt;/div&gt;" style="swimlane;whiteSpace=wrap;html=1;startSize=130;" vertex="1" parent="WIyWlLk6GJQsqaUBKTNV-1">
          <mxGeometry x="600" y="310" width="200" height="230" as="geometry" />
        </mxCell>
        <mxCell id="LfgiUwp_R-64w-xYoYRU-12" value="&lt;div&gt;coin_name &lt;span style=&quot;white-space: pre;&quot;&gt;	&lt;/span&gt;&lt;span style=&quot;white-space: pre;&quot;&gt;	&lt;/span&gt;:&lt;span style=&quot;background-color: initial;&quot;&gt;코인명&lt;/span&gt;&lt;/div&gt;&lt;div&gt;time&amp;nbsp;&lt;span style=&quot;white-space: pre;&quot;&gt;	&lt;/span&gt;&lt;span style=&quot;white-space: pre;&quot;&gt;	&lt;/span&gt;&lt;span style=&quot;white-space: pre;&quot;&gt;	&lt;/span&gt;:&lt;span style=&quot;background-color: initial;&quot;&gt;시간&lt;/span&gt;&lt;/div&gt;&lt;div&gt;price &lt;span style=&quot;white-space: pre;&quot;&gt;	&lt;/span&gt;&lt;span style=&quot;white-space: pre;&quot;&gt;	&lt;/span&gt;&lt;span style=&quot;white-space: pre;&quot;&gt;	&lt;/span&gt;:가격&lt;/div&gt;&lt;div&gt;volume&amp;nbsp; &lt;span style=&quot;white-space: pre;&quot;&gt;	&lt;/span&gt;&lt;span style=&quot;white-space: pre;&quot;&gt;	&lt;/span&gt;&lt;span style=&quot;white-space: pre;&quot;&gt;	&lt;/span&gt;:거래량&lt;/div&gt;&lt;div&gt;transaction_amount :거래대금&amp;nbsp;&lt;/div&gt;" style="text;html=1;align=left;verticalAlign=middle;resizable=0;points=[];autosize=1;strokeColor=none;fillColor=none;" vertex="1" parent="LfgiUwp_R-64w-xYoYRU-11">
          <mxGeometry x="5" y="130" width="190" height="90" as="geometry" />
        </mxCell>
        <mxCell id="LfgiUwp_R-64w-xYoYRU-13" value="&lt;div&gt;nc_p_min_disparity_t&lt;/div&gt;&lt;div&gt;nc_p_coin_3min_disparity_t&lt;/div&gt;&lt;div&gt;nc_p_coin_5min_disparity_t&lt;/div&gt;&lt;div&gt;nc_p_coin_10min_disparity_t&lt;/div&gt;&lt;div&gt;nc_p_coin_30min_disparity_t&lt;/div&gt;&lt;div&gt;nc_p_coin_1h disparity_t&lt;/div&gt;&lt;div&gt;nc_p_coin_6h_disparity_t&lt;/div&gt;&lt;div&gt;nc_p_coin_12h_disparity_t&lt;/div&gt;&lt;div&gt;nc_p_coin_1d_masp_t&lt;/div&gt;" style="swimlane;whiteSpace=wrap;html=1;startSize=130;" vertex="1" parent="WIyWlLk6GJQsqaUBKTNV-1">
          <mxGeometry x="600" y="550" width="200" height="230" as="geometry" />
        </mxCell>
        <mxCell id="LfgiUwp_R-64w-xYoYRU-14" value="&lt;div&gt;coin_name &lt;span style=&quot;white-space: pre;&quot;&gt;	&lt;/span&gt;&lt;span style=&quot;white-space: pre;&quot;&gt;	&lt;/span&gt;:&lt;span style=&quot;background-color: initial;&quot;&gt;코인명&lt;/span&gt;&lt;/div&gt;&lt;div&gt;time&amp;nbsp;&lt;span style=&quot;white-space: pre;&quot;&gt;	&lt;/span&gt;&lt;span style=&quot;white-space: pre;&quot;&gt;	&lt;/span&gt;&lt;span style=&quot;white-space: pre;&quot;&gt;	&lt;/span&gt;:&lt;span style=&quot;background-color: initial;&quot;&gt;시간&lt;/span&gt;&lt;/div&gt;&lt;div&gt;disparity&lt;span style=&quot;white-space: pre;&quot;&gt;	&lt;/span&gt;&lt;span style=&quot;white-space: pre;&quot;&gt;	&lt;/span&gt;&lt;span style=&quot;white-space: pre;&quot;&gt;	&lt;/span&gt;:이격도&lt;/div&gt;" style="text;html=1;align=left;verticalAlign=middle;resizable=0;points=[];autosize=1;strokeColor=none;fillColor=none;" vertex="1" parent="WIyWlLk6GJQsqaUBKTNV-1">
          <mxGeometry x="600" y="700" width="170" height="60" as="geometry" />
        </mxCell>
        <mxCell id="LfgiUwp_R-64w-xYoYRU-15" value="&lt;div&gt;nc_p_min_macd_t nc_p_coin_3min_macd_t&lt;/div&gt;&lt;div&gt;nc_p_coin_5min_macd_t&lt;/div&gt;&lt;div&gt;nc_p_coin_10min_macd_t&lt;/div&gt;&lt;div&gt;nc_p_coin_30min_macd_t&lt;/div&gt;&lt;div&gt;nc_p_coin_1h_macd_t&lt;/div&gt;&lt;div&gt;nc_p_coin_6h_macd_t&lt;/div&gt;&lt;div&gt;nc_p_coin 12h_macd_t&lt;/div&gt;&lt;div&gt;nc_p_coin_1d_macd_t&lt;/div&gt;" style="swimlane;whiteSpace=wrap;html=1;startSize=130;" vertex="1" parent="WIyWlLk6GJQsqaUBKTNV-1">
          <mxGeometry x="600" y="810" width="220" height="260" as="geometry" />
        </mxCell>
        <mxCell id="LfgiUwp_R-64w-xYoYRU-16" value="&lt;div&gt;coin_name &lt;span style=&quot;white-space: pre;&quot;&gt;	&lt;/span&gt;&lt;span style=&quot;white-space: pre;&quot;&gt;	&lt;/span&gt;&lt;span style=&quot;&quot;&gt;	&lt;/span&gt;&lt;span style=&quot;&quot;&gt;	&lt;/span&gt;&lt;span style=&quot;&quot;&gt;	&lt;/span&gt;&lt;span style=&quot;&quot;&gt;	&lt;/span&gt;:&lt;span style=&quot;background-color: initial;&quot;&gt;코인명&lt;/span&gt;&lt;/div&gt;&lt;div&gt;time&amp;nbsp;&lt;span style=&quot;&quot;&gt;	&lt;span style=&quot;white-space: pre;&quot;&gt;	&lt;/span&gt;&lt;span style=&quot;white-space: pre;&quot;&gt;	&lt;/span&gt;&lt;span style=&quot;white-space: pre;&quot;&gt;	&lt;/span&gt;&lt;span style=&quot;&quot;&gt;	&lt;/span&gt;&lt;span style=&quot;&quot;&gt;	&lt;/span&gt;&lt;span style=&quot;&quot;&gt;	&lt;/span&gt;&lt;/span&gt;&lt;span style=&quot;&quot;&gt;	&lt;/span&gt;&lt;span style=&quot;&quot;&gt;	&lt;/span&gt;:&lt;span style=&quot;background-color: initial;&quot;&gt;시간&lt;/span&gt;&lt;/div&gt;&lt;div&gt;macd&lt;span style=&quot;&quot;&gt;	&lt;span style=&quot;white-space: pre;&quot;&gt;	&lt;/span&gt;&lt;span style=&quot;white-space: pre;&quot;&gt;	&lt;/span&gt;&lt;span style=&quot;white-space: pre;&quot;&gt;	&lt;/span&gt;&lt;span style=&quot;&quot;&gt;	&lt;/span&gt;&lt;span style=&quot;&quot;&gt;	&lt;/span&gt;&lt;span style=&quot;&quot;&gt;	&lt;/span&gt;&lt;/span&gt;&lt;span style=&quot;&quot;&gt;	&lt;/span&gt;&lt;span style=&quot;&quot;&gt;	&lt;/span&gt;:macd&lt;/div&gt;&lt;div&gt;macdShort &lt;span style=&quot;white-space: pre;&quot;&gt;	&lt;/span&gt;&lt;span style=&quot;white-space: pre;&quot;&gt;	&lt;/span&gt;&amp;nbsp;:macd 숏&amp;nbsp;&lt;span style=&quot;&quot;&gt;	&lt;/span&gt;&lt;span style=&quot;&quot;&gt;	&lt;/span&gt;&amp;nbsp;&lt;/div&gt;&lt;div&gt;&lt;span style=&quot;background-color: initial;&quot;&gt;macdLong &lt;span style=&quot;white-space: pre;&quot;&gt;	&lt;/span&gt;&lt;span style=&quot;white-space: pre;&quot;&gt;	&lt;/span&gt;&amp;nbsp;:macd 롱&lt;/span&gt;&lt;/div&gt;&lt;div&gt;macdSignal&lt;span style=&quot;white-space: pre;&quot;&gt;	&lt;/span&gt;&lt;span style=&quot;white-space: pre;&quot;&gt;	&lt;/span&gt;&amp;nbsp;:macd 시그널&lt;br&gt;&lt;/div&gt;" style="text;html=1;align=left;verticalAlign=middle;resizable=0;points=[];autosize=1;strokeColor=none;fillColor=none;" vertex="1" parent="LfgiUwp_R-64w-xYoYRU-15">
          <mxGeometry x="10" y="140" width="210" height="100" as="geometry" />
        </mxCell>
        <mxCell id="LfgiUwp_R-64w-xYoYRU-18" value="" style="endArrow=classic;html=1;rounded=0;exitX=0.5;exitY=1;exitDx=0;exitDy=0;" edge="1" parent="WIyWlLk6GJQsqaUBKTNV-1" source="LfgiUwp_R-64w-xYoYRU-3" target="LfgiUwp_R-64w-xYoYRU-4">
          <mxGeometry width="50" height="50" relative="1" as="geometry">
            <mxPoint x="390" y="440" as="sourcePoint" />
            <mxPoint x="440" y="390" as="targetPoint" />
          </mxGeometry>
        </mxCell>
        <mxCell id="LfgiUwp_R-64w-xYoYRU-19" value="" style="endArrow=classic;html=1;rounded=0;exitX=0;exitY=0.5;exitDx=0;exitDy=0;entryX=0;entryY=0.5;entryDx=0;entryDy=0;" edge="1" parent="WIyWlLk6GJQsqaUBKTNV-1" source="LfgiUwp_R-64w-xYoYRU-4" target="LfgiUwp_R-64w-xYoYRU-8">
          <mxGeometry width="50" height="50" relative="1" as="geometry">
            <mxPoint x="390" y="440" as="sourcePoint" />
            <mxPoint x="440" y="390" as="targetPoint" />
            <Array as="points">
              <mxPoint x="80" y="150" />
              <mxPoint x="80" y="568" />
            </Array>
          </mxGeometry>
        </mxCell>
        <mxCell id="LfgiUwp_R-64w-xYoYRU-20" value="" style="endArrow=classic;html=1;rounded=0;entryX=0;entryY=0.5;entryDx=0;entryDy=0;" edge="1" parent="WIyWlLk6GJQsqaUBKTNV-1" target="LfgiUwp_R-64w-xYoYRU-5">
          <mxGeometry width="50" height="50" relative="1" as="geometry">
            <mxPoint x="80" y="270" as="sourcePoint" />
            <mxPoint x="440" y="390" as="targetPoint" />
          </mxGeometry>
        </mxCell>
        <mxCell id="LfgiUwp_R-64w-xYoYRU-21" value="" style="endArrow=classic;html=1;rounded=0;entryX=0;entryY=0.5;entryDx=0;entryDy=0;" edge="1" parent="WIyWlLk6GJQsqaUBKTNV-1" target="LfgiUwp_R-64w-xYoYRU-6">
          <mxGeometry width="50" height="50" relative="1" as="geometry">
            <mxPoint x="80" y="360" as="sourcePoint" />
            <mxPoint x="440" y="390" as="targetPoint" />
          </mxGeometry>
        </mxCell>
        <mxCell id="LfgiUwp_R-64w-xYoYRU-22" value="" style="endArrow=classic;html=1;rounded=0;entryX=0;entryY=0.5;entryDx=0;entryDy=0;" edge="1" parent="WIyWlLk6GJQsqaUBKTNV-1" target="LfgiUwp_R-64w-xYoYRU-7">
          <mxGeometry width="50" height="50" relative="1" as="geometry">
            <mxPoint x="80" y="460" as="sourcePoint" />
            <mxPoint x="440" y="390" as="targetPoint" />
          </mxGeometry>
        </mxCell>
        <mxCell id="LfgiUwp_R-64w-xYoYRU-23" value="" style="endArrow=classic;html=1;rounded=0;entryX=-0.01;entryY=0.4;entryDx=0;entryDy=0;entryPerimeter=0;exitX=1;exitY=0.5;exitDx=0;exitDy=0;" edge="1" parent="WIyWlLk6GJQsqaUBKTNV-1" source="LfgiUwp_R-64w-xYoYRU-5" target="LfgiUwp_R-64w-xYoYRU-9">
          <mxGeometry width="50" height="50" relative="1" as="geometry">
            <mxPoint x="390" y="440" as="sourcePoint" />
            <mxPoint x="440" y="390" as="targetPoint" />
            <Array as="points">
              <mxPoint x="560" y="270" />
              <mxPoint x="560" y="142" />
            </Array>
          </mxGeometry>
        </mxCell>
        <mxCell id="LfgiUwp_R-64w-xYoYRU-24" value="" style="endArrow=classic;html=1;rounded=0;entryX=0;entryY=0.5;entryDx=0;entryDy=0;exitX=1;exitY=0.5;exitDx=0;exitDy=0;" edge="1" parent="WIyWlLk6GJQsqaUBKTNV-1" source="LfgiUwp_R-64w-xYoYRU-6" target="LfgiUwp_R-64w-xYoYRU-11">
          <mxGeometry width="50" height="50" relative="1" as="geometry">
            <mxPoint x="390" y="440" as="sourcePoint" />
            <mxPoint x="440" y="390" as="targetPoint" />
            <Array as="points">
              <mxPoint x="560" y="360" />
              <mxPoint x="560" y="425" />
            </Array>
          </mxGeometry>
        </mxCell>
        <mxCell id="LfgiUwp_R-64w-xYoYRU-25" value="" style="endArrow=classic;html=1;rounded=0;entryX=0;entryY=0.5;entryDx=0;entryDy=0;exitX=1;exitY=0.5;exitDx=0;exitDy=0;" edge="1" parent="WIyWlLk6GJQsqaUBKTNV-1" source="LfgiUwp_R-64w-xYoYRU-7" target="LfgiUwp_R-64w-xYoYRU-13">
          <mxGeometry width="50" height="50" relative="1" as="geometry">
            <mxPoint x="390" y="440" as="sourcePoint" />
            <mxPoint x="440" y="390" as="targetPoint" />
            <Array as="points">
              <mxPoint x="560" y="460" />
              <mxPoint x="560" y="665" />
            </Array>
          </mxGeometry>
        </mxCell>
        <mxCell id="LfgiUwp_R-64w-xYoYRU-26" value="" style="endArrow=classic;html=1;rounded=0;entryX=0;entryY=0.5;entryDx=0;entryDy=0;exitX=1;exitY=0.5;exitDx=0;exitDy=0;" edge="1" parent="WIyWlLk6GJQsqaUBKTNV-1" source="LfgiUwp_R-64w-xYoYRU-8" target="LfgiUwp_R-64w-xYoYRU-15">
          <mxGeometry width="50" height="50" relative="1" as="geometry">
            <mxPoint x="390" y="740" as="sourcePoint" />
            <mxPoint x="440" y="690" as="targetPoint" />
            <Array as="points">
              <mxPoint x="520" y="568" />
              <mxPoint x="520" y="940" />
            </Array>
          </mxGeometry>
        </mxCell>
      </root>
    </mxGraphModel>
  </diagram>
  <diagram id="HafkZLz3MlrtWq2J5H5v" name="페이지-2">
    <mxGraphModel dx="1434" dy="796" grid="1" gridSize="10" guides="1" tooltips="1" connect="1" arrows="1" fold="1" page="1" pageScale="1" pageWidth="827" pageHeight="1169" math="0" shadow="0">
      <root>
        <mxCell id="0" />
        <mxCell id="1" parent="0" />
        <mxCell id="vPSfPbEHJsvblIJYVWXg-1" value="&lt;font style=&quot;font-size: 30px;&quot;&gt;﻿수집기V2&lt;/font&gt;" style="text;html=1;align=center;verticalAlign=middle;resizable=0;points=[];autosize=1;strokeColor=none;fillColor=none;" vertex="1" parent="1">
          <mxGeometry width="150" height="50" as="geometry" />
        </mxCell>
        <mxCell id="vPSfPbEHJsvblIJYVWXg-9" value="" style="edgeStyle=orthogonalEdgeStyle;rounded=0;orthogonalLoop=1;jettySize=auto;html=1;" edge="1" parent="1" source="vPSfPbEHJsvblIJYVWXg-2" target="vPSfPbEHJsvblIJYVWXg-3">
          <mxGeometry relative="1" as="geometry" />
        </mxCell>
        <mxCell id="vPSfPbEHJsvblIJYVWXg-2" value="https://api.bithumb.com/public/candlestick/{coin.coin_name}/1m" style="rounded=1;whiteSpace=wrap;html=1;" vertex="1" parent="1">
          <mxGeometry x="40" y="60" width="340" height="30" as="geometry" />
        </mxCell>
        <mxCell id="vPSfPbEHJsvblIJYVWXg-3" value="코인 별 1분, 3분, 5분, 10분, 30분, 1시간, 6시간, 12시간, 24시간 데이터 수신" style="rounded=1;whiteSpace=wrap;html=1;" vertex="1" parent="1">
          <mxGeometry x="150" y="120" width="120" height="60" as="geometry" />
        </mxCell>
        <mxCell id="vPSfPbEHJsvblIJYVWXg-4" value="&lt;div&gt;현재 코인 시가, 종가, 고가, 저가, 거래량, 거&lt;span style=&quot;background-color: initial;&quot;&gt;래 대금 추출&lt;/span&gt;&lt;/div&gt;" style="rounded=1;whiteSpace=wrap;html=1;" vertex="1" parent="1">
          <mxGeometry x="130" y="240" width="160" height="60" as="geometry" />
        </mxCell>
        <mxCell id="vPSfPbEHJsvblIJYVWXg-5" value="&lt;div&gt;nc_p_coin_min_current_price_t&lt;/div&gt;&lt;div&gt;nc_p_coin_3min_current_price_t&lt;/div&gt;&lt;div&gt;nc_p_coin_5min_current_price_t&lt;/div&gt;&lt;div&gt;|nc_p_coin_10min_current_price_t&lt;/div&gt;&lt;div&gt;|nc_p_coin_30min_current_price_t&lt;/div&gt;&lt;div&gt;nc_p_coin_1h_current_price_t&lt;/div&gt;&lt;div&gt;nc_p_coin_6h_current_price_t&lt;/div&gt;&lt;div&gt;nc_p_coin_12h_current_price_t&lt;/div&gt;&lt;div&gt;nc_p_coin_1d_current_price_t&lt;/div&gt;" style="swimlane;whiteSpace=wrap;html=1;startSize=140;" vertex="1" parent="1">
          <mxGeometry x="570" y="90" width="200" height="270" as="geometry" />
        </mxCell>
        <mxCell id="vPSfPbEHJsvblIJYVWXg-6" value="&lt;div&gt;coin_name&lt;span style=&quot;white-space: pre;&quot;&gt;	&lt;/span&gt;&lt;span style=&quot;white-space: pre;&quot;&gt;	&lt;/span&gt;:코인 명&lt;/div&gt;&lt;div&gt;&lt;span style=&quot;background-color: initial;&quot;&gt;Stime&lt;span style=&quot;white-space: pre;&quot;&gt;	&lt;/span&gt;&lt;span style=&quot;white-space: pre;&quot;&gt;	&lt;/span&gt;&lt;span style=&quot;white-space: pre;&quot;&gt;	&lt;/span&gt;:&lt;/span&gt;&lt;span style=&quot;background-color: initial;&quot;&gt;시간&lt;/span&gt;&lt;/div&gt;&lt;div&gt;Open&lt;span style=&quot;white-space: pre;&quot;&gt;	&lt;/span&gt;&lt;span style=&quot;white-space: pre;&quot;&gt;	&lt;/span&gt;&lt;span style=&quot;white-space: pre;&quot;&gt;	&lt;/span&gt;:&lt;span style=&quot;background-color: initial;&quot;&gt;시가&lt;/span&gt;&lt;/div&gt;&lt;div&gt;Close&lt;span style=&quot;white-space: pre;&quot;&gt;	&lt;/span&gt;&lt;span style=&quot;white-space: pre;&quot;&gt;	&lt;/span&gt;&lt;span style=&quot;white-space: pre;&quot;&gt;	&lt;/span&gt;:&lt;span style=&quot;background-color: initial;&quot;&gt;종가&lt;/span&gt;&lt;/div&gt;&lt;div&gt;High&lt;span style=&quot;white-space: pre;&quot;&gt;	&lt;/span&gt;&lt;span style=&quot;white-space: pre;&quot;&gt;	&lt;/span&gt;&lt;span style=&quot;white-space: pre;&quot;&gt;	&lt;/span&gt;&lt;span style=&quot;white-space: pre;&quot;&gt;	&lt;/span&gt;:&lt;span style=&quot;background-color: initial;&quot;&gt;고가&lt;/span&gt;&lt;/div&gt;&lt;div&gt;Low&lt;span style=&quot;white-space: pre;&quot;&gt;	&lt;/span&gt;&lt;span style=&quot;white-space: pre;&quot;&gt;	&lt;/span&gt;&lt;span style=&quot;white-space: pre;&quot;&gt;	&lt;/span&gt;&lt;span style=&quot;white-space: pre;&quot;&gt;	&lt;/span&gt;:&lt;span style=&quot;background-color: initial;&quot;&gt;저가&lt;/span&gt;&lt;/div&gt;&lt;div&gt;Volume&lt;span style=&quot;white-space: pre;&quot;&gt;	&lt;/span&gt;&lt;span style=&quot;white-space: pre;&quot;&gt;	&lt;/span&gt;&lt;span style=&quot;white-space: pre;&quot;&gt;	&lt;/span&gt;:&lt;span style=&quot;background-color: initial;&quot;&gt;거래량&lt;/span&gt;&lt;/div&gt;&lt;div&gt;transaction amount ::거래대금&lt;/div&gt;" style="text;html=1;align=left;verticalAlign=middle;resizable=0;points=[];autosize=1;strokeColor=none;fillColor=none;" vertex="1" parent="1">
          <mxGeometry x="580" y="228" width="180" height="130" as="geometry" />
        </mxCell>
        <mxCell id="vPSfPbEHJsvblIJYVWXg-7" value="" style="endArrow=classic;html=1;rounded=0;entryX=0;entryY=0.5;entryDx=0;entryDy=0;exitX=0;exitY=0.5;exitDx=0;exitDy=0;" edge="1" parent="1" source="vPSfPbEHJsvblIJYVWXg-3" target="vPSfPbEHJsvblIJYVWXg-4">
          <mxGeometry width="50" height="50" relative="1" as="geometry">
            <mxPoint x="110" y="170" as="sourcePoint" />
            <mxPoint x="520" y="100" as="targetPoint" />
            <Array as="points">
              <mxPoint x="80" y="150" />
              <mxPoint x="80" y="270" />
            </Array>
          </mxGeometry>
        </mxCell>
        <mxCell id="vPSfPbEHJsvblIJYVWXg-8" value="" style="endArrow=classic;html=1;rounded=0;exitX=0.5;exitY=1;exitDx=0;exitDy=0;entryX=0.5;entryY=0;entryDx=0;entryDy=0;" edge="1" parent="1" source="vPSfPbEHJsvblIJYVWXg-2" target="vPSfPbEHJsvblIJYVWXg-3">
          <mxGeometry width="50" height="50" relative="1" as="geometry">
            <mxPoint x="470" y="150" as="sourcePoint" />
            <mxPoint x="520" y="100" as="targetPoint" />
          </mxGeometry>
        </mxCell>
        <mxCell id="vPSfPbEHJsvblIJYVWXg-10" value="" style="endArrow=classic;html=1;rounded=0;exitX=1;exitY=0.5;exitDx=0;exitDy=0;entryX=0;entryY=0.5;entryDx=0;entryDy=0;" edge="1" parent="1" source="vPSfPbEHJsvblIJYVWXg-4" target="vPSfPbEHJsvblIJYVWXg-5">
          <mxGeometry width="50" height="50" relative="1" as="geometry">
            <mxPoint x="470" y="150" as="sourcePoint" />
            <mxPoint x="520" y="100" as="targetPoint" />
            <Array as="points">
              <mxPoint x="400" y="270" />
              <mxPoint x="400" y="225" />
            </Array>
          </mxGeometry>
        </mxCell>
      </root>
    </mxGraphModel>
  </diagram>
  <diagram id="Ip6RC1hUQ018-32-bPcB" name="페이지-3">
    <mxGraphModel dx="1434" dy="796" grid="1" gridSize="10" guides="1" tooltips="1" connect="1" arrows="1" fold="1" page="1" pageScale="1" pageWidth="827" pageHeight="1169" math="0" shadow="0">
      <root>
        <mxCell id="0" />
        <mxCell id="1" parent="0" />
        <mxCell id="4Epe9ra23bm6ymHrPzO7-1" value="&lt;div&gt;nc_p_min_current_price_t nc_p_coin_3min_current_price_t&lt;/div&gt;&lt;div&gt;nc_p_coin_5min_current_price_t&lt;/div&gt;&lt;div&gt;nc_p_coin_10min_current_price_t&lt;/div&gt;&lt;div&gt;nc_p_coin_30min_current_price_t&lt;/div&gt;&lt;div&gt;nc_p_coin_1h_current_price_t&lt;/div&gt;&lt;div&gt;nc_p_coin_6h_current_price_t&lt;/div&gt;&lt;div&gt;nc_p_coin 12h_current_price_t&lt;/div&gt;&lt;div&gt;nc_p_coin_1d_current_price_t&lt;/div&gt;" style="swimlane;whiteSpace=wrap;html=1;startSize=130;" vertex="1" parent="1">
          <mxGeometry x="20" y="80" width="220" height="230" as="geometry" />
        </mxCell>
        <mxCell id="4Epe9ra23bm6ymHrPzO7-2" value="&lt;div&gt;coin_name &lt;span style=&quot;white-space: pre;&quot;&gt;	&lt;/span&gt;&lt;span style=&quot;white-space: pre;&quot;&gt;	&lt;/span&gt;:&lt;span style=&quot;background-color: initial;&quot;&gt;코인명&lt;/span&gt;&lt;/div&gt;&lt;div&gt;time&amp;nbsp;&lt;span style=&quot;white-space: pre;&quot;&gt;	&lt;/span&gt;&lt;span style=&quot;white-space: pre;&quot;&gt;	&lt;/span&gt;&lt;span style=&quot;white-space: pre;&quot;&gt;	&lt;/span&gt;:&lt;span style=&quot;background-color: initial;&quot;&gt;시간&lt;/span&gt;&lt;/div&gt;&lt;div&gt;price &lt;span style=&quot;white-space: pre;&quot;&gt;	&lt;/span&gt;&lt;span style=&quot;white-space: pre;&quot;&gt;	&lt;/span&gt;&lt;span style=&quot;white-space: pre;&quot;&gt;	&lt;/span&gt;:가격&lt;/div&gt;&lt;div&gt;volume&amp;nbsp; &lt;span style=&quot;white-space: pre;&quot;&gt;	&lt;/span&gt;&lt;span style=&quot;white-space: pre;&quot;&gt;	&lt;/span&gt;&lt;span style=&quot;white-space: pre;&quot;&gt;	&lt;/span&gt;:거래량&lt;/div&gt;&lt;div&gt;transaction_amount :거래대금&amp;nbsp;&lt;/div&gt;" style="text;html=1;align=left;verticalAlign=middle;resizable=0;points=[];autosize=1;strokeColor=none;fillColor=none;" vertex="1" parent="4Epe9ra23bm6ymHrPzO7-1">
          <mxGeometry x="5" y="130" width="190" height="90" as="geometry" />
        </mxCell>
        <mxCell id="4Epe9ra23bm6ymHrPzO7-3" value="&lt;div&gt;nc_p_min_masp_t&lt;/div&gt;&lt;div&gt;nc_p_coin_3min_masp_t&lt;/div&gt;&lt;div&gt;nc_p_coin_5min_masp_t&lt;/div&gt;&lt;div&gt;nc_p_coin 10min_masp_t&lt;/div&gt;&lt;div&gt;nc_p_coin_30min_masp_t&lt;/div&gt;&lt;div&gt;nc_p_coin_1h_masp_t&lt;/div&gt;&lt;div&gt;nc_p_coin_6h_masp_t&lt;/div&gt;&lt;div&gt;nc_p_coin 12h_masp_t&lt;/div&gt;&lt;div&gt;nc_p_coin_1d_masp_t&lt;/div&gt;" style="swimlane;whiteSpace=wrap;html=1;startSize=130;" vertex="1" parent="1">
          <mxGeometry x="20" y="330" width="220" height="230" as="geometry" />
        </mxCell>
        <mxCell id="4Epe9ra23bm6ymHrPzO7-4" value="&lt;div&gt;coin_name &lt;span style=&quot;white-space: pre;&quot;&gt;	&lt;/span&gt;&lt;span style=&quot;white-space: pre;&quot;&gt;	&lt;/span&gt;:&lt;span style=&quot;background-color: initial;&quot;&gt;코인명&lt;/span&gt;&lt;/div&gt;&lt;div&gt;time&amp;nbsp;&lt;span style=&quot;white-space: pre;&quot;&gt;	&lt;/span&gt;&lt;span style=&quot;white-space: pre;&quot;&gt;	&lt;/span&gt;&lt;span style=&quot;white-space: pre;&quot;&gt;	&lt;/span&gt;:&lt;span style=&quot;background-color: initial;&quot;&gt;시간&lt;/span&gt;&lt;/div&gt;&lt;div&gt;price &lt;span style=&quot;white-space: pre;&quot;&gt;	&lt;/span&gt;&lt;span style=&quot;white-space: pre;&quot;&gt;	&lt;/span&gt;&lt;span style=&quot;white-space: pre;&quot;&gt;	&lt;/span&gt;:가격&lt;/div&gt;&lt;div&gt;volume&amp;nbsp; &lt;span style=&quot;white-space: pre;&quot;&gt;	&lt;/span&gt;&lt;span style=&quot;white-space: pre;&quot;&gt;	&lt;/span&gt;&lt;span style=&quot;white-space: pre;&quot;&gt;	&lt;/span&gt;:거래량&lt;/div&gt;&lt;div&gt;transaction_amount :거래대금&amp;nbsp;&lt;/div&gt;" style="text;html=1;align=left;verticalAlign=middle;resizable=0;points=[];autosize=1;strokeColor=none;fillColor=none;" vertex="1" parent="4Epe9ra23bm6ymHrPzO7-3">
          <mxGeometry x="5" y="130" width="190" height="90" as="geometry" />
        </mxCell>
        <mxCell id="4Epe9ra23bm6ymHrPzO7-5" value="&lt;div&gt;nc_p_min_disparity_t&lt;/div&gt;&lt;div&gt;nc_p_coin_3min_disparity_t&lt;/div&gt;&lt;div&gt;nc_p_coin_5min_disparity_t&lt;/div&gt;&lt;div&gt;nc_p_coin_10min_disparity_t&lt;/div&gt;&lt;div&gt;nc_p_coin_30min_disparity_t&lt;/div&gt;&lt;div&gt;nc_p_coin_1h disparity_t&lt;/div&gt;&lt;div&gt;nc_p_coin_6h_disparity_t&lt;/div&gt;&lt;div&gt;nc_p_coin_12h_disparity_t&lt;/div&gt;&lt;div&gt;nc_p_coin_1d_masp_t&lt;/div&gt;" style="swimlane;whiteSpace=wrap;html=1;startSize=130;" vertex="1" parent="1">
          <mxGeometry x="20" y="580" width="220" height="230" as="geometry" />
        </mxCell>
        <mxCell id="4Epe9ra23bm6ymHrPzO7-6" value="&lt;div&gt;coin_name &lt;span style=&quot;white-space: pre;&quot;&gt;	&lt;/span&gt;&lt;span style=&quot;white-space: pre;&quot;&gt;	&lt;/span&gt;:&lt;span style=&quot;background-color: initial;&quot;&gt;코인명&lt;/span&gt;&lt;/div&gt;&lt;div&gt;time&amp;nbsp;&lt;span style=&quot;white-space: pre;&quot;&gt;	&lt;/span&gt;&lt;span style=&quot;white-space: pre;&quot;&gt;	&lt;/span&gt;&lt;span style=&quot;white-space: pre;&quot;&gt;	&lt;/span&gt;:&lt;span style=&quot;background-color: initial;&quot;&gt;시간&lt;/span&gt;&lt;/div&gt;&lt;div&gt;disparity&lt;span style=&quot;white-space: pre;&quot;&gt;	&lt;/span&gt;&lt;span style=&quot;white-space: pre;&quot;&gt;	&lt;/span&gt;&lt;span style=&quot;white-space: pre;&quot;&gt;	&lt;/span&gt;:이격도&lt;/div&gt;" style="text;html=1;align=left;verticalAlign=middle;resizable=0;points=[];autosize=1;strokeColor=none;fillColor=none;" vertex="1" parent="1">
          <mxGeometry x="20" y="730" width="170" height="60" as="geometry" />
        </mxCell>
        <mxCell id="4Epe9ra23bm6ymHrPzO7-7" value="&lt;div&gt;nc_p_min_macd_t nc_p_coin_3min_macd_t&lt;/div&gt;&lt;div&gt;nc_p_coin_5min_macd_t&lt;/div&gt;&lt;div&gt;nc_p_coin_10min_macd_t&lt;/div&gt;&lt;div&gt;nc_p_coin_30min_macd_t&lt;/div&gt;&lt;div&gt;nc_p_coin_1h_macd_t&lt;/div&gt;&lt;div&gt;nc_p_coin_6h_macd_t&lt;/div&gt;&lt;div&gt;nc_p_coin 12h_macd_t&lt;/div&gt;&lt;div&gt;nc_p_coin_1d_macd_t&lt;/div&gt;" style="swimlane;whiteSpace=wrap;html=1;startSize=130;" vertex="1" parent="1">
          <mxGeometry x="20" y="830" width="220" height="260" as="geometry" />
        </mxCell>
        <mxCell id="4Epe9ra23bm6ymHrPzO7-8" value="&lt;div&gt;coin_name &lt;span style=&quot;white-space: pre;&quot;&gt;	&lt;/span&gt;&lt;span style=&quot;white-space: pre;&quot;&gt;	&lt;/span&gt;&lt;span style=&quot;&quot;&gt;	&lt;/span&gt;&lt;span style=&quot;&quot;&gt;	&lt;/span&gt;&lt;span style=&quot;&quot;&gt;	&lt;/span&gt;&lt;span style=&quot;&quot;&gt;	&lt;/span&gt;:&lt;span style=&quot;background-color: initial;&quot;&gt;코인명&lt;/span&gt;&lt;/div&gt;&lt;div&gt;time&amp;nbsp;&lt;span style=&quot;&quot;&gt;	&lt;span style=&quot;white-space: pre;&quot;&gt;	&lt;/span&gt;&lt;span style=&quot;white-space: pre;&quot;&gt;	&lt;/span&gt;&lt;span style=&quot;white-space: pre;&quot;&gt;	&lt;/span&gt;&lt;span style=&quot;&quot;&gt;	&lt;/span&gt;&lt;span style=&quot;&quot;&gt;	&lt;/span&gt;&lt;span style=&quot;&quot;&gt;	&lt;/span&gt;&lt;/span&gt;&lt;span style=&quot;&quot;&gt;	&lt;/span&gt;&lt;span style=&quot;&quot;&gt;	&lt;/span&gt;:&lt;span style=&quot;background-color: initial;&quot;&gt;시간&lt;/span&gt;&lt;/div&gt;&lt;div&gt;macd&lt;span style=&quot;&quot;&gt;	&lt;span style=&quot;white-space: pre;&quot;&gt;	&lt;/span&gt;&lt;span style=&quot;white-space: pre;&quot;&gt;	&lt;/span&gt;&lt;span style=&quot;white-space: pre;&quot;&gt;	&lt;/span&gt;&lt;span style=&quot;&quot;&gt;	&lt;/span&gt;&lt;span style=&quot;&quot;&gt;	&lt;/span&gt;&lt;span style=&quot;&quot;&gt;	&lt;/span&gt;&lt;/span&gt;&lt;span style=&quot;&quot;&gt;	&lt;/span&gt;&lt;span style=&quot;&quot;&gt;	&lt;/span&gt;:macd&lt;/div&gt;&lt;div&gt;macdShort &lt;span style=&quot;white-space: pre;&quot;&gt;	&lt;/span&gt;&lt;span style=&quot;white-space: pre;&quot;&gt;	&lt;/span&gt;&amp;nbsp;:macd 숏&amp;nbsp;&lt;span style=&quot;&quot;&gt;	&lt;/span&gt;&lt;span style=&quot;&quot;&gt;	&lt;/span&gt;&amp;nbsp;&lt;/div&gt;&lt;div&gt;&lt;span style=&quot;background-color: initial;&quot;&gt;macdLong &lt;span style=&quot;white-space: pre;&quot;&gt;	&lt;/span&gt;&lt;span style=&quot;white-space: pre;&quot;&gt;	&lt;/span&gt;&amp;nbsp;:macd 롱&lt;/span&gt;&lt;/div&gt;&lt;div&gt;macdSignal&lt;span style=&quot;white-space: pre;&quot;&gt;	&lt;/span&gt;&lt;span style=&quot;white-space: pre;&quot;&gt;	&lt;/span&gt;&amp;nbsp;:macd 시그널&lt;br&gt;&lt;/div&gt;" style="text;html=1;align=left;verticalAlign=middle;resizable=0;points=[];autosize=1;strokeColor=none;fillColor=none;" vertex="1" parent="4Epe9ra23bm6ymHrPzO7-7">
          <mxGeometry x="10" y="140" width="210" height="100" as="geometry" />
        </mxCell>
        <mxCell id="4Epe9ra23bm6ymHrPzO7-9" value="&lt;font style=&quot;font-size: 30px;&quot;&gt;조건탐색 V1&lt;/font&gt;" style="text;html=1;align=center;verticalAlign=middle;resizable=0;points=[];autosize=1;strokeColor=none;fillColor=none;" vertex="1" parent="1">
          <mxGeometry width="190" height="50" as="geometry" />
        </mxCell>
        <mxCell id="4Epe9ra23bm6ymHrPzO7-10" value="현재 사용 조건 가져오기" style="rounded=1;whiteSpace=wrap;html=1;" vertex="1" parent="1">
          <mxGeometry x="322" y="40" width="136" height="30" as="geometry" />
        </mxCell>
        <mxCell id="4Epe9ra23bm6ymHrPzO7-11" value="&lt;div&gt;현재 사용 조건 중 현재 가격 or 거래량 or&amp;nbsp;&lt;/div&gt;&lt;div&gt;거래 대금 조건 존재&amp;nbsp;&lt;/div&gt;" style="rhombus;whiteSpace=wrap;html=1;" vertex="1" parent="1">
          <mxGeometry x="310" y="90" width="160" height="80" as="geometry" />
        </mxCell>
        <mxCell id="4Epe9ra23bm6ymHrPzO7-13" value="&lt;div style=&quot;font-size: 10px;&quot;&gt;&lt;font style=&quot;font-size: 10px;&quot;&gt;주가 범위:&amp;nbsp;&lt;/font&gt;&lt;/div&gt;&lt;div style=&quot;font-size: 10px;&quot;&gt;&lt;font style=&quot;font-size: 10px;&quot;&gt;주가 등락률:&amp;nbsp;&lt;/font&gt;&lt;/div&gt;&lt;div style=&quot;font-size: 10px;&quot;&gt;&lt;font style=&quot;font-size: 10px;&quot;&gt;(( 종목의 종가 - 종목의 과거 종가)&amp;nbsp;&lt;/font&gt;&lt;/div&gt;&lt;div style=&quot;font-size: 10px;&quot;&gt;&lt;span style=&quot;background-color: initial;&quot;&gt;&lt;font style=&quot;font-size: 10px;&quot;&gt;* 종목의 종가 ) / 100&amp;nbsp;&lt;/font&gt;&lt;/span&gt;&lt;/div&gt;&lt;div style=&quot;font-size: 10px;&quot;&gt;&lt;font style=&quot;font-size: 10px;&quot;&gt;&lt;br&gt;&lt;/font&gt;&lt;/div&gt;&lt;div style=&quot;font-size: 10px;&quot;&gt;&lt;font style=&quot;font-size: 10px;&quot;&gt;거래 대금:&lt;/font&gt;&lt;/div&gt;&lt;div style=&quot;font-size: 10px;&quot;&gt;&lt;font style=&quot;font-size: 10px;&quot;&gt;거래량 * 거래 금액 = 거래 대금&lt;/font&gt;&lt;/div&gt;" style="text;html=1;align=left;verticalAlign=middle;resizable=0;points=[];autosize=1;strokeColor=none;fillColor=none;" vertex="1" parent="1">
          <mxGeometry x="647" y="80" width="180" height="100" as="geometry" />
        </mxCell>
        <mxCell id="4Epe9ra23bm6ymHrPzO7-14" value="&lt;div style=&quot;border-color: var(--border-color);&quot;&gt;현재 가격 or 거래량 or&amp;nbsp;&lt;span style=&quot;background-color: initial;&quot;&gt;거래 대금&lt;/span&gt;&lt;span style=&quot;background-color: initial;&quot;&gt;&amp;nbsp;으로 코인 필터&lt;/span&gt;&lt;/div&gt;" style="rounded=1;whiteSpace=wrap;html=1;" vertex="1" parent="1">
          <mxGeometry x="312.5" y="200" width="155" height="50" as="geometry" />
        </mxCell>
        <mxCell id="4Epe9ra23bm6ymHrPzO7-15" value="&lt;div&gt;현재 사용 조건 중 이동 평균&lt;/div&gt;&lt;div&gt;값 비교 조건 존재&lt;/div&gt;" style="rhombus;whiteSpace=wrap;html=1;" vertex="1" parent="1">
          <mxGeometry x="310" y="330" width="160" height="80" as="geometry" />
        </mxCell>
        <mxCell id="4Epe9ra23bm6ymHrPzO7-16" value="&lt;div style=&quot;font-size: 10px;&quot;&gt;&lt;font style=&quot;font-size: 10px;&quot;&gt;이동평균선:.&lt;/font&gt;&lt;/div&gt;&lt;div style=&quot;font-size: 10px;&quot;&gt;&lt;font style=&quot;font-size: 10px;&quot;&gt;(( 단기 이평값 – 장기 이평값 ) * 단기 이평값 ) /100&lt;/font&gt;&lt;/div&gt;&lt;div style=&quot;font-size: 10px;&quot;&gt;&lt;font style=&quot;font-size: 10px;&quot;&gt;&lt;br&gt;&lt;/font&gt;&lt;/div&gt;&lt;div style=&quot;font-size: 10px;&quot;&gt;&lt;font style=&quot;font-size: 10px;&quot;&gt;주가이동 평균 2개 비교:&lt;/font&gt;&lt;/div&gt;&lt;div style=&quot;font-size: 10px;&quot;&gt;&lt;div&gt;&lt;font style=&quot;font-size: 10px;&quot;&gt;첫 번째 단기 이평값 &amp;gt; / &amp;lt; 장기 이평값&amp;nbsp;&lt;/font&gt;&lt;/div&gt;&lt;div&gt;&lt;font style=&quot;font-size: 10px;&quot;&gt;두 번째 단기 이평값 &amp;gt; / &amp;lt; 장기 이평값&amp;nbsp;&lt;/font&gt;&lt;/div&gt;&lt;/div&gt;&lt;div style=&quot;font-size: 10px;&quot;&gt;&lt;font style=&quot;font-size: 10px;&quot;&gt;&lt;br&gt;&lt;/font&gt;&lt;/div&gt;&lt;div style=&quot;font-size: 10px;&quot;&gt;&lt;font style=&quot;font-size: 10px;&quot;&gt;이동 평균 이격도:&lt;/font&gt;&lt;/div&gt;&lt;div style=&quot;font-size: 10px;&quot;&gt;&lt;div&gt;&lt;font style=&quot;font-size: 10px;&quot;&gt;하한 범위 값&amp;nbsp; &amp;lt;&amp;nbsp;&lt;/font&gt;&lt;/div&gt;&lt;div&gt;&lt;font style=&quot;font-size: 10px;&quot;&gt;(( 단기 이평선 - 장기 이평선 ) / 단기 이평선 ) * 100&lt;/font&gt;&lt;/div&gt;&lt;div&gt;&lt;span style=&quot;background-color: initial;&quot;&gt;&lt;font style=&quot;font-size: 10px;&quot;&gt;&amp;lt; 상승 범위 값&lt;/font&gt;&lt;/span&gt;&lt;/div&gt;&lt;/div&gt;&lt;div style=&quot;font-size: 10px;&quot;&gt;&lt;span style=&quot;background-color: initial;&quot;&gt;&lt;font style=&quot;font-size: 10px;&quot;&gt;&lt;br&gt;&lt;/font&gt;&lt;/span&gt;&lt;/div&gt;&lt;div style=&quot;font-size: 10px;&quot;&gt;&lt;span style=&quot;background-color: initial;&quot;&gt;&lt;font style=&quot;font-size: 10px;&quot;&gt;주가 이동 평균 추세&lt;/font&gt;&lt;/span&gt;&lt;/div&gt;&lt;div style=&quot;font-size: 10px;&quot;&gt;&lt;span style=&quot;background-color: initial;&quot;&gt;&lt;font style=&quot;font-size: 10px;&quot;&gt;&lt;div&gt;사용자 지정 봉 종가 - N범위의 평균값 &amp;lt; 0 하락추세&lt;/div&gt;&lt;div&gt;사용자 지정 봉 종가 - N범위의 평균값 &amp;gt; 0 상승추세&lt;/div&gt;&lt;/font&gt;&lt;/span&gt;&lt;/div&gt;&lt;div style=&quot;font-size: 10px;&quot;&gt;&lt;font style=&quot;font-size: 10px;&quot;&gt;&lt;br&gt;&lt;/font&gt;&lt;/div&gt;&lt;div style=&quot;font-size: 10px;&quot;&gt;&lt;br&gt;&lt;/div&gt;" style="text;html=1;align=left;verticalAlign=middle;resizable=0;points=[];autosize=1;strokeColor=none;fillColor=none;" vertex="1" parent="1">
          <mxGeometry x="577" y="320" width="250" height="220" as="geometry" />
        </mxCell>
        <mxCell id="4Epe9ra23bm6ymHrPzO7-17" value="&lt;div&gt;이격도 데이터로 코&lt;span style=&quot;background-color: initial;&quot;&gt;인 필터&lt;/span&gt;&lt;/div&gt;" style="rounded=1;whiteSpace=wrap;html=1;" vertex="1" parent="1">
          <mxGeometry x="330" y="690" width="120" height="60" as="geometry" />
        </mxCell>
        <mxCell id="4Epe9ra23bm6ymHrPzO7-18" value="&lt;div&gt;현재 사용 조건 중 이격도&amp;nbsp;&lt;span style=&quot;background-color: initial;&quot;&gt;값 비교 조건 존재&lt;/span&gt;&lt;/div&gt;" style="rhombus;whiteSpace=wrap;html=1;" vertex="1" parent="1">
          <mxGeometry x="310" y="580" width="160" height="80" as="geometry" />
        </mxCell>
        <mxCell id="4Epe9ra23bm6ymHrPzO7-19" value="&lt;div style=&quot;font-size: 10px;&quot;&gt;&lt;font style=&quot;font-size: 10px;&quot;&gt;이격도 기준값 돌파:&lt;/font&gt;&lt;/div&gt;&lt;div style=&quot;font-size: 10px;&quot;&gt;&lt;font style=&quot;font-size: 10px;&quot;&gt;(( 해당 봉에 대한 평균 값-해당 봉에 대한 값 )&lt;/font&gt;&lt;/div&gt;&lt;div style=&quot;font-size: 10px;&quot;&gt;&lt;font style=&quot;font-size: 10px;&quot;&gt;&amp;nbsp;/ 해당 봉에 대한 평균 값 ) * 100&amp;nbsp;&lt;/font&gt;&lt;/div&gt;&lt;div style=&quot;font-size: 10px;&quot;&gt;&lt;font style=&quot;font-size: 10px;&quot;&gt;&amp;gt; 사용자 지정 기준 값&lt;br&gt;&lt;/font&gt;&lt;/div&gt;&lt;div style=&quot;font-size: 10px;&quot;&gt;&lt;font style=&quot;font-size: 10px;&quot;&gt;&lt;br&gt;&lt;/font&gt;&lt;/div&gt;&lt;div style=&quot;font-size: 10px;&quot;&gt;&lt;font style=&quot;font-size: 10px;&quot;&gt;이격도 기준값 범위&lt;/font&gt;&lt;/div&gt;&lt;div style=&quot;font-size: 10px;&quot;&gt;&lt;font style=&quot;font-size: 10px;&quot;&gt;&lt;div&gt;하한 값 &amp;lt;&amp;nbsp;&lt;span style=&quot;background-color: initial;&quot;&gt;이격도&amp;nbsp;&lt;/span&gt;&lt;span style=&quot;background-color: initial;&quot;&gt;&amp;lt; 상한 값&lt;/span&gt;&lt;/div&gt;&lt;/font&gt;&lt;/div&gt;&lt;div style=&quot;font-size: 10px;&quot;&gt;&lt;font style=&quot;font-size: 10px;&quot;&gt;&lt;br&gt;&lt;/font&gt;&lt;/div&gt;&lt;div style=&quot;font-size: 10px;&quot;&gt;&lt;font style=&quot;font-size: 10px;&quot;&gt;이격도 기준값 이상 이하&lt;/font&gt;&lt;/div&gt;&lt;div style=&quot;font-size: 10px;&quot;&gt;&lt;font style=&quot;font-size: 10px;&quot;&gt;(( 해당 봉에 대한 평균 값-해당 봉에 대한 값 )&amp;nbsp;&lt;/font&gt;&lt;/div&gt;&lt;div style=&quot;font-size: 10px;&quot;&gt;&lt;font style=&quot;font-size: 10px;&quot;&gt;/ 해당 봉에 대한 평균 값 ) * 100&amp;nbsp;&lt;br&gt;&lt;/font&gt;&lt;/div&gt;&lt;div style=&quot;font-size: 10px;&quot;&gt;&lt;font style=&quot;font-size: 10px;&quot;&gt;&lt;br&gt;&lt;/font&gt;&lt;/div&gt;&lt;div style=&quot;font-size: 10px;&quot;&gt;&lt;font style=&quot;font-size: 10px;&quot;&gt;이격도 추세&lt;/font&gt;&lt;/div&gt;&lt;div style=&quot;font-size: 10px;&quot;&gt;&lt;font style=&quot;font-size: 10px;&quot;&gt;&lt;div&gt;사용자 지정 봉 종가 - N범위의 평균값 &amp;lt; 0 하락추세&lt;/div&gt;&lt;div&gt;사용자 지정 봉 종가 - N범위의 평균값 &amp;gt; 0 상승추세&lt;/div&gt;&lt;div&gt;&lt;br&gt;&lt;/div&gt;&lt;/font&gt;&lt;/div&gt;&lt;div style=&quot;font-size: 10px;&quot;&gt;&lt;font style=&quot;font-size: 10px;&quot;&gt;이격도 반전&lt;/font&gt;&lt;/div&gt;&lt;div style=&quot;font-size: 10px;&quot;&gt;&lt;div style=&quot;&quot;&gt;&lt;font style=&quot;font-size: 10px;&quot;&gt;사용자 지정 봉 종가 - N범위의 평균값 &amp;lt; 0 하락추세&lt;/font&gt;&lt;/div&gt;&lt;div style=&quot;&quot;&gt;&lt;font style=&quot;font-size: 10px;&quot;&gt;사용자 지정 봉 종가 - N범위의 평균값 &amp;gt; 0 상승추세&lt;/font&gt;&lt;/div&gt;&lt;/div&gt;" style="text;html=1;align=left;verticalAlign=middle;resizable=0;points=[];autosize=1;strokeColor=none;fillColor=none;" vertex="1" parent="1">
          <mxGeometry x="577" y="570" width="250" height="240" as="geometry" />
        </mxCell>
        <mxCell id="4Epe9ra23bm6ymHrPzO7-20" value="&lt;div&gt;이동 평균 데이터로 코&lt;/div&gt;&lt;div&gt;인 필터&lt;/div&gt;" style="rounded=1;whiteSpace=wrap;html=1;" vertex="1" parent="1">
          <mxGeometry x="310" y="460" width="160" height="60" as="geometry" />
        </mxCell>
        <mxCell id="4Epe9ra23bm6ymHrPzO7-21" value="&lt;div&gt;macd 데이터로 코인&lt;span style=&quot;background-color: initial;&quot;&gt;필터&lt;/span&gt;&lt;/div&gt;" style="rounded=1;whiteSpace=wrap;html=1;" vertex="1" parent="1">
          <mxGeometry x="330" y="930" width="120" height="60" as="geometry" />
        </mxCell>
        <mxCell id="4Epe9ra23bm6ymHrPzO7-22" value="&lt;div&gt;현재 사용 조건 중 macd&amp;nbsp;&lt;span style=&quot;background-color: initial;&quot;&gt;값 비교 조건 존재&lt;/span&gt;&lt;/div&gt;" style="rhombus;whiteSpace=wrap;html=1;" vertex="1" parent="1">
          <mxGeometry x="310" y="820" width="160" height="80" as="geometry" />
        </mxCell>
        <mxCell id="4Epe9ra23bm6ymHrPzO7-23" value="&lt;div style=&quot;font-size: 10px;&quot;&gt;&lt;div style=&quot;font-size: 10px;&quot;&gt;&lt;span style=&quot;background-color: initial;&quot;&gt;MACD = 단기지수이동평균 - 장기지수이동평균&lt;/span&gt;&lt;br&gt;&lt;/div&gt;&lt;div style=&quot;&quot;&gt;&lt;div style=&quot;&quot;&gt;&lt;span style=&quot;font-size: 10px;&quot;&gt;Signal Line = MACD의 n일 지수이동평균&lt;/span&gt;&lt;/div&gt;&lt;div style=&quot;&quot;&gt;&lt;span style=&quot;font-size: 10px;&quot;&gt;MACD 오실레이터 = MACD - Signal Line&lt;/span&gt;&lt;/div&gt;&lt;/div&gt;&lt;div style=&quot;font-size: 10px;&quot;&gt;&lt;br&gt;&lt;/div&gt;&lt;div style=&quot;font-size: 10px;&quot;&gt;macd 기준선 돌파&lt;/div&gt;&lt;div style=&quot;font-size: 10px;&quot;&gt;사용자 지정 값 &amp;lt; macd 지표&lt;/div&gt;&lt;div style=&quot;font-size: 10px;&quot;&gt;&lt;br&gt;&lt;/div&gt;&lt;div style=&quot;font-size: 10px;&quot;&gt;macd 기준선 비교:&lt;/div&gt;&lt;div style=&quot;font-size: 10px;&quot;&gt;&lt;div style=&quot;border-color: var(--border-color);&quot;&gt;사용자 지정 값, macd 지표 비교&lt;/div&gt;&lt;div style=&quot;border-color: var(--border-color);&quot;&gt;&lt;br style=&quot;border-color: var(--border-color);&quot;&gt;&lt;/div&gt;&lt;/div&gt;&lt;div style=&quot;font-size: 10px;&quot;&gt;macd 기준값 돌파&lt;/div&gt;&lt;div style=&quot;font-size: 10px;&quot;&gt;macd N선 &amp;lt; macd 지표&amp;nbsp;&amp;nbsp;&lt;/div&gt;&lt;div style=&quot;font-size: 10px;&quot;&gt;&lt;br&gt;&lt;/div&gt;&lt;div style=&quot;font-size: 10px;&quot;&gt;macd 기준값 이상 이하:&lt;/div&gt;&lt;div style=&quot;font-size: 10px;&quot;&gt;macd 사용자 지정 값 &amp;lt;= macd 지표&amp;nbsp;&lt;br&gt;&lt;/div&gt;&lt;div style=&quot;font-size: 10px;&quot;&gt;macd 사용자 지정 값&amp;nbsp;&amp;gt;= macd 지표&amp;nbsp;&lt;br&gt;&lt;/div&gt;&lt;div style=&quot;font-size: 10px;&quot;&gt;&lt;br&gt;&lt;/div&gt;&lt;div style=&quot;font-size: 10px;&quot;&gt;macd 기준값 범위&lt;/div&gt;&lt;div style=&quot;font-size: 10px;&quot;&gt;macd 사용자 지정 값 &amp;lt; macd 지표 &amp;lt;&amp;nbsp;&lt;/div&gt;&lt;div style=&quot;font-size: 10px;&quot;&gt;macd 사용자 지정 값&lt;br&gt;&lt;/div&gt;&lt;div style=&quot;font-size: 10px;&quot;&gt;&lt;br&gt;&lt;/div&gt;&lt;div style=&quot;font-size: 10px;&quot;&gt;macd 추세&lt;/div&gt;&lt;div style=&quot;font-size: 10px;&quot;&gt;&lt;div style=&quot;border-color: var(--border-color);&quot;&gt;이전 macd 지표 대비 하락 : 하락추세&lt;/div&gt;&lt;div style=&quot;border-color: var(--border-color);&quot;&gt;이전 macd 지표 대비 상승 : 상승추세&lt;br&gt;&lt;/div&gt;&lt;div style=&quot;border-color: var(--border-color);&quot;&gt;&lt;br&gt;&lt;/div&gt;&lt;/div&gt;&lt;div style=&quot;font-size: 10px;&quot;&gt;macd 반전&lt;/div&gt;&lt;div style=&quot;font-size: 10px;&quot;&gt;이전 macd 추세 대비 추세 반전&lt;br&gt;&lt;/div&gt;&lt;/div&gt;" style="text;html=1;align=left;verticalAlign=middle;resizable=0;points=[];autosize=1;strokeColor=none;fillColor=none;" vertex="1" parent="1">
          <mxGeometry x="597" y="805" width="230" height="340" as="geometry" />
        </mxCell>
        <mxCell id="4Epe9ra23bm6ymHrPzO7-24" value="&lt;div style=&quot;font-size: 10px;&quot;&gt;&lt;div style=&quot;font-size: 10px;&quot;&gt;&lt;span style=&quot;background-color: initial;&quot;&gt;MACD = 단기지수이동평균 - 장기지수이동평균&lt;/span&gt;&lt;br&gt;&lt;/div&gt;&lt;div style=&quot;&quot;&gt;&lt;div style=&quot;&quot;&gt;&lt;span style=&quot;font-size: 10px;&quot;&gt;Signal Line = MACD의 n일 지수이동평균&lt;/span&gt;&lt;/div&gt;&lt;div style=&quot;&quot;&gt;&lt;span style=&quot;font-size: 10px;&quot;&gt;MACD 오실레이터 = MACD - Signal Line&lt;/span&gt;&lt;/div&gt;&lt;/div&gt;&lt;div style=&quot;font-size: 10px;&quot;&gt;&lt;br&gt;&lt;/div&gt;&lt;div style=&quot;font-size: 10px;&quot;&gt;macd&amp;nbsp;Signal&amp;nbsp;&lt;span style=&quot;background-color: initial;&quot;&gt;기준값 돌파&lt;/span&gt;&lt;/div&gt;&lt;div style=&quot;font-size: 10px;&quot;&gt;macd N선 &amp;lt; macd 지표&amp;nbsp;&amp;nbsp;&lt;/div&gt;&lt;div style=&quot;font-size: 10px;&quot;&gt;&lt;br&gt;&lt;/div&gt;&lt;div style=&quot;font-size: 10px;&quot;&gt;macd&amp;nbsp;Signal&amp;nbsp;&lt;span style=&quot;background-color: initial;&quot;&gt;기준값 이상 이하:&lt;/span&gt;&lt;/div&gt;&lt;div style=&quot;font-size: 10px;&quot;&gt;macd&amp;nbsp;Signal&amp;nbsp;&lt;span style=&quot;background-color: initial;&quot;&gt;사용자 지정 값 &amp;lt;= macd 지표&amp;nbsp;&lt;/span&gt;&lt;/div&gt;&lt;div style=&quot;font-size: 10px;&quot;&gt;macd&amp;nbsp;Signal&amp;nbsp;&lt;span style=&quot;background-color: initial;&quot;&gt;사용자 지정 값&amp;nbsp;&amp;gt;= macd 지표&amp;nbsp;&lt;/span&gt;&lt;/div&gt;&lt;div style=&quot;font-size: 10px;&quot;&gt;&lt;br&gt;&lt;/div&gt;&lt;div style=&quot;font-size: 10px;&quot;&gt;macd&amp;nbsp;Signal&amp;nbsp;&lt;span style=&quot;background-color: initial;&quot;&gt;기준값 범위&lt;/span&gt;&lt;/div&gt;&lt;div style=&quot;font-size: 10px;&quot;&gt;macd&amp;nbsp;Signal&amp;nbsp;&lt;span style=&quot;background-color: initial;&quot;&gt;사용자 지정 값 &amp;lt; macd 지표&amp;nbsp;&lt;/span&gt;&lt;/div&gt;&lt;div style=&quot;font-size: 10px;&quot;&gt;&lt;span style=&quot;background-color: initial;&quot;&gt;&amp;lt;&amp;nbsp;&lt;/span&gt;&lt;span style=&quot;background-color: initial;&quot;&gt;macd&amp;nbsp;&lt;/span&gt;&lt;span style=&quot;background-color: initial;&quot;&gt;Signal&amp;nbsp;&lt;/span&gt;&lt;span style=&quot;background-color: initial;&quot;&gt;사용자 지정 값&lt;/span&gt;&lt;/div&gt;&lt;div style=&quot;font-size: 10px;&quot;&gt;&lt;br&gt;&lt;/div&gt;&lt;div style=&quot;font-size: 10px;&quot;&gt;macd&amp;nbsp;Signal&lt;span style=&quot;background-color: initial;&quot;&gt;추세&lt;/span&gt;&lt;/div&gt;&lt;div style=&quot;font-size: 10px;&quot;&gt;&lt;div style=&quot;border-color: var(--border-color);&quot;&gt;이전 macd&amp;nbsp;Signal&lt;span style=&quot;background-color: initial;&quot;&gt;지표 대비 하락 : 하락추세&lt;/span&gt;&lt;/div&gt;&lt;div style=&quot;border-color: var(--border-color);&quot;&gt;이전 macd&amp;nbsp;Signal&lt;span style=&quot;background-color: initial;&quot;&gt;지표 대비 상승 : 상승추세&lt;/span&gt;&lt;/div&gt;&lt;div style=&quot;border-color: var(--border-color);&quot;&gt;&lt;br&gt;&lt;/div&gt;&lt;/div&gt;&lt;div style=&quot;font-size: 10px;&quot;&gt;macd&amp;nbsp;Signal&amp;nbsp;&lt;span style=&quot;background-color: initial;&quot;&gt;반전&lt;/span&gt;&lt;/div&gt;&lt;div style=&quot;font-size: 10px;&quot;&gt;이전 macd 추세 대비 추세 반전&lt;br&gt;&lt;/div&gt;&lt;/div&gt;" style="text;html=1;align=left;verticalAlign=middle;resizable=0;points=[];autosize=1;strokeColor=none;fillColor=none;" vertex="1" parent="1">
          <mxGeometry x="597" y="1160" width="230" height="270" as="geometry" />
        </mxCell>
        <mxCell id="4Epe9ra23bm6ymHrPzO7-25" value="" style="endArrow=classic;html=1;rounded=0;exitX=0.5;exitY=1;exitDx=0;exitDy=0;entryX=0.5;entryY=0;entryDx=0;entryDy=0;" edge="1" parent="1" source="4Epe9ra23bm6ymHrPzO7-10" target="4Epe9ra23bm6ymHrPzO7-11">
          <mxGeometry width="50" height="50" relative="1" as="geometry">
            <mxPoint x="520" y="360" as="sourcePoint" />
            <mxPoint x="570" y="310" as="targetPoint" />
          </mxGeometry>
        </mxCell>
        <mxCell id="4Epe9ra23bm6ymHrPzO7-26" value="" style="endArrow=classic;html=1;rounded=0;exitX=0.5;exitY=1;exitDx=0;exitDy=0;entryX=0.5;entryY=0;entryDx=0;entryDy=0;" edge="1" parent="1" source="4Epe9ra23bm6ymHrPzO7-11" target="4Epe9ra23bm6ymHrPzO7-14">
          <mxGeometry width="50" height="50" relative="1" as="geometry">
            <mxPoint x="520" y="360" as="sourcePoint" />
            <mxPoint x="570" y="310" as="targetPoint" />
          </mxGeometry>
        </mxCell>
        <mxCell id="4Epe9ra23bm6ymHrPzO7-27" value="" style="endArrow=classic;html=1;rounded=0;exitX=0.5;exitY=1;exitDx=0;exitDy=0;" edge="1" parent="1" source="4Epe9ra23bm6ymHrPzO7-14" target="4Epe9ra23bm6ymHrPzO7-15">
          <mxGeometry width="50" height="50" relative="1" as="geometry">
            <mxPoint x="520" y="360" as="sourcePoint" />
            <mxPoint x="570" y="310" as="targetPoint" />
          </mxGeometry>
        </mxCell>
        <mxCell id="4Epe9ra23bm6ymHrPzO7-28" value="" style="endArrow=classic;html=1;rounded=0;exitX=0.5;exitY=1;exitDx=0;exitDy=0;entryX=0.5;entryY=0;entryDx=0;entryDy=0;" edge="1" parent="1" source="4Epe9ra23bm6ymHrPzO7-15" target="4Epe9ra23bm6ymHrPzO7-20">
          <mxGeometry width="50" height="50" relative="1" as="geometry">
            <mxPoint x="520" y="360" as="sourcePoint" />
            <mxPoint x="570" y="310" as="targetPoint" />
          </mxGeometry>
        </mxCell>
        <mxCell id="4Epe9ra23bm6ymHrPzO7-29" value="" style="endArrow=classic;html=1;rounded=0;exitX=0.5;exitY=1;exitDx=0;exitDy=0;" edge="1" parent="1" source="4Epe9ra23bm6ymHrPzO7-20" target="4Epe9ra23bm6ymHrPzO7-18">
          <mxGeometry width="50" height="50" relative="1" as="geometry">
            <mxPoint x="520" y="960" as="sourcePoint" />
            <mxPoint x="570" y="910" as="targetPoint" />
          </mxGeometry>
        </mxCell>
        <mxCell id="4Epe9ra23bm6ymHrPzO7-30" value="" style="endArrow=classic;html=1;rounded=0;exitX=0.5;exitY=1;exitDx=0;exitDy=0;entryX=0.5;entryY=0;entryDx=0;entryDy=0;" edge="1" parent="1" source="4Epe9ra23bm6ymHrPzO7-22" target="4Epe9ra23bm6ymHrPzO7-21">
          <mxGeometry width="50" height="50" relative="1" as="geometry">
            <mxPoint x="520" y="960" as="sourcePoint" />
            <mxPoint x="570" y="910" as="targetPoint" />
          </mxGeometry>
        </mxCell>
        <mxCell id="4Epe9ra23bm6ymHrPzO7-31" value="" style="endArrow=classic;html=1;rounded=0;exitX=0.5;exitY=1;exitDx=0;exitDy=0;entryX=0.5;entryY=0;entryDx=0;entryDy=0;" edge="1" parent="1" source="4Epe9ra23bm6ymHrPzO7-17" target="4Epe9ra23bm6ymHrPzO7-22">
          <mxGeometry width="50" height="50" relative="1" as="geometry">
            <mxPoint x="520" y="960" as="sourcePoint" />
            <mxPoint x="570" y="910" as="targetPoint" />
          </mxGeometry>
        </mxCell>
        <mxCell id="4Epe9ra23bm6ymHrPzO7-32" value="" style="endArrow=classic;html=1;rounded=0;exitX=0.5;exitY=1;exitDx=0;exitDy=0;entryX=0.5;entryY=0;entryDx=0;entryDy=0;" edge="1" parent="1" source="4Epe9ra23bm6ymHrPzO7-18" target="4Epe9ra23bm6ymHrPzO7-17">
          <mxGeometry width="50" height="50" relative="1" as="geometry">
            <mxPoint x="520" y="960" as="sourcePoint" />
            <mxPoint x="570" y="910" as="targetPoint" />
          </mxGeometry>
        </mxCell>
        <mxCell id="4Epe9ra23bm6ymHrPzO7-33" value="" style="endArrow=classic;html=1;rounded=0;exitX=1;exitY=0.5;exitDx=0;exitDy=0;" edge="1" parent="1" source="4Epe9ra23bm6ymHrPzO7-22">
          <mxGeometry width="50" height="50" relative="1" as="geometry">
            <mxPoint x="520" y="360" as="sourcePoint" />
            <mxPoint x="390" y="1040" as="targetPoint" />
            <Array as="points">
              <mxPoint x="520" y="860" />
              <mxPoint x="520" y="1040" />
            </Array>
          </mxGeometry>
        </mxCell>
        <mxCell id="4Epe9ra23bm6ymHrPzO7-34" value="" style="endArrow=classic;html=1;rounded=0;exitX=1;exitY=0.5;exitDx=0;exitDy=0;" edge="1" parent="1" source="4Epe9ra23bm6ymHrPzO7-18">
          <mxGeometry width="50" height="50" relative="1" as="geometry">
            <mxPoint x="520" y="360" as="sourcePoint" />
            <mxPoint x="390" y="780" as="targetPoint" />
            <Array as="points">
              <mxPoint x="520" y="620" />
              <mxPoint x="520" y="780" />
            </Array>
          </mxGeometry>
        </mxCell>
        <mxCell id="4Epe9ra23bm6ymHrPzO7-35" value="" style="endArrow=classic;html=1;rounded=0;exitX=1;exitY=0.5;exitDx=0;exitDy=0;" edge="1" parent="1" source="4Epe9ra23bm6ymHrPzO7-15">
          <mxGeometry width="50" height="50" relative="1" as="geometry">
            <mxPoint x="520" y="360" as="sourcePoint" />
            <mxPoint x="390" y="540" as="targetPoint" />
            <Array as="points">
              <mxPoint x="520" y="370" />
              <mxPoint x="520" y="540" />
            </Array>
          </mxGeometry>
        </mxCell>
        <mxCell id="4Epe9ra23bm6ymHrPzO7-36" value="" style="endArrow=classic;html=1;rounded=0;exitX=1;exitY=0.5;exitDx=0;exitDy=0;" edge="1" parent="1" source="4Epe9ra23bm6ymHrPzO7-11">
          <mxGeometry width="50" height="50" relative="1" as="geometry">
            <mxPoint x="520" y="360" as="sourcePoint" />
            <mxPoint x="390" y="290" as="targetPoint" />
            <Array as="points">
              <mxPoint x="520" y="130" />
              <mxPoint x="520" y="290" />
            </Array>
          </mxGeometry>
        </mxCell>
        <mxCell id="4Epe9ra23bm6ymHrPzO7-37" value="" style="endArrow=classic;html=1;rounded=0;exitX=0.5;exitY=1;exitDx=0;exitDy=0;entryX=0.5;entryY=0;entryDx=0;entryDy=0;" edge="1" parent="1" source="4Epe9ra23bm6ymHrPzO7-21" target="4Epe9ra23bm6ymHrPzO7-38">
          <mxGeometry width="50" height="50" relative="1" as="geometry">
            <mxPoint x="520" y="960" as="sourcePoint" />
            <mxPoint x="390" y="1090" as="targetPoint" />
          </mxGeometry>
        </mxCell>
        <mxCell id="4Epe9ra23bm6ymHrPzO7-38" value="조건에 맞는 코인 insert" style="rounded=1;whiteSpace=wrap;html=1;" vertex="1" parent="1">
          <mxGeometry x="330" y="1160" width="120" height="60" as="geometry" />
        </mxCell>
        <mxCell id="4Epe9ra23bm6ymHrPzO7-39" value="nc_f_recommend_coin_list_t&lt;br&gt;nc_f_recommend_coin_t" style="swimlane;whiteSpace=wrap;html=1;startSize=30;" vertex="1" parent="1">
          <mxGeometry x="40" y="1130" width="200" height="120" as="geometry" />
        </mxCell>
        <mxCell id="4Epe9ra23bm6ymHrPzO7-40" value="coin_name&amp;nbsp;&lt;span style=&quot;white-space: pre;&quot;&gt;	&lt;/span&gt;&lt;span style=&quot;white-space: pre;&quot;&gt;	&lt;/span&gt;:코인 명&lt;br&gt;time&lt;span style=&quot;white-space: pre;&quot;&gt;	&lt;/span&gt;&lt;span style=&quot;white-space: pre;&quot;&gt;	&lt;/span&gt;&lt;span style=&quot;white-space: pre;&quot;&gt;	&lt;/span&gt;&lt;span style=&quot;white-space: pre;&quot;&gt;	&lt;/span&gt;:시간&lt;br&gt;price&lt;span style=&quot;white-space: pre;&quot;&gt;	&lt;/span&gt;&lt;span style=&quot;white-space: pre;&quot;&gt;	&lt;/span&gt;&lt;span style=&quot;white-space: pre;&quot;&gt;	&lt;/span&gt;:가격&lt;br&gt;option_name&lt;span style=&quot;white-space: pre;&quot;&gt;	&lt;/span&gt;&lt;span style=&quot;white-space: pre;&quot;&gt;	&lt;/span&gt;:옵션 명" style="text;html=1;align=left;verticalAlign=middle;resizable=0;points=[];autosize=1;strokeColor=none;fillColor=none;" vertex="1" parent="4Epe9ra23bm6ymHrPzO7-39">
          <mxGeometry x="10" y="39" width="170" height="70" as="geometry" />
        </mxCell>
        <mxCell id="4Epe9ra23bm6ymHrPzO7-41" value="" style="endArrow=classic;html=1;rounded=0;exitX=0;exitY=0.5;exitDx=0;exitDy=0;entryX=1;entryY=0.5;entryDx=0;entryDy=0;" edge="1" parent="1" source="4Epe9ra23bm6ymHrPzO7-38" target="4Epe9ra23bm6ymHrPzO7-39">
          <mxGeometry width="50" height="50" relative="1" as="geometry">
            <mxPoint x="520" y="1120" as="sourcePoint" />
            <mxPoint x="570" y="1070" as="targetPoint" />
          </mxGeometry>
        </mxCell>
      </root>
    </mxGraphModel>
  </diagram>
  <diagram id="i4EQVjhopgweO_RzPMcu" name="페이지-4">
    <mxGraphModel dx="1434" dy="739" grid="1" gridSize="10" guides="1" tooltips="1" connect="1" arrows="1" fold="1" page="1" pageScale="1" pageWidth="827" pageHeight="1169" math="0" shadow="0">
      <root>
        <mxCell id="0" />
        <mxCell id="1" parent="0" />
        <mxCell id="TeY4YUzSOAcdukQ_QpdO-1" value="&lt;font style=&quot;font-size: 30px;&quot;&gt;조건탐색 V2&lt;/font&gt;" style="text;html=1;align=center;verticalAlign=middle;resizable=0;points=[];autosize=1;strokeColor=none;fillColor=none;" vertex="1" parent="1">
          <mxGeometry width="190" height="50" as="geometry" />
        </mxCell>
        <mxCell id="TeY4YUzSOAcdukQ_QpdO-2" value="사용 조건 가져오기" style="rounded=1;whiteSpace=wrap;html=1;fontSize=12;glass=0;strokeWidth=1;shadow=0;" vertex="1" parent="1">
          <mxGeometry x="130" y="120" width="140" height="40" as="geometry" />
        </mxCell>
        <mxCell id="TeY4YUzSOAcdukQ_QpdO-3" value="사용 조건중 현재 가격, 현재 거래량, 거래대금 존재" style="rhombus;whiteSpace=wrap;html=1;" vertex="1" parent="1">
          <mxGeometry x="110" y="190" width="180" height="60" as="geometry" />
        </mxCell>
        <mxCell id="TeY4YUzSOAcdukQ_QpdO-4" value="조건 맞는 코인 가져오기" style="rounded=1;whiteSpace=wrap;html=1;" vertex="1" parent="1">
          <mxGeometry x="130" y="280" width="140" height="40" as="geometry" />
        </mxCell>
        <mxCell id="TeY4YUzSOAcdukQ_QpdO-5" value="" style="endArrow=classic;html=1;rounded=0;exitX=0.5;exitY=1;exitDx=0;exitDy=0;" edge="1" parent="1" source="TeY4YUzSOAcdukQ_QpdO-2" target="TeY4YUzSOAcdukQ_QpdO-3">
          <mxGeometry width="50" height="50" relative="1" as="geometry">
            <mxPoint x="370" y="470" as="sourcePoint" />
            <mxPoint x="420" y="420" as="targetPoint" />
          </mxGeometry>
        </mxCell>
        <mxCell id="TeY4YUzSOAcdukQ_QpdO-6" value="" style="endArrow=classic;html=1;rounded=0;exitX=0.5;exitY=1;exitDx=0;exitDy=0;entryX=0.5;entryY=0;entryDx=0;entryDy=0;" edge="1" parent="1" source="TeY4YUzSOAcdukQ_QpdO-3" target="TeY4YUzSOAcdukQ_QpdO-4">
          <mxGeometry width="50" height="50" relative="1" as="geometry">
            <mxPoint x="370" y="470" as="sourcePoint" />
            <mxPoint x="420" y="420" as="targetPoint" />
          </mxGeometry>
        </mxCell>
        <mxCell id="TeY4YUzSOAcdukQ_QpdO-7" value="모든 코인 가져오기" style="rounded=1;whiteSpace=wrap;html=1;" vertex="1" parent="1">
          <mxGeometry x="300" y="280" width="120" height="40" as="geometry" />
        </mxCell>
        <mxCell id="TeY4YUzSOAcdukQ_QpdO-8" value="" style="endArrow=classic;html=1;rounded=0;exitX=1;exitY=0.5;exitDx=0;exitDy=0;entryX=0.5;entryY=0;entryDx=0;entryDy=0;" edge="1" parent="1" source="TeY4YUzSOAcdukQ_QpdO-3" target="TeY4YUzSOAcdukQ_QpdO-7">
          <mxGeometry width="50" height="50" relative="1" as="geometry">
            <mxPoint x="370" y="470" as="sourcePoint" />
            <mxPoint x="420" y="420" as="targetPoint" />
            <Array as="points">
              <mxPoint x="360" y="220" />
            </Array>
          </mxGeometry>
        </mxCell>
        <mxCell id="TeY4YUzSOAcdukQ_QpdO-9" value="" style="endArrow=classic;html=1;rounded=0;exitX=0.5;exitY=1;exitDx=0;exitDy=0;entryX=0.5;entryY=0;entryDx=0;entryDy=0;" edge="1" parent="1" source="TeY4YUzSOAcdukQ_QpdO-4" target="TeY4YUzSOAcdukQ_QpdO-10">
          <mxGeometry width="50" height="50" relative="1" as="geometry">
            <mxPoint x="370" y="570" as="sourcePoint" />
            <mxPoint x="200" y="360" as="targetPoint" />
          </mxGeometry>
        </mxCell>
        <mxCell id="TeY4YUzSOAcdukQ_QpdO-10" value="코인 별로 &lt;br&gt;csv 파일 읽어오기&lt;br&gt;macd, 이격도 생성" style="rounded=1;whiteSpace=wrap;html=1;" vertex="1" parent="1">
          <mxGeometry x="140" y="390" width="120" height="50" as="geometry" />
        </mxCell>
        <mxCell id="TeY4YUzSOAcdukQ_QpdO-11" value="" style="endArrow=classic;html=1;rounded=0;exitX=0.5;exitY=1;exitDx=0;exitDy=0;" edge="1" parent="1" source="TeY4YUzSOAcdukQ_QpdO-7">
          <mxGeometry width="50" height="50" relative="1" as="geometry">
            <mxPoint x="370" y="570" as="sourcePoint" />
            <mxPoint x="200" y="340" as="targetPoint" />
            <Array as="points">
              <mxPoint x="360" y="340" />
            </Array>
          </mxGeometry>
        </mxCell>
        <mxCell id="TeY4YUzSOAcdukQ_QpdO-12" value="&amp;nbsp; Yes" style="text;html=1;align=center;verticalAlign=middle;resizable=0;points=[];autosize=1;strokeColor=none;fillColor=none;" vertex="1" parent="1">
          <mxGeometry x="195" y="250" width="50" height="30" as="geometry" />
        </mxCell>
        <mxCell id="TeY4YUzSOAcdukQ_QpdO-13" value="No" style="text;html=1;align=center;verticalAlign=middle;resizable=0;points=[];autosize=1;strokeColor=none;fillColor=none;" vertex="1" parent="1">
          <mxGeometry x="360" y="248" width="40" height="30" as="geometry" />
        </mxCell>
        <mxCell id="TeY4YUzSOAcdukQ_QpdO-14" value="사용 조건중 주가등락률 존재" style="rhombus;whiteSpace=wrap;html=1;" vertex="1" parent="1">
          <mxGeometry x="140" y="470" width="120" height="60" as="geometry" />
        </mxCell>
        <mxCell id="TeY4YUzSOAcdukQ_QpdO-15" value="사용 조건중 평균 거래량 존재" style="rhombus;whiteSpace=wrap;html=1;" vertex="1" parent="1">
          <mxGeometry x="140" y="560" width="120" height="60" as="geometry" />
        </mxCell>
        <mxCell id="TeY4YUzSOAcdukQ_QpdO-16" value="사용 조건중 주가 이동평균 존재" style="rhombus;whiteSpace=wrap;html=1;" vertex="1" parent="1">
          <mxGeometry x="140" y="650" width="120" height="60" as="geometry" />
        </mxCell>
        <mxCell id="TeY4YUzSOAcdukQ_QpdO-17" value="........." style="rhombus;whiteSpace=wrap;html=1;" vertex="1" parent="1">
          <mxGeometry x="140" y="740" width="120" height="60" as="geometry" />
        </mxCell>
        <mxCell id="TeY4YUzSOAcdukQ_QpdO-18" value="평균 거래량 계산, 조건에 맞으면 pass&lt;br&gt;안 맞으면 break" style="rounded=1;whiteSpace=wrap;html=1;" vertex="1" parent="1">
          <mxGeometry x="340" y="570" width="120" height="40" as="geometry" />
        </mxCell>
        <mxCell id="TeY4YUzSOAcdukQ_QpdO-19" value="" style="endArrow=classic;html=1;rounded=0;exitX=1;exitY=0.5;exitDx=0;exitDy=0;entryX=0;entryY=0.5;entryDx=0;entryDy=0;" edge="1" parent="1" target="TeY4YUzSOAcdukQ_QpdO-18">
          <mxGeometry width="50" height="50" relative="1" as="geometry">
            <mxPoint x="260" y="590" as="sourcePoint" />
            <mxPoint x="420" y="690" as="targetPoint" />
          </mxGeometry>
        </mxCell>
        <mxCell id="TeY4YUzSOAcdukQ_QpdO-20" value="" style="endArrow=classic;html=1;rounded=0;exitX=0.5;exitY=1;exitDx=0;exitDy=0;entryX=0.5;entryY=0;entryDx=0;entryDy=0;" edge="1" parent="1" source="TeY4YUzSOAcdukQ_QpdO-10" target="TeY4YUzSOAcdukQ_QpdO-14">
          <mxGeometry width="50" height="50" relative="1" as="geometry">
            <mxPoint x="370" y="650" as="sourcePoint" />
            <mxPoint x="420" y="600" as="targetPoint" />
          </mxGeometry>
        </mxCell>
        <mxCell id="TeY4YUzSOAcdukQ_QpdO-21" value="" style="endArrow=classic;html=1;rounded=0;exitX=0.5;exitY=1;exitDx=0;exitDy=0;entryX=0.5;entryY=0;entryDx=0;entryDy=0;" edge="1" parent="1">
          <mxGeometry width="50" height="50" relative="1" as="geometry">
            <mxPoint x="200" y="530" as="sourcePoint" />
            <mxPoint x="200" y="560" as="targetPoint" />
          </mxGeometry>
        </mxCell>
        <mxCell id="TeY4YUzSOAcdukQ_QpdO-22" value="No" style="text;html=1;align=center;verticalAlign=middle;resizable=0;points=[];autosize=1;strokeColor=none;fillColor=none;" vertex="1" parent="1">
          <mxGeometry x="170" y="530" width="40" height="30" as="geometry" />
        </mxCell>
        <mxCell id="TeY4YUzSOAcdukQ_QpdO-23" value="" style="endArrow=classic;html=1;rounded=0;exitX=0.5;exitY=1;exitDx=0;exitDy=0;entryX=0.5;entryY=0;entryDx=0;entryDy=0;" edge="1" parent="1">
          <mxGeometry width="50" height="50" relative="1" as="geometry">
            <mxPoint x="200" y="622" as="sourcePoint" />
            <mxPoint x="200" y="652" as="targetPoint" />
          </mxGeometry>
        </mxCell>
        <mxCell id="TeY4YUzSOAcdukQ_QpdO-24" value="No" style="text;html=1;align=center;verticalAlign=middle;resizable=0;points=[];autosize=1;strokeColor=none;fillColor=none;" vertex="1" parent="1">
          <mxGeometry x="170" y="620" width="40" height="30" as="geometry" />
        </mxCell>
        <mxCell id="TeY4YUzSOAcdukQ_QpdO-25" value="" style="endArrow=classic;html=1;rounded=0;exitX=0.5;exitY=1;exitDx=0;exitDy=0;entryX=0.5;entryY=0;entryDx=0;entryDy=0;" edge="1" parent="1">
          <mxGeometry width="50" height="50" relative="1" as="geometry">
            <mxPoint x="200" y="712" as="sourcePoint" />
            <mxPoint x="200" y="742" as="targetPoint" />
          </mxGeometry>
        </mxCell>
        <mxCell id="TeY4YUzSOAcdukQ_QpdO-26" value="No" style="text;html=1;align=center;verticalAlign=middle;resizable=0;points=[];autosize=1;strokeColor=none;fillColor=none;" vertex="1" parent="1">
          <mxGeometry x="170" y="710" width="40" height="30" as="geometry" />
        </mxCell>
        <mxCell id="TeY4YUzSOAcdukQ_QpdO-27" value="" style="endArrow=classic;html=1;rounded=0;exitX=0.5;exitY=1;exitDx=0;exitDy=0;" edge="1" parent="1" source="TeY4YUzSOAcdukQ_QpdO-18">
          <mxGeometry width="50" height="50" relative="1" as="geometry">
            <mxPoint x="370" y="730" as="sourcePoint" />
            <mxPoint x="200" y="630" as="targetPoint" />
            <Array as="points">
              <mxPoint x="400" y="630" />
            </Array>
          </mxGeometry>
        </mxCell>
        <mxCell id="TeY4YUzSOAcdukQ_QpdO-28" value="등락률 계산, 조건에 맞으면 pass&lt;br&gt;안 맞으면 break" style="rounded=1;whiteSpace=wrap;html=1;" vertex="1" parent="1">
          <mxGeometry x="340" y="480" width="120" height="40" as="geometry" />
        </mxCell>
        <mxCell id="TeY4YUzSOAcdukQ_QpdO-29" value="" style="endArrow=classic;html=1;rounded=0;exitX=1;exitY=0.5;exitDx=0;exitDy=0;entryX=0;entryY=0.5;entryDx=0;entryDy=0;" edge="1" parent="1" target="TeY4YUzSOAcdukQ_QpdO-28">
          <mxGeometry width="50" height="50" relative="1" as="geometry">
            <mxPoint x="260" y="500" as="sourcePoint" />
            <mxPoint x="420" y="600" as="targetPoint" />
          </mxGeometry>
        </mxCell>
        <mxCell id="TeY4YUzSOAcdukQ_QpdO-30" value="" style="endArrow=classic;html=1;rounded=0;exitX=0.5;exitY=1;exitDx=0;exitDy=0;" edge="1" parent="1" source="TeY4YUzSOAcdukQ_QpdO-28">
          <mxGeometry width="50" height="50" relative="1" as="geometry">
            <mxPoint x="370" y="640" as="sourcePoint" />
            <mxPoint x="200" y="540" as="targetPoint" />
            <Array as="points">
              <mxPoint x="400" y="540" />
            </Array>
          </mxGeometry>
        </mxCell>
        <mxCell id="TeY4YUzSOAcdukQ_QpdO-31" value="등락률 계산, 조건에 맞으면 pass&lt;br&gt;안 맞으면 break" style="rounded=1;whiteSpace=wrap;html=1;" vertex="1" parent="1">
          <mxGeometry x="340" y="660" width="120" height="40" as="geometry" />
        </mxCell>
        <mxCell id="TeY4YUzSOAcdukQ_QpdO-32" value="" style="endArrow=classic;html=1;rounded=0;exitX=1;exitY=0.5;exitDx=0;exitDy=0;entryX=0;entryY=0.5;entryDx=0;entryDy=0;" edge="1" parent="1" target="TeY4YUzSOAcdukQ_QpdO-31">
          <mxGeometry width="50" height="50" relative="1" as="geometry">
            <mxPoint x="260" y="680" as="sourcePoint" />
            <mxPoint x="420" y="780" as="targetPoint" />
          </mxGeometry>
        </mxCell>
        <mxCell id="TeY4YUzSOAcdukQ_QpdO-33" value="" style="endArrow=classic;html=1;rounded=0;exitX=0.5;exitY=1;exitDx=0;exitDy=0;" edge="1" parent="1" source="TeY4YUzSOAcdukQ_QpdO-31">
          <mxGeometry width="50" height="50" relative="1" as="geometry">
            <mxPoint x="370" y="820" as="sourcePoint" />
            <mxPoint x="200" y="720" as="targetPoint" />
            <Array as="points">
              <mxPoint x="400" y="720" />
            </Array>
          </mxGeometry>
        </mxCell>
        <mxCell id="TeY4YUzSOAcdukQ_QpdO-34" value="조건에 맞으면 pass&lt;br&gt;안 맞으면 break" style="rounded=1;whiteSpace=wrap;html=1;" vertex="1" parent="1">
          <mxGeometry x="340" y="750" width="120" height="40" as="geometry" />
        </mxCell>
        <mxCell id="TeY4YUzSOAcdukQ_QpdO-35" value="" style="endArrow=classic;html=1;rounded=0;exitX=1;exitY=0.5;exitDx=0;exitDy=0;entryX=0;entryY=0.5;entryDx=0;entryDy=0;" edge="1" parent="1" target="TeY4YUzSOAcdukQ_QpdO-34">
          <mxGeometry width="50" height="50" relative="1" as="geometry">
            <mxPoint x="260" y="770" as="sourcePoint" />
            <mxPoint x="420" y="870" as="targetPoint" />
          </mxGeometry>
        </mxCell>
        <mxCell id="TeY4YUzSOAcdukQ_QpdO-36" value="" style="endArrow=classic;html=1;rounded=0;exitX=0.5;exitY=1;exitDx=0;exitDy=0;" edge="1" parent="1" source="TeY4YUzSOAcdukQ_QpdO-34">
          <mxGeometry width="50" height="50" relative="1" as="geometry">
            <mxPoint x="370" y="910" as="sourcePoint" />
            <mxPoint x="200" y="810" as="targetPoint" />
            <Array as="points">
              <mxPoint x="400" y="810" />
            </Array>
          </mxGeometry>
        </mxCell>
        <mxCell id="TeY4YUzSOAcdukQ_QpdO-37" value="종목 추천 리스트 append" style="rounded=1;whiteSpace=wrap;html=1;" vertex="1" parent="1">
          <mxGeometry x="140" y="840" width="120" height="40" as="geometry" />
        </mxCell>
        <mxCell id="TeY4YUzSOAcdukQ_QpdO-38" value="" style="endArrow=classic;html=1;rounded=0;exitX=0.5;exitY=1;exitDx=0;exitDy=0;" edge="1" parent="1" source="TeY4YUzSOAcdukQ_QpdO-17" target="TeY4YUzSOAcdukQ_QpdO-37">
          <mxGeometry width="50" height="50" relative="1" as="geometry">
            <mxPoint x="370" y="640" as="sourcePoint" />
            <mxPoint x="420" y="590" as="targetPoint" />
          </mxGeometry>
        </mxCell>
        <mxCell id="TeY4YUzSOAcdukQ_QpdO-39" value="" style="endArrow=classic;html=1;rounded=0;exitX=0;exitY=0.5;exitDx=0;exitDy=0;" edge="1" parent="1" source="TeY4YUzSOAcdukQ_QpdO-37">
          <mxGeometry width="50" height="50" relative="1" as="geometry">
            <mxPoint x="370" y="630" as="sourcePoint" />
            <mxPoint x="200" y="360" as="targetPoint" />
            <Array as="points">
              <mxPoint x="60" y="860" />
              <mxPoint x="60" y="360" />
            </Array>
          </mxGeometry>
        </mxCell>
        <mxCell id="TeY4YUzSOAcdukQ_QpdO-40" value="추천 종목 insert" style="rounded=1;whiteSpace=wrap;html=1;" vertex="1" parent="1">
          <mxGeometry x="180" y="920" width="120" height="60" as="geometry" />
        </mxCell>
        <mxCell id="TeY4YUzSOAcdukQ_QpdO-41" value="" style="endArrow=classic;html=1;rounded=0;entryX=1;entryY=0.5;entryDx=0;entryDy=0;" edge="1" parent="1" target="TeY4YUzSOAcdukQ_QpdO-40">
          <mxGeometry width="50" height="50" relative="1" as="geometry">
            <mxPoint x="200" y="360" as="sourcePoint" />
            <mxPoint x="420" y="680" as="targetPoint" />
            <Array as="points">
              <mxPoint x="320" y="360" />
              <mxPoint x="580" y="360" />
              <mxPoint x="580" y="950" />
            </Array>
          </mxGeometry>
        </mxCell>
        <mxCell id="TeY4YUzSOAcdukQ_QpdO-42" value="코인 리스트 순회 완료" style="text;html=1;align=center;verticalAlign=middle;resizable=0;points=[];autosize=1;strokeColor=none;fillColor=none;" vertex="1" parent="1">
          <mxGeometry x="450" y="330" width="140" height="30" as="geometry" />
        </mxCell>
        <mxCell id="TeY4YUzSOAcdukQ_QpdO-44" value="" style="shape=link;html=1;rounded=0;entryX=0.011;entryY=0.354;entryDx=0;entryDy=0;entryPerimeter=0;exitX=1;exitY=0.5;exitDx=0;exitDy=0;" edge="1" parent="1" source="TeY4YUzSOAcdukQ_QpdO-2" target="SIZ0XicZLE3Qhef7tmIG-10">
          <mxGeometry width="100" relative="1" as="geometry">
            <mxPoint x="290" y="250" as="sourcePoint" />
            <mxPoint x="639.04" y="118.15999999999985" as="targetPoint" />
          </mxGeometry>
        </mxCell>
        <mxCell id="TeY4YUzSOAcdukQ_QpdO-48" value="" style="swimlane;startSize=0;" vertex="1" parent="1">
          <mxGeometry x="90" y="370" width="440" height="510" as="geometry" />
        </mxCell>
        <mxCell id="TeY4YUzSOAcdukQ_QpdO-49" value="" style="shape=flexArrow;endArrow=classic;html=1;rounded=0;exitX=1;exitY=0.5;exitDx=0;exitDy=0;" edge="1" parent="1" source="TeY4YUzSOAcdukQ_QpdO-48">
          <mxGeometry width="50" height="50" relative="1" as="geometry">
            <mxPoint x="820" y="650" as="sourcePoint" />
            <mxPoint x="910" y="625" as="targetPoint" />
          </mxGeometry>
        </mxCell>
        <mxCell id="TeY4YUzSOAcdukQ_QpdO-100" value="코인 별로 &lt;br style=&quot;font-size: 10px;&quot;&gt;csv 파일 읽어오기&lt;br style=&quot;font-size: 10px;&quot;&gt;macd, 이격도 생성" style="rounded=1;whiteSpace=wrap;html=1;fontSize=10;" vertex="1" parent="1">
          <mxGeometry x="924" y="10" width="120" height="50" as="geometry" />
        </mxCell>
        <mxCell id="TeY4YUzSOAcdukQ_QpdO-101" value="사용 조건중 주가등락률 존재" style="rhombus;whiteSpace=wrap;html=1;fontSize=10;" vertex="1" parent="1">
          <mxGeometry x="924" y="90" width="120" height="60" as="geometry" />
        </mxCell>
        <mxCell id="TeY4YUzSOAcdukQ_QpdO-102" value="사용 조건중 평균 거래량 존재" style="rhombus;whiteSpace=wrap;html=1;fontSize=10;" vertex="1" parent="1">
          <mxGeometry x="924" y="180" width="120" height="60" as="geometry" />
        </mxCell>
        <mxCell id="TeY4YUzSOAcdukQ_QpdO-103" value="상세 이동 평균 비교 존재" style="rhombus;whiteSpace=wrap;html=1;fontSize=10;" vertex="1" parent="1">
          <mxGeometry x="924" y="270" width="120" height="60" as="geometry" />
        </mxCell>
        <mxCell id="TeY4YUzSOAcdukQ_QpdO-104" value="주가 이동 평균 2개 비교 존재" style="rhombus;whiteSpace=wrap;html=1;fontSize=10;" vertex="1" parent="1">
          <mxGeometry x="924" y="360" width="120" height="60" as="geometry" />
        </mxCell>
        <mxCell id="TeY4YUzSOAcdukQ_QpdO-107" value="" style="endArrow=classic;html=1;rounded=0;exitX=0.5;exitY=1;exitDx=0;exitDy=0;entryX=0.5;entryY=0;entryDx=0;entryDy=0;fontSize=10;" edge="1" parent="1" source="TeY4YUzSOAcdukQ_QpdO-100" target="TeY4YUzSOAcdukQ_QpdO-101">
          <mxGeometry width="50" height="50" relative="1" as="geometry">
            <mxPoint x="1154" y="270" as="sourcePoint" />
            <mxPoint x="1204" y="220" as="targetPoint" />
          </mxGeometry>
        </mxCell>
        <mxCell id="TeY4YUzSOAcdukQ_QpdO-108" value="" style="endArrow=classic;html=1;rounded=0;exitX=0.5;exitY=1;exitDx=0;exitDy=0;entryX=0.5;entryY=0;entryDx=0;entryDy=0;fontSize=10;" edge="1" parent="1">
          <mxGeometry width="50" height="50" relative="1" as="geometry">
            <mxPoint x="984" y="150" as="sourcePoint" />
            <mxPoint x="984" y="180" as="targetPoint" />
          </mxGeometry>
        </mxCell>
        <mxCell id="TeY4YUzSOAcdukQ_QpdO-110" value="" style="endArrow=classic;html=1;rounded=0;exitX=0.5;exitY=1;exitDx=0;exitDy=0;entryX=0.5;entryY=0;entryDx=0;entryDy=0;fontSize=10;" edge="1" parent="1">
          <mxGeometry width="50" height="50" relative="1" as="geometry">
            <mxPoint x="984" y="242" as="sourcePoint" />
            <mxPoint x="984" y="272" as="targetPoint" />
          </mxGeometry>
        </mxCell>
        <mxCell id="TeY4YUzSOAcdukQ_QpdO-112" value="" style="endArrow=classic;html=1;rounded=0;exitX=0.5;exitY=1;exitDx=0;exitDy=0;entryX=0.5;entryY=0;entryDx=0;entryDy=0;fontSize=10;" edge="1" parent="1">
          <mxGeometry width="50" height="50" relative="1" as="geometry">
            <mxPoint x="984" y="332" as="sourcePoint" />
            <mxPoint x="984" y="362" as="targetPoint" />
          </mxGeometry>
        </mxCell>
        <mxCell id="TeY4YUzSOAcdukQ_QpdO-124" value="" style="endArrow=classic;html=1;rounded=0;exitX=0.5;exitY=1;exitDx=0;exitDy=0;fontSize=10;" edge="1" parent="1" source="TeY4YUzSOAcdukQ_QpdO-104">
          <mxGeometry width="50" height="50" relative="1" as="geometry">
            <mxPoint x="1154" y="260" as="sourcePoint" />
            <mxPoint x="984" y="460" as="targetPoint" />
          </mxGeometry>
        </mxCell>
        <mxCell id="p24oUZcqKe64Aw1_jvgX-1" value="&lt;div style=&quot;font-size: 10px;&quot;&gt;&lt;font style=&quot;font-size: 10px;&quot;&gt;주가 범위:&amp;nbsp;&lt;/font&gt;&lt;/div&gt;&lt;div style=&quot;font-size: 10px;&quot;&gt;&lt;font style=&quot;font-size: 10px;&quot;&gt;주가 등락률:&amp;nbsp;&lt;/font&gt;&lt;/div&gt;&lt;div style=&quot;font-size: 10px;&quot;&gt;&lt;font style=&quot;font-size: 10px;&quot;&gt;(( 종목의 종가 - 종목의 과거 종가)&amp;nbsp;&lt;/font&gt;&lt;/div&gt;&lt;div style=&quot;font-size: 10px;&quot;&gt;&lt;span style=&quot;background-color: initial;&quot;&gt;&lt;font style=&quot;font-size: 10px;&quot;&gt;* 종목의 종가 ) / 100&amp;nbsp;&lt;/font&gt;&lt;/span&gt;&lt;/div&gt;&lt;div style=&quot;font-size: 10px;&quot;&gt;&lt;font style=&quot;font-size: 10px;&quot;&gt;&lt;br&gt;&lt;/font&gt;&lt;/div&gt;&lt;div style=&quot;font-size: 10px;&quot;&gt;&lt;font style=&quot;font-size: 10px;&quot;&gt;거래 대금:&lt;/font&gt;&lt;/div&gt;&lt;div style=&quot;font-size: 10px;&quot;&gt;&lt;font style=&quot;font-size: 10px;&quot;&gt;거래량 * 거래 금액 = 거래 대금&lt;/font&gt;&lt;/div&gt;" style="text;html=1;align=left;verticalAlign=middle;resizable=0;points=[];autosize=1;strokeColor=none;fillColor=none;" vertex="1" parent="1">
          <mxGeometry x="380" y="160" width="180" height="100" as="geometry" />
        </mxCell>
        <mxCell id="SIZ0XicZLE3Qhef7tmIG-1" value="nc_f_recommend_coin_list_t&lt;br&gt;nc_f_recommend_coin_t" style="swimlane;whiteSpace=wrap;html=1;startSize=30;" vertex="1" parent="1">
          <mxGeometry x="140" y="1030" width="200" height="120" as="geometry" />
        </mxCell>
        <mxCell id="SIZ0XicZLE3Qhef7tmIG-2" value="coin_name&amp;nbsp;&lt;span style=&quot;white-space: pre;&quot;&gt;	&lt;/span&gt;&lt;span style=&quot;white-space: pre;&quot;&gt;	&lt;/span&gt;:코인 명&lt;br&gt;time&lt;span style=&quot;white-space: pre;&quot;&gt;	&lt;/span&gt;&lt;span style=&quot;white-space: pre;&quot;&gt;	&lt;/span&gt;&lt;span style=&quot;white-space: pre;&quot;&gt;	&lt;/span&gt;&lt;span style=&quot;white-space: pre;&quot;&gt;	&lt;/span&gt;:시간&lt;br&gt;price&lt;span style=&quot;white-space: pre;&quot;&gt;	&lt;/span&gt;&lt;span style=&quot;white-space: pre;&quot;&gt;	&lt;/span&gt;&lt;span style=&quot;white-space: pre;&quot;&gt;	&lt;/span&gt;:가격&lt;br&gt;option_name&lt;span style=&quot;white-space: pre;&quot;&gt;	&lt;/span&gt;&lt;span style=&quot;white-space: pre;&quot;&gt;	&lt;/span&gt;:옵션 명" style="text;html=1;align=left;verticalAlign=middle;resizable=0;points=[];autosize=1;strokeColor=none;fillColor=none;" vertex="1" parent="SIZ0XicZLE3Qhef7tmIG-1">
          <mxGeometry x="10" y="39" width="170" height="70" as="geometry" />
        </mxCell>
        <mxCell id="SIZ0XicZLE3Qhef7tmIG-5" value="" style="endArrow=classic;html=1;rounded=0;exitX=0.5;exitY=1;exitDx=0;exitDy=0;entryX=0.5;entryY=0;entryDx=0;entryDy=0;" edge="1" parent="1" source="TeY4YUzSOAcdukQ_QpdO-40" target="SIZ0XicZLE3Qhef7tmIG-1">
          <mxGeometry width="50" height="50" relative="1" as="geometry">
            <mxPoint x="150" y="920" as="sourcePoint" />
            <mxPoint x="200" y="870" as="targetPoint" />
          </mxGeometry>
        </mxCell>
        <mxCell id="91yoJUOMf4xalkDMiRzU-71" style="edgeStyle=orthogonalEdgeStyle;rounded=0;orthogonalLoop=1;jettySize=auto;html=1;exitX=1;exitY=0.5;exitDx=0;exitDy=0;entryX=0.5;entryY=0;entryDx=0;entryDy=0;" edge="1" parent="1" source="SIZ0XicZLE3Qhef7tmIG-6" target="91yoJUOMf4xalkDMiRzU-70">
          <mxGeometry relative="1" as="geometry" />
        </mxCell>
        <mxCell id="SIZ0XicZLE3Qhef7tmIG-6" value="(( 종목의 종가 - 종목의 과거 종가) * 종목의 종가 ) / 100&amp;nbsp;" style="rhombus;whiteSpace=wrap;html=1;fontSize=10;" vertex="1" parent="1">
          <mxGeometry x="1114" y="90" width="286" height="60" as="geometry" />
        </mxCell>
        <mxCell id="91yoJUOMf4xalkDMiRzU-72" style="edgeStyle=orthogonalEdgeStyle;rounded=0;orthogonalLoop=1;jettySize=auto;html=1;exitX=1;exitY=0.5;exitDx=0;exitDy=0;" edge="1" parent="1" source="SIZ0XicZLE3Qhef7tmIG-7">
          <mxGeometry relative="1" as="geometry">
            <mxPoint x="1520" y="210" as="targetPoint" />
          </mxGeometry>
        </mxCell>
        <mxCell id="SIZ0XicZLE3Qhef7tmIG-7" value="사용자 지정 하한 거래량&amp;lt;N개의 거래량 / N &amp;lt; 사용자지정 상한 거래량" style="rhombus;whiteSpace=wrap;html=1;fontSize=10;" vertex="1" parent="1">
          <mxGeometry x="1114" y="180" width="286" height="60" as="geometry" />
        </mxCell>
        <mxCell id="91yoJUOMf4xalkDMiRzU-73" style="edgeStyle=orthogonalEdgeStyle;rounded=0;orthogonalLoop=1;jettySize=auto;html=1;exitX=1;exitY=0.5;exitDx=0;exitDy=0;" edge="1" parent="1" source="SIZ0XicZLE3Qhef7tmIG-8">
          <mxGeometry relative="1" as="geometry">
            <mxPoint x="1520" y="300" as="targetPoint" />
          </mxGeometry>
        </mxCell>
        <mxCell id="SIZ0XicZLE3Qhef7tmIG-8" value="이동평균: (( 단기 이평값 – 장기 이평값 ) * 단기 이평값 ) /100" style="rhombus;whiteSpace=wrap;html=1;fontSize=10;" vertex="1" parent="1">
          <mxGeometry x="1114" y="270" width="286" height="60" as="geometry" />
        </mxCell>
        <mxCell id="SIZ0XicZLE3Qhef7tmIG-9" value="&lt;font style=&quot;font-size: 10px;&quot;&gt;이동평균: (( 단기 이평값 – 장기 이평값 )&lt;br style=&quot;font-size: 10px;&quot;&gt;&amp;nbsp;* 단기 이평값 ) /100&lt;/font&gt;" style="text;html=1;align=center;verticalAlign=middle;resizable=0;points=[];autosize=1;strokeColor=none;fillColor=none;fontSize=10;" vertex="1" parent="1">
          <mxGeometry x="1414" y="245" width="200" height="40" as="geometry" />
        </mxCell>
        <mxCell id="SIZ0XicZLE3Qhef7tmIG-10" value="&lt;div style=&quot;border-color: var(--border-color); text-align: left; font-size: 10px;&quot;&gt;&lt;font style=&quot;font-size: 10px;&quot;&gt;nc_b_use_search_option_t&lt;/font&gt;&lt;/div&gt;&lt;div style=&quot;border-color: var(--border-color); text-align: left; font-size: 10px;&quot;&gt;&lt;span style=&quot;border-color: var(--border-color); background-color: initial; text-indent: -20pt; font-family: 굴림;&quot;&gt;&lt;font style=&quot;font-size: 10px;&quot;&gt;nc_c_pr_price_t&lt;/font&gt;&lt;/span&gt;&lt;/div&gt;&lt;div style=&quot;border-color: var(--border-color); text-align: left; font-size: 10px;&quot;&gt;&lt;span style=&quot;border-color: var(--border-color); background-color: initial; text-indent: -20pt; font-family: 굴림;&quot;&gt;&lt;font style=&quot;font-size: 10px;&quot;&gt;nc_c_pr_fluctuation_t&lt;/font&gt;&lt;/span&gt;&lt;/div&gt;&lt;div style=&quot;border-color: var(--border-color); text-align: left; font-size: 10px;&quot;&gt;&lt;span style=&quot;border-color: var(--border-color); background-color: initial; text-indent: -20pt; font-family: 굴림;&quot;&gt;&lt;font style=&quot;font-size: 10px;&quot;&gt;nc_c_v_volume_t&lt;/font&gt;&lt;/span&gt;&lt;/div&gt;&lt;div style=&quot;border-color: var(--border-color); text-align: left; font-size: 10px;&quot;&gt;&lt;span style=&quot;border-color: var(--border-color); background-color: initial; text-indent: -20pt; font-family: 굴림;&quot;&gt;&lt;font style=&quot;font-size: 10px;&quot;&gt;nc_c_v_avg_volume_t&lt;/font&gt;&lt;/span&gt;&lt;/div&gt;&lt;div style=&quot;border-color: var(--border-color); text-align: left; font-size: 10px;&quot;&gt;&lt;span style=&quot;border-color: var(--border-color); background-color: initial; text-indent: -20pt; font-family: 굴림;&quot;&gt;&lt;font style=&quot;font-size: 10px;&quot;&gt;nc_c_MASP_comparison _t&lt;/font&gt;&lt;/span&gt;&lt;/div&gt;&lt;div style=&quot;border-color: var(--border-color); text-align: left; font-size: 10px;&quot;&gt;&lt;span style=&quot;border-color: var(--border-color); background-color: initial; text-indent: -20pt; font-family: 굴림;&quot;&gt;&lt;font style=&quot;font-size: 10px;&quot;&gt;nc_c_MASP_comparison_double_t&lt;/font&gt;&lt;/span&gt;&lt;/div&gt;&lt;div style=&quot;border-color: var(--border-color); text-align: left; font-size: 10px;&quot;&gt;&lt;span style=&quot;border-color: var(--border-color); background-color: initial; text-indent: -20pt; font-family: 굴림;&quot;&gt;&lt;font style=&quot;font-size: 10px;&quot;&gt;nc_c_MASP_disparity _t&lt;/font&gt;&lt;/span&gt;&lt;/div&gt;&lt;div style=&quot;border-color: var(--border-color); text-align: left; font-size: 10px;&quot;&gt;&lt;span style=&quot;border-color: var(--border-color); background-color: initial; text-indent: -20pt; font-family: 굴림;&quot;&gt;&lt;font style=&quot;font-size: 10px;&quot;&gt;nc_c_MASP_trend _t&lt;/font&gt;&lt;/span&gt;&lt;/div&gt;&lt;div style=&quot;border-color: var(--border-color); text-align: left; font-size: 10px;&quot;&gt;&lt;span style=&quot;border-color: var(--border-color); background-color: initial; text-indent: -20pt; font-family: 굴림;&quot;&gt;&lt;font style=&quot;font-size: 10px;&quot;&gt;nc_c_D_over_RV_t&lt;/font&gt;&lt;/span&gt;&lt;/div&gt;&lt;div style=&quot;border-color: var(--border-color); text-align: left; font-size: 10px;&quot;&gt;&lt;span style=&quot;border-color: var(--border-color); background-color: initial; text-indent: -20pt; font-family: 굴림;&quot;&gt;&lt;font style=&quot;font-size: 10px;&quot;&gt;nc_c_D_range_RV_t&lt;/font&gt;&lt;/span&gt;&lt;/div&gt;&lt;div style=&quot;border-color: var(--border-color); text-align: left; font-size: 10px;&quot;&gt;&lt;span style=&quot;border-color: var(--border-color); background-color: initial; text-indent: -20pt; font-family: 굴림;&quot;&gt;&lt;font style=&quot;font-size: 10px;&quot;&gt;nc_c_D_range_RV_up_down_t&lt;/font&gt;&lt;/span&gt;&lt;/div&gt;&lt;div style=&quot;border-color: var(--border-color); text-align: left; font-size: 10px;&quot;&gt;&lt;span style=&quot;border-color: var(--border-color); background-color: initial; text-indent: -20pt; font-family: 굴림;&quot;&gt;&lt;font style=&quot;font-size: 10px;&quot;&gt;nc_c_D_trend_t&lt;/font&gt;&lt;/span&gt;&lt;/div&gt;&lt;div style=&quot;border-color: var(--border-color); text-align: left; font-size: 10px;&quot;&gt;&lt;span style=&quot;border-color: var(--border-color); background-color: initial; text-indent: -20pt; font-family: 굴림;&quot;&gt;&lt;font style=&quot;font-size: 10px;&quot;&gt;nc_c_D_reverse_t&lt;/font&gt;&lt;/span&gt;&lt;/div&gt;&lt;div style=&quot;border-color: var(--border-color); text-align: left; font-size: 10px;&quot;&gt;&lt;span style=&quot;border-color: var(--border-color); background-color: initial; text-indent: -20pt; font-family: 굴림;&quot;&gt;&lt;font style=&quot;font-size: 10px;&quot;&gt;nc_c_MACD_line_over _t&lt;/font&gt;&lt;/span&gt;&lt;/div&gt;&lt;div style=&quot;border-color: var(--border-color); text-align: left; font-size: 10px;&quot;&gt;&lt;span style=&quot;border-color: var(--border-color); background-color: initial; text-indent: -20pt; font-family: 굴림;&quot;&gt;&lt;font style=&quot;font-size: 10px;&quot;&gt;nc_c_MACD_line_comparison_t&lt;/font&gt;&lt;/span&gt;&lt;/div&gt;&lt;div style=&quot;border-color: var(--border-color); text-align: left; font-size: 10px;&quot;&gt;&lt;span style=&quot;border-color: var(--border-color); background-color: initial; text-indent: -20pt; font-family: 굴림;&quot;&gt;&lt;font style=&quot;font-size: 10px;&quot;&gt;nc_c_MACD_value_over_t&lt;/font&gt;&lt;/span&gt;&lt;/div&gt;&lt;div style=&quot;border-color: var(--border-color); text-align: left; font-size: 10px;&quot;&gt;&lt;span style=&quot;border-color: var(--border-color); background-color: initial; text-indent: -20pt; font-family: 굴림;&quot;&gt;&lt;font style=&quot;font-size: 10px;&quot;&gt;nc_c_MACD_value_up_down_t&lt;/font&gt;&lt;/span&gt;&lt;/div&gt;&lt;div style=&quot;border-color: var(--border-color); text-align: left; font-size: 10px;&quot;&gt;&lt;span style=&quot;border-color: var(--border-color); background-color: initial; text-indent: -20pt; font-family: 굴림;&quot;&gt;&lt;font style=&quot;font-size: 10px;&quot;&gt;nc_c_MACD_value_range_t&lt;/font&gt;&lt;/span&gt;&lt;/div&gt;&lt;div style=&quot;border-color: var(--border-color); text-align: left; font-size: 10px;&quot;&gt;&lt;span style=&quot;border-color: var(--border-color); background-color: initial; text-indent: -20pt; font-family: 굴림;&quot;&gt;&lt;font style=&quot;font-size: 10px;&quot;&gt;nc_c_MACD_trend_t&lt;/font&gt;&lt;/span&gt;&lt;/div&gt;&lt;div style=&quot;border-color: var(--border-color); text-align: left; font-size: 10px;&quot;&gt;&lt;span style=&quot;border-color: var(--border-color); background-color: initial; text-indent: -20pt; font-family: 굴림;&quot;&gt;&lt;font style=&quot;font-size: 10px;&quot;&gt;nc_c_MACD_reverse_t&lt;/font&gt;&lt;/span&gt;&lt;/div&gt;&lt;div style=&quot;border-color: var(--border-color); text-align: left; font-size: 10px;&quot;&gt;&lt;span style=&quot;border-color: var(--border-color); background-color: initial; text-indent: -20pt; font-family: 굴림;&quot;&gt;&lt;font style=&quot;font-size: 10px;&quot;&gt;nc_c_MACDS_value_over_t&lt;/font&gt;&lt;/span&gt;&lt;/div&gt;&lt;div style=&quot;border-color: var(--border-color); text-align: left; font-size: 10px;&quot;&gt;&lt;span style=&quot;border-color: var(--border-color); background-color: initial; text-indent: -20pt; font-family: 굴림;&quot;&gt;&lt;font style=&quot;font-size: 10px;&quot;&gt;nc_c_MACDS_value_up_down_t&lt;/font&gt;&lt;/span&gt;&lt;/div&gt;&lt;div style=&quot;border-color: var(--border-color); text-align: left; font-size: 10px;&quot;&gt;&lt;span style=&quot;border-color: var(--border-color); background-color: initial; text-indent: -20pt; font-family: 굴림;&quot;&gt;&lt;font style=&quot;font-size: 10px;&quot;&gt;nc_c_MACDS_value_range_t&lt;/font&gt;&lt;/span&gt;&lt;/div&gt;&lt;div style=&quot;border-color: var(--border-color); text-align: left; font-size: 10px;&quot;&gt;&lt;span style=&quot;border-color: var(--border-color); background-color: initial; text-indent: -20pt; font-family: 굴림;&quot;&gt;&lt;font style=&quot;font-size: 10px;&quot;&gt;nc_c_MACDS_trend_t&lt;/font&gt;&lt;/span&gt;&lt;/div&gt;&lt;div style=&quot;border-color: var(--border-color); text-align: left; font-size: 10px;&quot;&gt;&lt;span style=&quot;border-color: var(--border-color); background-color: initial; text-indent: -20pt; font-family: 굴림;&quot;&gt;&lt;font style=&quot;font-size: 10px;&quot;&gt;nc_c_MACDS_reverse_t&lt;/font&gt;&lt;/span&gt;&lt;/div&gt;" style="rounded=0;whiteSpace=wrap;html=1;" vertex="1" parent="1">
          <mxGeometry x="640" y="10" width="180" height="350" as="geometry" />
        </mxCell>
        <mxCell id="91yoJUOMf4xalkDMiRzU-74" style="edgeStyle=orthogonalEdgeStyle;rounded=0;orthogonalLoop=1;jettySize=auto;html=1;exitX=1;exitY=0.5;exitDx=0;exitDy=0;" edge="1" parent="1" source="SIZ0XicZLE3Qhef7tmIG-11">
          <mxGeometry relative="1" as="geometry">
            <mxPoint x="1520" y="390" as="targetPoint" />
          </mxGeometry>
        </mxCell>
        <mxCell id="SIZ0XicZLE3Qhef7tmIG-11" value="&lt;div style=&quot;font-size: 10px;&quot;&gt;첫 번째 단기 이평값 &amp;gt; / &amp;lt; 장기 이평값&amp;nbsp;&lt;/div&gt;&lt;div style=&quot;font-size: 10px;&quot;&gt;두 번째 단기 이평값 &amp;gt; / &amp;lt; 장기 이평값&amp;nbsp;&lt;/div&gt;" style="rhombus;whiteSpace=wrap;html=1;fontSize=10;" vertex="1" parent="1">
          <mxGeometry x="1114" y="360" width="286" height="60" as="geometry" />
        </mxCell>
        <mxCell id="SIZ0XicZLE3Qhef7tmIG-12" value="주가 이동 평균 2개 비교 존재" style="rhombus;whiteSpace=wrap;html=1;fontSize=10;" vertex="1" parent="1">
          <mxGeometry x="924" y="440" width="120" height="60" as="geometry" />
        </mxCell>
        <mxCell id="SIZ0XicZLE3Qhef7tmIG-13" value="&lt;font style=&quot;font-size: 10px;&quot;&gt;이격도: (( 단기 이평선 - 장기 이평선 ) / 단기 이평선 ) * 100&lt;/font&gt;" style="text;html=1;align=center;verticalAlign=middle;resizable=0;points=[];autosize=1;strokeColor=none;fillColor=none;fontSize=10;" vertex="1" parent="1">
          <mxGeometry x="1374" y="500" width="280" height="30" as="geometry" />
        </mxCell>
        <mxCell id="91yoJUOMf4xalkDMiRzU-75" style="edgeStyle=orthogonalEdgeStyle;rounded=0;orthogonalLoop=1;jettySize=auto;html=1;exitX=1;exitY=0.5;exitDx=0;exitDy=0;" edge="1" parent="1" source="SIZ0XicZLE3Qhef7tmIG-16">
          <mxGeometry relative="1" as="geometry">
            <mxPoint x="1520" y="470" as="targetPoint" />
          </mxGeometry>
        </mxCell>
        <mxCell id="SIZ0XicZLE3Qhef7tmIG-16" value="&lt;div style=&quot;font-size: 10px;&quot;&gt;하한 범위 값&amp;nbsp; &amp;lt;&amp;nbsp;&lt;span style=&quot;background-color: initial; font-size: 10px;&quot;&gt;이격도&lt;/span&gt;&lt;span style=&quot;background-color: initial; font-size: 10px;&quot;&gt;&amp;lt; 상승 범위 값&lt;/span&gt;&lt;/div&gt;" style="rhombus;whiteSpace=wrap;html=1;fontSize=10;" vertex="1" parent="1">
          <mxGeometry x="1114" y="440" width="286" height="60" as="geometry" />
        </mxCell>
        <mxCell id="SIZ0XicZLE3Qhef7tmIG-17" value="주가 이동 평균 추세 존재" style="rhombus;whiteSpace=wrap;html=1;fontSize=10;" vertex="1" parent="1">
          <mxGeometry x="924" y="520" width="120" height="60" as="geometry" />
        </mxCell>
        <mxCell id="91yoJUOMf4xalkDMiRzU-76" style="edgeStyle=orthogonalEdgeStyle;rounded=0;orthogonalLoop=1;jettySize=auto;html=1;exitX=1;exitY=0.5;exitDx=0;exitDy=0;" edge="1" parent="1" source="SIZ0XicZLE3Qhef7tmIG-18">
          <mxGeometry relative="1" as="geometry">
            <mxPoint x="1520" y="550" as="targetPoint" />
          </mxGeometry>
        </mxCell>
        <mxCell id="SIZ0XicZLE3Qhef7tmIG-18" value="&lt;div style=&quot;font-size: 10px;&quot;&gt;사용자 지정 봉 종가 - N범위의 평균값 &amp;lt; 0 하락추세&lt;/div&gt;&lt;div style=&quot;font-size: 10px;&quot;&gt;사용자 지정 봉 종가 - N범위의 평균값 &amp;gt; 0 상승추세&lt;/div&gt;" style="rhombus;whiteSpace=wrap;html=1;fontSize=10;" vertex="1" parent="1">
          <mxGeometry x="1114" y="520" width="286" height="60" as="geometry" />
        </mxCell>
        <mxCell id="SIZ0XicZLE3Qhef7tmIG-19" value="이격도 기준값 돌파 존재" style="rhombus;whiteSpace=wrap;html=1;fontSize=10;" vertex="1" parent="1">
          <mxGeometry x="925" y="600" width="120" height="61" as="geometry" />
        </mxCell>
        <mxCell id="91yoJUOMf4xalkDMiRzU-77" style="edgeStyle=orthogonalEdgeStyle;rounded=0;orthogonalLoop=1;jettySize=auto;html=1;exitX=1;exitY=0.5;exitDx=0;exitDy=0;" edge="1" parent="1" source="SIZ0XicZLE3Qhef7tmIG-20">
          <mxGeometry relative="1" as="geometry">
            <mxPoint x="1520" y="631" as="targetPoint" />
          </mxGeometry>
        </mxCell>
        <mxCell id="SIZ0XicZLE3Qhef7tmIG-20" value="&lt;div style=&quot;font-size: 10px;&quot;&gt;사용자 지정 하한 값 &amp;lt;&amp;nbsp;&lt;span style=&quot;background-color: initial; font-size: 10px;&quot;&gt;이격도&amp;nbsp;&lt;/span&gt;&amp;lt;&amp;nbsp;&lt;/div&gt;사용자 지정&amp;nbsp;&lt;span style=&quot;background-color: initial; font-size: 10px;&quot;&gt;상한 값&lt;/span&gt;" style="rhombus;whiteSpace=wrap;html=1;fontSize=10;" vertex="1" parent="1">
          <mxGeometry x="1110" y="600" width="290" height="61" as="geometry" />
        </mxCell>
        <mxCell id="SIZ0XicZLE3Qhef7tmIG-21" value="이격도 추세 존재" style="rhombus;whiteSpace=wrap;html=1;fontSize=10;" vertex="1" parent="1">
          <mxGeometry x="925" y="760" width="120" height="61" as="geometry" />
        </mxCell>
        <mxCell id="91yoJUOMf4xalkDMiRzU-78" style="edgeStyle=orthogonalEdgeStyle;rounded=0;orthogonalLoop=1;jettySize=auto;html=1;exitX=1;exitY=0.5;exitDx=0;exitDy=0;" edge="1" parent="1" source="SIZ0XicZLE3Qhef7tmIG-22">
          <mxGeometry relative="1" as="geometry">
            <mxPoint x="1520" y="710" as="targetPoint" />
          </mxGeometry>
        </mxCell>
        <mxCell id="SIZ0XicZLE3Qhef7tmIG-22" value="&lt;div style=&quot;border-color: var(--border-color); font-size: 10px;&quot;&gt;사용자 지정 이격도 값 =&amp;lt;&amp;nbsp;이격도&lt;/div&gt;사용자 지정&amp;nbsp;&lt;span style=&quot;background-color: initial; font-size: 10px;&quot;&gt;이격도 값 =&amp;gt; 이격도&lt;/span&gt;" style="rhombus;whiteSpace=wrap;html=1;fontSize=10;" vertex="1" parent="1">
          <mxGeometry x="1115" y="680" width="290" height="61" as="geometry" />
        </mxCell>
        <mxCell id="SIZ0XicZLE3Qhef7tmIG-23" value="이격도 기준값 이상 이하 존재" style="rhombus;whiteSpace=wrap;html=1;fontSize=10;" vertex="1" parent="1">
          <mxGeometry x="925" y="680" width="120" height="61" as="geometry" />
        </mxCell>
        <mxCell id="91yoJUOMf4xalkDMiRzU-79" style="edgeStyle=orthogonalEdgeStyle;rounded=0;orthogonalLoop=1;jettySize=auto;html=1;exitX=1;exitY=0.5;exitDx=0;exitDy=0;" edge="1" parent="1" source="SIZ0XicZLE3Qhef7tmIG-24">
          <mxGeometry relative="1" as="geometry">
            <mxPoint x="1520" y="791" as="targetPoint" />
          </mxGeometry>
        </mxCell>
        <mxCell id="SIZ0XicZLE3Qhef7tmIG-24" value="&lt;div style=&quot;font-size: 10px;&quot;&gt;사용자 지정 봉 종가 - N범위의 평균값 &amp;lt; 0 하락추세&lt;/div&gt;&lt;div style=&quot;font-size: 10px;&quot;&gt;사용자 지정 봉 종가 - N범위의 평균값 &amp;gt; 0 상승추세&lt;/div&gt;" style="rhombus;whiteSpace=wrap;html=1;fontSize=10;" vertex="1" parent="1">
          <mxGeometry x="1115" y="760" width="290" height="61" as="geometry" />
        </mxCell>
        <mxCell id="SIZ0XicZLE3Qhef7tmIG-25" value="이격도 반전 존재" style="rhombus;whiteSpace=wrap;html=1;fontSize=10;" vertex="1" parent="1">
          <mxGeometry x="924" y="850" width="120" height="61" as="geometry" />
        </mxCell>
        <mxCell id="91yoJUOMf4xalkDMiRzU-80" style="edgeStyle=orthogonalEdgeStyle;rounded=0;orthogonalLoop=1;jettySize=auto;html=1;exitX=1;exitY=0.5;exitDx=0;exitDy=0;" edge="1" parent="1" source="SIZ0XicZLE3Qhef7tmIG-26">
          <mxGeometry relative="1" as="geometry">
            <mxPoint x="1520" y="881" as="targetPoint" />
          </mxGeometry>
        </mxCell>
        <mxCell id="SIZ0XicZLE3Qhef7tmIG-26" value="&lt;div style=&quot;font-size: 10px;&quot;&gt;사용자 지정 봉 종가 - N범위의 평균값 &amp;lt; 0 하락추세&lt;/div&gt;&lt;div style=&quot;font-size: 10px;&quot;&gt;사용자 지정 봉 종가 - N범위의 평균값 &amp;gt; 0 상승추세&lt;/div&gt;" style="rhombus;whiteSpace=wrap;html=1;fontSize=10;" vertex="1" parent="1">
          <mxGeometry x="1114" y="850" width="290" height="61" as="geometry" />
        </mxCell>
        <mxCell id="SIZ0XicZLE3Qhef7tmIG-27" value="macd 기준선 돌파 존재" style="rhombus;whiteSpace=wrap;html=1;fontSize=10;" vertex="1" parent="1">
          <mxGeometry x="924" y="940" width="120" height="61" as="geometry" />
        </mxCell>
        <mxCell id="91yoJUOMf4xalkDMiRzU-81" style="edgeStyle=orthogonalEdgeStyle;rounded=0;orthogonalLoop=1;jettySize=auto;html=1;exitX=1;exitY=0.5;exitDx=0;exitDy=0;" edge="1" parent="1" source="SIZ0XicZLE3Qhef7tmIG-28">
          <mxGeometry relative="1" as="geometry">
            <mxPoint x="1520" y="971" as="targetPoint" />
          </mxGeometry>
        </mxCell>
        <mxCell id="SIZ0XicZLE3Qhef7tmIG-28" value="&lt;div style=&quot;font-size: 10px;&quot;&gt;사용자 지정 기준 값 &amp;lt; macd 기준선&lt;/div&gt;" style="rhombus;whiteSpace=wrap;html=1;fontSize=10;" vertex="1" parent="1">
          <mxGeometry x="1114" y="940" width="290" height="61" as="geometry" />
        </mxCell>
        <mxCell id="SIZ0XicZLE3Qhef7tmIG-29" value="&lt;div style=&quot;font-size: 10px;&quot;&gt;&lt;font style=&quot;font-size: 10px;&quot;&gt;MACD = 단기지수이동평균 - 장기지수이동평균&lt;/font&gt;&lt;/div&gt;&lt;div style=&quot;font-size: 10px;&quot;&gt;&lt;font style=&quot;font-size: 10px;&quot;&gt;Signal Line = MACD의 n일 지수이동평균&lt;/font&gt;&lt;/div&gt;&lt;div style=&quot;font-size: 10px;&quot;&gt;&lt;font style=&quot;font-size: 10px;&quot;&gt;MACD 오실레이터 = MACD - Signal Line의 막대 그래프&lt;/font&gt;&lt;/div&gt;" style="text;html=1;align=center;verticalAlign=middle;resizable=0;points=[];autosize=1;strokeColor=none;fillColor=none;fontSize=10;" vertex="1" parent="1">
          <mxGeometry x="1390" y="900" width="270" height="50" as="geometry" />
        </mxCell>
        <mxCell id="SIZ0XicZLE3Qhef7tmIG-30" value="macd 기준선 비교 존재" style="rhombus;whiteSpace=wrap;html=1;fontSize=10;" vertex="1" parent="1">
          <mxGeometry x="923" y="1020" width="120" height="61" as="geometry" />
        </mxCell>
        <mxCell id="91yoJUOMf4xalkDMiRzU-82" style="edgeStyle=orthogonalEdgeStyle;rounded=0;orthogonalLoop=1;jettySize=auto;html=1;exitX=1;exitY=0.5;exitDx=0;exitDy=0;" edge="1" parent="1" source="SIZ0XicZLE3Qhef7tmIG-31">
          <mxGeometry relative="1" as="geometry">
            <mxPoint x="1520" y="1051" as="targetPoint" />
          </mxGeometry>
        </mxCell>
        <mxCell id="SIZ0XicZLE3Qhef7tmIG-31" value="사용자 지정 기준 값, macd 기준선 비교" style="rhombus;whiteSpace=wrap;html=1;fontSize=10;" vertex="1" parent="1">
          <mxGeometry x="1113" y="1020" width="290" height="61" as="geometry" />
        </mxCell>
        <mxCell id="SIZ0XicZLE3Qhef7tmIG-32" value="macd 기준값 돌파 존재" style="rhombus;whiteSpace=wrap;html=1;fontSize=10;" vertex="1" parent="1">
          <mxGeometry x="924" y="1100" width="120" height="61" as="geometry" />
        </mxCell>
        <mxCell id="91yoJUOMf4xalkDMiRzU-83" style="edgeStyle=orthogonalEdgeStyle;rounded=0;orthogonalLoop=1;jettySize=auto;html=1;exitX=1;exitY=0.5;exitDx=0;exitDy=0;" edge="1" parent="1" source="SIZ0XicZLE3Qhef7tmIG-33">
          <mxGeometry relative="1" as="geometry">
            <mxPoint x="1520" y="1131" as="targetPoint" />
          </mxGeometry>
        </mxCell>
        <mxCell id="SIZ0XicZLE3Qhef7tmIG-33" value="&lt;div style=&quot;font-size: 10px;&quot;&gt;사용자 지정 기준 값 &amp;lt; macd 지표&lt;/div&gt;" style="rhombus;whiteSpace=wrap;html=1;fontSize=10;" vertex="1" parent="1">
          <mxGeometry x="1114" y="1100" width="290" height="61" as="geometry" />
        </mxCell>
        <mxCell id="SIZ0XicZLE3Qhef7tmIG-34" value="macd 기준 값 이상 이하 존재" style="rhombus;whiteSpace=wrap;html=1;fontSize=10;" vertex="1" parent="1">
          <mxGeometry x="923" y="1180" width="120" height="61" as="geometry" />
        </mxCell>
        <mxCell id="91yoJUOMf4xalkDMiRzU-84" style="edgeStyle=orthogonalEdgeStyle;rounded=0;orthogonalLoop=1;jettySize=auto;html=1;exitX=1;exitY=0.5;exitDx=0;exitDy=0;" edge="1" parent="1" source="SIZ0XicZLE3Qhef7tmIG-35">
          <mxGeometry relative="1" as="geometry">
            <mxPoint x="1520" y="1211" as="targetPoint" />
          </mxGeometry>
        </mxCell>
        <mxCell id="SIZ0XicZLE3Qhef7tmIG-35" value="&lt;div style=&quot;font-size: 10px;&quot;&gt;사용자 지정 기준 값 &amp;lt;= macd 지표&lt;/div&gt;&lt;div style=&quot;font-size: 10px;&quot;&gt;사용자 지정 기준 값 &amp;gt;= macd 지표&lt;br style=&quot;font-size: 10px;&quot;&gt;&lt;/div&gt;" style="rhombus;whiteSpace=wrap;html=1;fontSize=10;" vertex="1" parent="1">
          <mxGeometry x="1113" y="1180" width="290" height="61" as="geometry" />
        </mxCell>
        <mxCell id="91yoJUOMf4xalkDMiRzU-44" style="edgeStyle=orthogonalEdgeStyle;rounded=0;orthogonalLoop=1;jettySize=auto;html=1;exitX=1;exitY=0.5;exitDx=0;exitDy=0;entryX=0.024;entryY=0.525;entryDx=0;entryDy=0;entryPerimeter=0;" edge="1" parent="1" source="SIZ0XicZLE3Qhef7tmIG-36" target="SIZ0XicZLE3Qhef7tmIG-37">
          <mxGeometry relative="1" as="geometry" />
        </mxCell>
        <mxCell id="SIZ0XicZLE3Qhef7tmIG-36" value="macd 기준 값 범위 존재" style="rhombus;whiteSpace=wrap;html=1;fontSize=10;" vertex="1" parent="1">
          <mxGeometry x="923" y="1260" width="120" height="61" as="geometry" />
        </mxCell>
        <mxCell id="91yoJUOMf4xalkDMiRzU-85" style="edgeStyle=orthogonalEdgeStyle;rounded=0;orthogonalLoop=1;jettySize=auto;html=1;exitX=1;exitY=0.5;exitDx=0;exitDy=0;" edge="1" parent="1" source="SIZ0XicZLE3Qhef7tmIG-37">
          <mxGeometry relative="1" as="geometry">
            <mxPoint x="1520" y="1290" as="targetPoint" />
          </mxGeometry>
        </mxCell>
        <mxCell id="SIZ0XicZLE3Qhef7tmIG-37" value="&lt;div style=&quot;font-size: 10px;&quot;&gt;사용자 지정 하한 기준 값 &amp;lt; macd 지표 &amp;lt;&lt;/div&gt;&lt;div style=&quot;font-size: 10px;&quot;&gt;&lt;span style=&quot;background-color: initial; font-size: 10px;&quot;&gt;사용자 상한 지정 기준 값&lt;/span&gt;&lt;/div&gt;" style="rhombus;whiteSpace=wrap;html=1;fontSize=10;" vertex="1" parent="1">
          <mxGeometry x="1113" y="1260" width="290" height="61" as="geometry" />
        </mxCell>
        <mxCell id="91yoJUOMf4xalkDMiRzU-45" style="edgeStyle=orthogonalEdgeStyle;rounded=0;orthogonalLoop=1;jettySize=auto;html=1;exitX=1;exitY=0.5;exitDx=0;exitDy=0;entryX=0;entryY=0.5;entryDx=0;entryDy=0;" edge="1" parent="1" source="SIZ0XicZLE3Qhef7tmIG-38" target="SIZ0XicZLE3Qhef7tmIG-39">
          <mxGeometry relative="1" as="geometry" />
        </mxCell>
        <mxCell id="91yoJUOMf4xalkDMiRzU-47" style="edgeStyle=orthogonalEdgeStyle;rounded=0;orthogonalLoop=1;jettySize=auto;html=1;exitX=0.5;exitY=1;exitDx=0;exitDy=0;entryX=0.5;entryY=0;entryDx=0;entryDy=0;" edge="1" parent="1" source="SIZ0XicZLE3Qhef7tmIG-38" target="ojqht0Lz8iFX4zpYmRi0-1">
          <mxGeometry relative="1" as="geometry" />
        </mxCell>
        <mxCell id="SIZ0XicZLE3Qhef7tmIG-38" value="macd 기준 값 추세 존재" style="rhombus;whiteSpace=wrap;html=1;fontSize=10;" vertex="1" parent="1">
          <mxGeometry x="923" y="1340" width="120" height="61" as="geometry" />
        </mxCell>
        <mxCell id="91yoJUOMf4xalkDMiRzU-86" style="edgeStyle=orthogonalEdgeStyle;rounded=0;orthogonalLoop=1;jettySize=auto;html=1;exitX=1;exitY=0.5;exitDx=0;exitDy=0;" edge="1" parent="1" source="SIZ0XicZLE3Qhef7tmIG-39">
          <mxGeometry relative="1" as="geometry">
            <mxPoint x="1520" y="1371" as="targetPoint" />
          </mxGeometry>
        </mxCell>
        <mxCell id="SIZ0XicZLE3Qhef7tmIG-39" value="&lt;div style=&quot;border-color: var(--border-color); text-align: left; font-size: 10px;&quot;&gt;&lt;font style=&quot;font-size: 10px;&quot;&gt;이전 macd 지표 대비 하락 : 하락추세&lt;/font&gt;&lt;/div&gt;&lt;div style=&quot;border-color: var(--border-color); text-align: left; font-size: 10px;&quot;&gt;&lt;font style=&quot;font-size: 10px;&quot;&gt;이전 macd 지표 대비 상승 : 상승추세&lt;/font&gt;&lt;/div&gt;" style="rhombus;whiteSpace=wrap;html=1;fontSize=10;" vertex="1" parent="1">
          <mxGeometry x="1113" y="1340" width="290" height="61" as="geometry" />
        </mxCell>
        <mxCell id="91yoJUOMf4xalkDMiRzU-48" style="edgeStyle=orthogonalEdgeStyle;rounded=0;orthogonalLoop=1;jettySize=auto;html=1;exitX=0.5;exitY=1;exitDx=0;exitDy=0;entryX=0.5;entryY=0;entryDx=0;entryDy=0;" edge="1" parent="1" source="ojqht0Lz8iFX4zpYmRi0-1" target="daKX51HI0IIDQK8d72Ty-1">
          <mxGeometry relative="1" as="geometry" />
        </mxCell>
        <mxCell id="91yoJUOMf4xalkDMiRzU-55" style="edgeStyle=orthogonalEdgeStyle;rounded=0;orthogonalLoop=1;jettySize=auto;html=1;exitX=1;exitY=0.5;exitDx=0;exitDy=0;entryX=0;entryY=0.5;entryDx=0;entryDy=0;" edge="1" parent="1" source="ojqht0Lz8iFX4zpYmRi0-1" target="ojqht0Lz8iFX4zpYmRi0-2">
          <mxGeometry relative="1" as="geometry" />
        </mxCell>
        <mxCell id="ojqht0Lz8iFX4zpYmRi0-1" value="macd 기준 값 반전 존재" style="rhombus;whiteSpace=wrap;html=1;fontSize=10;" vertex="1" parent="1">
          <mxGeometry x="920" y="1420" width="120" height="61" as="geometry" />
        </mxCell>
        <mxCell id="91yoJUOMf4xalkDMiRzU-87" style="edgeStyle=orthogonalEdgeStyle;rounded=0;orthogonalLoop=1;jettySize=auto;html=1;exitX=1;exitY=0.5;exitDx=0;exitDy=0;" edge="1" parent="1" source="ojqht0Lz8iFX4zpYmRi0-2">
          <mxGeometry relative="1" as="geometry">
            <mxPoint x="1520" y="1451" as="targetPoint" />
          </mxGeometry>
        </mxCell>
        <mxCell id="ojqht0Lz8iFX4zpYmRi0-2" value="&lt;div style=&quot;border-color: var(--border-color); text-align: left; font-size: 10px;&quot;&gt;이전 macd 추세 대비 추세 반전&lt;br style=&quot;font-size: 10px;&quot;&gt;&lt;/div&gt;" style="rhombus;whiteSpace=wrap;html=1;fontSize=10;" vertex="1" parent="1">
          <mxGeometry x="1110" y="1420" width="290" height="61" as="geometry" />
        </mxCell>
        <mxCell id="91yoJUOMf4xalkDMiRzU-49" style="edgeStyle=orthogonalEdgeStyle;rounded=0;orthogonalLoop=1;jettySize=auto;html=1;exitX=0.5;exitY=1;exitDx=0;exitDy=0;entryX=0.5;entryY=0;entryDx=0;entryDy=0;" edge="1" parent="1" source="daKX51HI0IIDQK8d72Ty-1" target="daKX51HI0IIDQK8d72Ty-3">
          <mxGeometry relative="1" as="geometry" />
        </mxCell>
        <mxCell id="91yoJUOMf4xalkDMiRzU-56" style="edgeStyle=orthogonalEdgeStyle;rounded=0;orthogonalLoop=1;jettySize=auto;html=1;exitX=1;exitY=0.5;exitDx=0;exitDy=0;entryX=0;entryY=0.5;entryDx=0;entryDy=0;" edge="1" parent="1" source="daKX51HI0IIDQK8d72Ty-1" target="daKX51HI0IIDQK8d72Ty-2">
          <mxGeometry relative="1" as="geometry" />
        </mxCell>
        <mxCell id="daKX51HI0IIDQK8d72Ty-1" value="macd Signal&lt;br&gt;기준선 돌파 존재" style="rhombus;whiteSpace=wrap;html=1;fontSize=10;" vertex="1" parent="1">
          <mxGeometry x="920" y="1500" width="120" height="61" as="geometry" />
        </mxCell>
        <mxCell id="91yoJUOMf4xalkDMiRzU-88" style="edgeStyle=orthogonalEdgeStyle;rounded=0;orthogonalLoop=1;jettySize=auto;html=1;exitX=1;exitY=0.5;exitDx=0;exitDy=0;" edge="1" parent="1" source="daKX51HI0IIDQK8d72Ty-2">
          <mxGeometry relative="1" as="geometry">
            <mxPoint x="1520" y="1531" as="targetPoint" />
          </mxGeometry>
        </mxCell>
        <mxCell id="daKX51HI0IIDQK8d72Ty-2" value="&lt;div style=&quot;font-size: 10px;&quot;&gt;사용자 지정 기준 값 &amp;lt;&amp;nbsp;&lt;/div&gt;Signal&amp;nbsp;&lt;div style=&quot;font-size: 10px;&quot;&gt;macd 기준선&lt;/div&gt;" style="rhombus;whiteSpace=wrap;html=1;fontSize=10;" vertex="1" parent="1">
          <mxGeometry x="1110" y="1500" width="290" height="61" as="geometry" />
        </mxCell>
        <mxCell id="91yoJUOMf4xalkDMiRzU-50" style="edgeStyle=orthogonalEdgeStyle;rounded=0;orthogonalLoop=1;jettySize=auto;html=1;exitX=0.5;exitY=1;exitDx=0;exitDy=0;entryX=0.5;entryY=0;entryDx=0;entryDy=0;" edge="1" parent="1" source="daKX51HI0IIDQK8d72Ty-3" target="daKX51HI0IIDQK8d72Ty-5">
          <mxGeometry relative="1" as="geometry" />
        </mxCell>
        <mxCell id="91yoJUOMf4xalkDMiRzU-57" style="edgeStyle=orthogonalEdgeStyle;rounded=0;orthogonalLoop=1;jettySize=auto;html=1;exitX=1;exitY=0.5;exitDx=0;exitDy=0;entryX=0;entryY=0.5;entryDx=0;entryDy=0;" edge="1" parent="1" source="daKX51HI0IIDQK8d72Ty-3" target="daKX51HI0IIDQK8d72Ty-4">
          <mxGeometry relative="1" as="geometry" />
        </mxCell>
        <mxCell id="daKX51HI0IIDQK8d72Ty-3" value="macd Signal&lt;br&gt;기준선 비교 존재" style="rhombus;whiteSpace=wrap;html=1;fontSize=10;" vertex="1" parent="1">
          <mxGeometry x="920" y="1580" width="120" height="61" as="geometry" />
        </mxCell>
        <mxCell id="91yoJUOMf4xalkDMiRzU-89" style="edgeStyle=orthogonalEdgeStyle;rounded=0;orthogonalLoop=1;jettySize=auto;html=1;exitX=1;exitY=0.5;exitDx=0;exitDy=0;" edge="1" parent="1" source="daKX51HI0IIDQK8d72Ty-4">
          <mxGeometry relative="1" as="geometry">
            <mxPoint x="1520" y="1611" as="targetPoint" />
          </mxGeometry>
        </mxCell>
        <mxCell id="daKX51HI0IIDQK8d72Ty-4" value="사용자 지정 기준 값,Signal&lt;br&gt;macd 기준선 비교" style="rhombus;whiteSpace=wrap;html=1;fontSize=10;" vertex="1" parent="1">
          <mxGeometry x="1110" y="1580" width="290" height="61" as="geometry" />
        </mxCell>
        <mxCell id="91yoJUOMf4xalkDMiRzU-51" style="edgeStyle=orthogonalEdgeStyle;rounded=0;orthogonalLoop=1;jettySize=auto;html=1;exitX=0.5;exitY=1;exitDx=0;exitDy=0;entryX=0.5;entryY=0;entryDx=0;entryDy=0;" edge="1" parent="1" source="daKX51HI0IIDQK8d72Ty-5" target="daKX51HI0IIDQK8d72Ty-7">
          <mxGeometry relative="1" as="geometry" />
        </mxCell>
        <mxCell id="91yoJUOMf4xalkDMiRzU-58" style="edgeStyle=orthogonalEdgeStyle;rounded=0;orthogonalLoop=1;jettySize=auto;html=1;exitX=1;exitY=0.5;exitDx=0;exitDy=0;entryX=0.028;entryY=0.541;entryDx=0;entryDy=0;entryPerimeter=0;" edge="1" parent="1" source="daKX51HI0IIDQK8d72Ty-5" target="daKX51HI0IIDQK8d72Ty-6">
          <mxGeometry relative="1" as="geometry" />
        </mxCell>
        <mxCell id="daKX51HI0IIDQK8d72Ty-5" value="macd Signal&lt;br&gt;기준값 돌파 존재" style="rhombus;whiteSpace=wrap;html=1;fontSize=10;" vertex="1" parent="1">
          <mxGeometry x="920" y="1660" width="120" height="61" as="geometry" />
        </mxCell>
        <mxCell id="91yoJUOMf4xalkDMiRzU-90" style="edgeStyle=orthogonalEdgeStyle;rounded=0;orthogonalLoop=1;jettySize=auto;html=1;exitX=1;exitY=0.5;exitDx=0;exitDy=0;" edge="1" parent="1" source="daKX51HI0IIDQK8d72Ty-6">
          <mxGeometry relative="1" as="geometry">
            <mxPoint x="1520" y="1691" as="targetPoint" />
          </mxGeometry>
        </mxCell>
        <mxCell id="daKX51HI0IIDQK8d72Ty-6" value="&lt;div style=&quot;&quot;&gt;사용자 지정 기준 값 &amp;lt; macd Signal 지표&lt;br&gt;&lt;/div&gt;" style="rhombus;whiteSpace=wrap;html=1;fontSize=10;" vertex="1" parent="1">
          <mxGeometry x="1110" y="1660" width="290" height="61" as="geometry" />
        </mxCell>
        <mxCell id="91yoJUOMf4xalkDMiRzU-52" style="edgeStyle=orthogonalEdgeStyle;rounded=0;orthogonalLoop=1;jettySize=auto;html=1;exitX=0.5;exitY=1;exitDx=0;exitDy=0;entryX=0.5;entryY=0;entryDx=0;entryDy=0;" edge="1" parent="1" source="daKX51HI0IIDQK8d72Ty-7" target="daKX51HI0IIDQK8d72Ty-9">
          <mxGeometry relative="1" as="geometry" />
        </mxCell>
        <mxCell id="91yoJUOMf4xalkDMiRzU-59" style="edgeStyle=orthogonalEdgeStyle;rounded=0;orthogonalLoop=1;jettySize=auto;html=1;exitX=1;exitY=0.5;exitDx=0;exitDy=0;entryX=0;entryY=0.5;entryDx=0;entryDy=0;" edge="1" parent="1" source="daKX51HI0IIDQK8d72Ty-7" target="daKX51HI0IIDQK8d72Ty-8">
          <mxGeometry relative="1" as="geometry" />
        </mxCell>
        <mxCell id="daKX51HI0IIDQK8d72Ty-7" value="macd Signal&amp;nbsp;&lt;br&gt;기준 값 이상 이하 존재" style="rhombus;whiteSpace=wrap;html=1;fontSize=10;" vertex="1" parent="1">
          <mxGeometry x="920" y="1740" width="120" height="61" as="geometry" />
        </mxCell>
        <mxCell id="91yoJUOMf4xalkDMiRzU-91" style="edgeStyle=orthogonalEdgeStyle;rounded=0;orthogonalLoop=1;jettySize=auto;html=1;exitX=1;exitY=0.5;exitDx=0;exitDy=0;" edge="1" parent="1" source="daKX51HI0IIDQK8d72Ty-8">
          <mxGeometry relative="1" as="geometry">
            <mxPoint x="1520" y="1771" as="targetPoint" />
          </mxGeometry>
        </mxCell>
        <mxCell id="daKX51HI0IIDQK8d72Ty-8" value="&lt;div style=&quot;font-size: 10px;&quot;&gt;&lt;div&gt;사용자 지정 기준 값 &amp;lt;= macd Signal 지표&lt;/div&gt;&lt;div&gt;사용자 지정 기준 값 &amp;gt;= macd Signal 지표&lt;/div&gt;&lt;/div&gt;" style="rhombus;whiteSpace=wrap;html=1;fontSize=10;" vertex="1" parent="1">
          <mxGeometry x="1110" y="1740" width="290" height="61" as="geometry" />
        </mxCell>
        <mxCell id="91yoJUOMf4xalkDMiRzU-53" style="edgeStyle=orthogonalEdgeStyle;rounded=0;orthogonalLoop=1;jettySize=auto;html=1;exitX=0.5;exitY=1;exitDx=0;exitDy=0;entryX=0.5;entryY=0;entryDx=0;entryDy=0;" edge="1" parent="1" source="daKX51HI0IIDQK8d72Ty-9" target="daKX51HI0IIDQK8d72Ty-11">
          <mxGeometry relative="1" as="geometry" />
        </mxCell>
        <mxCell id="91yoJUOMf4xalkDMiRzU-60" style="edgeStyle=orthogonalEdgeStyle;rounded=0;orthogonalLoop=1;jettySize=auto;html=1;exitX=1;exitY=0.5;exitDx=0;exitDy=0;entryX=0;entryY=0.5;entryDx=0;entryDy=0;" edge="1" parent="1" source="daKX51HI0IIDQK8d72Ty-9" target="daKX51HI0IIDQK8d72Ty-10">
          <mxGeometry relative="1" as="geometry" />
        </mxCell>
        <mxCell id="daKX51HI0IIDQK8d72Ty-9" value="macd Signal&amp;nbsp;&lt;br&gt;기준 값 범위 존재" style="rhombus;whiteSpace=wrap;html=1;fontSize=10;" vertex="1" parent="1">
          <mxGeometry x="920" y="1820" width="120" height="61" as="geometry" />
        </mxCell>
        <mxCell id="91yoJUOMf4xalkDMiRzU-92" style="edgeStyle=orthogonalEdgeStyle;rounded=0;orthogonalLoop=1;jettySize=auto;html=1;exitX=1;exitY=0.5;exitDx=0;exitDy=0;" edge="1" parent="1" source="daKX51HI0IIDQK8d72Ty-10">
          <mxGeometry relative="1" as="geometry">
            <mxPoint x="1520" y="1851" as="targetPoint" />
          </mxGeometry>
        </mxCell>
        <mxCell id="daKX51HI0IIDQK8d72Ty-10" value="&lt;div style=&quot;font-size: 10px;&quot;&gt;&lt;div&gt;사용자 지정 하한 기준 값 &amp;lt; macd Signal&lt;/div&gt;&lt;div&gt;지표 &amp;lt; 사용자 상한 지정 기준 값&lt;/div&gt;&lt;/div&gt;" style="rhombus;whiteSpace=wrap;html=1;fontSize=10;" vertex="1" parent="1">
          <mxGeometry x="1110" y="1820" width="290" height="61" as="geometry" />
        </mxCell>
        <mxCell id="91yoJUOMf4xalkDMiRzU-54" style="edgeStyle=orthogonalEdgeStyle;rounded=0;orthogonalLoop=1;jettySize=auto;html=1;exitX=0.5;exitY=1;exitDx=0;exitDy=0;entryX=0.5;entryY=0;entryDx=0;entryDy=0;" edge="1" parent="1" source="daKX51HI0IIDQK8d72Ty-11" target="daKX51HI0IIDQK8d72Ty-13">
          <mxGeometry relative="1" as="geometry" />
        </mxCell>
        <mxCell id="91yoJUOMf4xalkDMiRzU-61" style="edgeStyle=orthogonalEdgeStyle;rounded=0;orthogonalLoop=1;jettySize=auto;html=1;exitX=1;exitY=0.5;exitDx=0;exitDy=0;entryX=0;entryY=0.5;entryDx=0;entryDy=0;" edge="1" parent="1" source="daKX51HI0IIDQK8d72Ty-11" target="daKX51HI0IIDQK8d72Ty-12">
          <mxGeometry relative="1" as="geometry" />
        </mxCell>
        <mxCell id="daKX51HI0IIDQK8d72Ty-11" value="macdSignal&amp;nbsp;&lt;br&gt;기준 값 추세 존재" style="rhombus;whiteSpace=wrap;html=1;fontSize=10;" vertex="1" parent="1">
          <mxGeometry x="920" y="1900" width="120" height="61" as="geometry" />
        </mxCell>
        <mxCell id="91yoJUOMf4xalkDMiRzU-93" style="edgeStyle=orthogonalEdgeStyle;rounded=0;orthogonalLoop=1;jettySize=auto;html=1;exitX=1;exitY=0.5;exitDx=0;exitDy=0;" edge="1" parent="1" source="daKX51HI0IIDQK8d72Ty-12">
          <mxGeometry relative="1" as="geometry">
            <mxPoint x="1520" y="1931" as="targetPoint" />
          </mxGeometry>
        </mxCell>
        <mxCell id="daKX51HI0IIDQK8d72Ty-12" value="&lt;div style=&quot;border-color: var(--border-color); text-align: left; font-size: 10px;&quot;&gt;&lt;div style=&quot;border-color: var(--border-color);&quot;&gt;이전 macd Signal&amp;nbsp;&lt;span style=&quot;background-color: initial;&quot;&gt;지표 대비 하락 : 하락추세&lt;/span&gt;&lt;/div&gt;&lt;div style=&quot;border-color: var(--border-color);&quot;&gt;이전 macd Signal&amp;nbsp;&lt;span style=&quot;background-color: initial;&quot;&gt;지표 대비 상승 : 상승추세&lt;/span&gt;&lt;/div&gt;&lt;/div&gt;" style="rhombus;whiteSpace=wrap;html=1;fontSize=10;" vertex="1" parent="1">
          <mxGeometry x="1110" y="1900" width="290" height="61" as="geometry" />
        </mxCell>
        <mxCell id="91yoJUOMf4xalkDMiRzU-62" style="edgeStyle=orthogonalEdgeStyle;rounded=0;orthogonalLoop=1;jettySize=auto;html=1;exitX=1;exitY=0.5;exitDx=0;exitDy=0;entryX=0;entryY=0.5;entryDx=0;entryDy=0;" edge="1" parent="1" source="daKX51HI0IIDQK8d72Ty-13" target="daKX51HI0IIDQK8d72Ty-14">
          <mxGeometry relative="1" as="geometry" />
        </mxCell>
        <mxCell id="daKX51HI0IIDQK8d72Ty-13" value="macd Signal&lt;br&gt;기준 값 반전 존재" style="rhombus;whiteSpace=wrap;html=1;fontSize=10;" vertex="1" parent="1">
          <mxGeometry x="920" y="1980" width="120" height="61" as="geometry" />
        </mxCell>
        <mxCell id="91yoJUOMf4xalkDMiRzU-94" style="edgeStyle=orthogonalEdgeStyle;rounded=0;orthogonalLoop=1;jettySize=auto;html=1;exitX=1;exitY=0.5;exitDx=0;exitDy=0;" edge="1" parent="1" source="daKX51HI0IIDQK8d72Ty-14">
          <mxGeometry relative="1" as="geometry">
            <mxPoint x="1520" y="2011" as="targetPoint" />
          </mxGeometry>
        </mxCell>
        <mxCell id="daKX51HI0IIDQK8d72Ty-14" value="&lt;div style=&quot;border-color: var(--border-color); text-align: left;&quot;&gt;이전 macd Signal 추세 대비 추세 반전&lt;br&gt;&lt;/div&gt;" style="rhombus;whiteSpace=wrap;html=1;fontSize=10;" vertex="1" parent="1">
          <mxGeometry x="1110" y="1980" width="290" height="61" as="geometry" />
        </mxCell>
        <mxCell id="91yoJUOMf4xalkDMiRzU-1" value="" style="endArrow=classic;html=1;rounded=0;entryX=0;entryY=0.5;entryDx=0;entryDy=0;exitX=1;exitY=0.5;exitDx=0;exitDy=0;" edge="1" parent="1" source="TeY4YUzSOAcdukQ_QpdO-104" target="SIZ0XicZLE3Qhef7tmIG-11">
          <mxGeometry width="50" height="50" relative="1" as="geometry">
            <mxPoint x="1030" y="300" as="sourcePoint" />
            <mxPoint x="1080" y="250" as="targetPoint" />
          </mxGeometry>
        </mxCell>
        <mxCell id="91yoJUOMf4xalkDMiRzU-2" value="" style="endArrow=classic;html=1;rounded=0;exitX=0.5;exitY=1;exitDx=0;exitDy=0;" edge="1" parent="1" source="SIZ0XicZLE3Qhef7tmIG-8">
          <mxGeometry width="50" height="50" relative="1" as="geometry">
            <mxPoint x="1030" y="300" as="sourcePoint" />
            <mxPoint x="980" y="340" as="targetPoint" />
            <Array as="points">
              <mxPoint x="1257" y="340" />
            </Array>
          </mxGeometry>
        </mxCell>
        <mxCell id="91yoJUOMf4xalkDMiRzU-3" value="" style="endArrow=classic;html=1;rounded=0;entryX=0;entryY=0.5;entryDx=0;entryDy=0;exitX=1;exitY=0.5;exitDx=0;exitDy=0;" edge="1" parent="1" source="TeY4YUzSOAcdukQ_QpdO-103" target="SIZ0XicZLE3Qhef7tmIG-8">
          <mxGeometry width="50" height="50" relative="1" as="geometry">
            <mxPoint x="1030" y="300" as="sourcePoint" />
            <mxPoint x="1080" y="250" as="targetPoint" />
          </mxGeometry>
        </mxCell>
        <mxCell id="91yoJUOMf4xalkDMiRzU-4" value="" style="endArrow=classic;html=1;rounded=0;exitX=0.5;exitY=1;exitDx=0;exitDy=0;" edge="1" parent="1" source="SIZ0XicZLE3Qhef7tmIG-7">
          <mxGeometry width="50" height="50" relative="1" as="geometry">
            <mxPoint x="1030" y="300" as="sourcePoint" />
            <mxPoint x="990" y="250" as="targetPoint" />
            <Array as="points" />
          </mxGeometry>
        </mxCell>
        <mxCell id="91yoJUOMf4xalkDMiRzU-5" value="" style="endArrow=classic;html=1;rounded=0;entryX=0;entryY=0.5;entryDx=0;entryDy=0;exitX=1;exitY=0.5;exitDx=0;exitDy=0;" edge="1" parent="1" source="TeY4YUzSOAcdukQ_QpdO-102" target="SIZ0XicZLE3Qhef7tmIG-7">
          <mxGeometry width="50" height="50" relative="1" as="geometry">
            <mxPoint x="1030" y="300" as="sourcePoint" />
            <mxPoint x="1080" y="250" as="targetPoint" />
          </mxGeometry>
        </mxCell>
        <mxCell id="91yoJUOMf4xalkDMiRzU-6" value="" style="endArrow=classic;html=1;rounded=0;exitX=0.5;exitY=1;exitDx=0;exitDy=0;" edge="1" parent="1" source="SIZ0XicZLE3Qhef7tmIG-6">
          <mxGeometry width="50" height="50" relative="1" as="geometry">
            <mxPoint x="1030" y="300" as="sourcePoint" />
            <mxPoint x="990" y="160" as="targetPoint" />
            <Array as="points" />
          </mxGeometry>
        </mxCell>
        <mxCell id="91yoJUOMf4xalkDMiRzU-7" value="" style="endArrow=classic;html=1;rounded=0;entryX=0;entryY=0.5;entryDx=0;entryDy=0;exitX=1;exitY=0.5;exitDx=0;exitDy=0;" edge="1" parent="1" source="TeY4YUzSOAcdukQ_QpdO-101" target="SIZ0XicZLE3Qhef7tmIG-6">
          <mxGeometry width="50" height="50" relative="1" as="geometry">
            <mxPoint x="1030" y="300" as="sourcePoint" />
            <mxPoint x="1080" y="250" as="targetPoint" />
          </mxGeometry>
        </mxCell>
        <mxCell id="91yoJUOMf4xalkDMiRzU-8" value="" style="endArrow=classic;html=1;rounded=0;exitX=0.5;exitY=1;exitDx=0;exitDy=0;" edge="1" parent="1" source="SIZ0XicZLE3Qhef7tmIG-19" target="SIZ0XicZLE3Qhef7tmIG-23">
          <mxGeometry width="50" height="50" relative="1" as="geometry">
            <mxPoint x="1030" y="720" as="sourcePoint" />
            <mxPoint x="1080" y="670" as="targetPoint" />
          </mxGeometry>
        </mxCell>
        <mxCell id="91yoJUOMf4xalkDMiRzU-9" value="" style="endArrow=classic;html=1;rounded=0;entryX=0;entryY=0.5;entryDx=0;entryDy=0;exitX=1;exitY=0.5;exitDx=0;exitDy=0;" edge="1" parent="1" source="SIZ0XicZLE3Qhef7tmIG-19" target="SIZ0XicZLE3Qhef7tmIG-20">
          <mxGeometry width="50" height="50" relative="1" as="geometry">
            <mxPoint x="1030" y="720" as="sourcePoint" />
            <mxPoint x="1080" y="670" as="targetPoint" />
          </mxGeometry>
        </mxCell>
        <mxCell id="91yoJUOMf4xalkDMiRzU-10" value="" style="endArrow=classic;html=1;rounded=0;exitX=0.528;exitY=1.017;exitDx=0;exitDy=0;exitPerimeter=0;" edge="1" parent="1" source="SIZ0XicZLE3Qhef7tmIG-16">
          <mxGeometry width="50" height="50" relative="1" as="geometry">
            <mxPoint x="1030" y="720" as="sourcePoint" />
            <mxPoint x="980" y="510" as="targetPoint" />
          </mxGeometry>
        </mxCell>
        <mxCell id="91yoJUOMf4xalkDMiRzU-11" value="" style="endArrow=classic;html=1;rounded=0;entryX=0.5;entryY=1.117;entryDx=0;entryDy=0;entryPerimeter=0;exitX=0.5;exitY=1;exitDx=0;exitDy=0;" edge="1" parent="1" source="SIZ0XicZLE3Qhef7tmIG-18" target="SIZ0XicZLE3Qhef7tmIG-17">
          <mxGeometry width="50" height="50" relative="1" as="geometry">
            <mxPoint x="1030" y="720" as="sourcePoint" />
            <mxPoint x="1080" y="670" as="targetPoint" />
          </mxGeometry>
        </mxCell>
        <mxCell id="91yoJUOMf4xalkDMiRzU-12" value="" style="endArrow=classic;html=1;rounded=0;entryX=0.5;entryY=0;entryDx=0;entryDy=0;exitX=0.5;exitY=1;exitDx=0;exitDy=0;" edge="1" parent="1" source="SIZ0XicZLE3Qhef7tmIG-17" target="SIZ0XicZLE3Qhef7tmIG-19">
          <mxGeometry width="50" height="50" relative="1" as="geometry">
            <mxPoint x="1030" y="720" as="sourcePoint" />
            <mxPoint x="1080" y="670" as="targetPoint" />
          </mxGeometry>
        </mxCell>
        <mxCell id="91yoJUOMf4xalkDMiRzU-13" value="" style="endArrow=classic;html=1;rounded=0;entryX=0.5;entryY=0;entryDx=0;entryDy=0;exitX=0.5;exitY=1;exitDx=0;exitDy=0;" edge="1" parent="1" source="SIZ0XicZLE3Qhef7tmIG-12" target="SIZ0XicZLE3Qhef7tmIG-17">
          <mxGeometry width="50" height="50" relative="1" as="geometry">
            <mxPoint x="1030" y="720" as="sourcePoint" />
            <mxPoint x="1080" y="670" as="targetPoint" />
          </mxGeometry>
        </mxCell>
        <mxCell id="91yoJUOMf4xalkDMiRzU-14" value="" style="endArrow=classic;html=1;rounded=0;entryX=0;entryY=0.5;entryDx=0;entryDy=0;exitX=0.942;exitY=0.517;exitDx=0;exitDy=0;exitPerimeter=0;" edge="1" parent="1" source="SIZ0XicZLE3Qhef7tmIG-12" target="SIZ0XicZLE3Qhef7tmIG-16">
          <mxGeometry width="50" height="50" relative="1" as="geometry">
            <mxPoint x="1030" y="720" as="sourcePoint" />
            <mxPoint x="1080" y="670" as="targetPoint" />
          </mxGeometry>
        </mxCell>
        <mxCell id="91yoJUOMf4xalkDMiRzU-15" value="" style="endArrow=classic;html=1;rounded=0;exitX=0.5;exitY=1;exitDx=0;exitDy=0;" edge="1" parent="1" source="SIZ0XicZLE3Qhef7tmIG-26">
          <mxGeometry width="50" height="50" relative="1" as="geometry">
            <mxPoint x="1480" y="1060" as="sourcePoint" />
            <mxPoint x="990" y="920" as="targetPoint" />
          </mxGeometry>
        </mxCell>
        <mxCell id="91yoJUOMf4xalkDMiRzU-16" value="" style="endArrow=classic;html=1;rounded=0;exitX=1;exitY=0.5;exitDx=0;exitDy=0;entryX=0;entryY=0.5;entryDx=0;entryDy=0;" edge="1" parent="1" source="SIZ0XicZLE3Qhef7tmIG-30" target="SIZ0XicZLE3Qhef7tmIG-31">
          <mxGeometry width="50" height="50" relative="1" as="geometry">
            <mxPoint x="1479" y="1060" as="sourcePoint" />
            <mxPoint x="1529" y="1010" as="targetPoint" />
          </mxGeometry>
        </mxCell>
        <mxCell id="91yoJUOMf4xalkDMiRzU-17" value="" style="endArrow=classic;html=1;rounded=0;exitX=1;exitY=0.5;exitDx=0;exitDy=0;entryX=0;entryY=0.5;entryDx=0;entryDy=0;" edge="1" parent="1" source="SIZ0XicZLE3Qhef7tmIG-27" target="SIZ0XicZLE3Qhef7tmIG-28">
          <mxGeometry width="50" height="50" relative="1" as="geometry">
            <mxPoint x="1480" y="1060" as="sourcePoint" />
            <mxPoint x="1530" y="1010" as="targetPoint" />
          </mxGeometry>
        </mxCell>
        <mxCell id="91yoJUOMf4xalkDMiRzU-18" value="" style="endArrow=classic;html=1;rounded=0;entryX=0.5;entryY=0;entryDx=0;entryDy=0;exitX=0.5;exitY=1;exitDx=0;exitDy=0;" edge="1" parent="1" source="SIZ0XicZLE3Qhef7tmIG-27" target="SIZ0XicZLE3Qhef7tmIG-30">
          <mxGeometry width="50" height="50" relative="1" as="geometry">
            <mxPoint x="1480" y="1060" as="sourcePoint" />
            <mxPoint x="1530" y="1010" as="targetPoint" />
          </mxGeometry>
        </mxCell>
        <mxCell id="91yoJUOMf4xalkDMiRzU-19" value="" style="endArrow=classic;html=1;rounded=0;exitX=0.5;exitY=1;exitDx=0;exitDy=0;entryX=0.5;entryY=0;entryDx=0;entryDy=0;" edge="1" parent="1" source="SIZ0XicZLE3Qhef7tmIG-25" target="SIZ0XicZLE3Qhef7tmIG-27">
          <mxGeometry width="50" height="50" relative="1" as="geometry">
            <mxPoint x="1480" y="1060" as="sourcePoint" />
            <mxPoint x="1530" y="1010" as="targetPoint" />
          </mxGeometry>
        </mxCell>
        <mxCell id="91yoJUOMf4xalkDMiRzU-20" value="" style="endArrow=classic;html=1;rounded=0;exitX=1;exitY=0.5;exitDx=0;exitDy=0;entryX=0;entryY=0.5;entryDx=0;entryDy=0;" edge="1" parent="1" source="SIZ0XicZLE3Qhef7tmIG-21" target="SIZ0XicZLE3Qhef7tmIG-24">
          <mxGeometry width="50" height="50" relative="1" as="geometry">
            <mxPoint x="1480" y="1060" as="sourcePoint" />
            <mxPoint x="1530" y="1010" as="targetPoint" />
          </mxGeometry>
        </mxCell>
        <mxCell id="91yoJUOMf4xalkDMiRzU-21" value="" style="endArrow=classic;html=1;rounded=0;exitX=0.5;exitY=1;exitDx=0;exitDy=0;" edge="1" parent="1" source="SIZ0XicZLE3Qhef7tmIG-24">
          <mxGeometry width="50" height="50" relative="1" as="geometry">
            <mxPoint x="1480" y="1060" as="sourcePoint" />
            <mxPoint x="990" y="830" as="targetPoint" />
          </mxGeometry>
        </mxCell>
        <mxCell id="91yoJUOMf4xalkDMiRzU-22" value="" style="endArrow=classic;html=1;rounded=0;exitX=1;exitY=0.5;exitDx=0;exitDy=0;entryX=0;entryY=0.5;entryDx=0;entryDy=0;" edge="1" parent="1" source="SIZ0XicZLE3Qhef7tmIG-25" target="SIZ0XicZLE3Qhef7tmIG-26">
          <mxGeometry width="50" height="50" relative="1" as="geometry">
            <mxPoint x="1480" y="1060" as="sourcePoint" />
            <mxPoint x="1530" y="1000" as="targetPoint" />
          </mxGeometry>
        </mxCell>
        <mxCell id="91yoJUOMf4xalkDMiRzU-23" value="" style="endArrow=classic;html=1;rounded=0;exitX=0.5;exitY=1;exitDx=0;exitDy=0;" edge="1" parent="1" source="SIZ0XicZLE3Qhef7tmIG-21" target="SIZ0XicZLE3Qhef7tmIG-25">
          <mxGeometry width="50" height="50" relative="1" as="geometry">
            <mxPoint x="1480" y="1060" as="sourcePoint" />
            <mxPoint x="1530" y="1010" as="targetPoint" />
          </mxGeometry>
        </mxCell>
        <mxCell id="91yoJUOMf4xalkDMiRzU-24" value="" style="endArrow=classic;html=1;rounded=0;entryX=0;entryY=0.5;entryDx=0;entryDy=0;exitX=1;exitY=0.5;exitDx=0;exitDy=0;" edge="1" parent="1" source="SIZ0XicZLE3Qhef7tmIG-23" target="SIZ0XicZLE3Qhef7tmIG-22">
          <mxGeometry width="50" height="50" relative="1" as="geometry">
            <mxPoint x="1480" y="1060" as="sourcePoint" />
            <mxPoint x="1530" y="1010" as="targetPoint" />
          </mxGeometry>
        </mxCell>
        <mxCell id="91yoJUOMf4xalkDMiRzU-25" value="" style="endArrow=classic;html=1;rounded=0;exitX=0.5;exitY=1;exitDx=0;exitDy=0;" edge="1" parent="1" source="SIZ0XicZLE3Qhef7tmIG-22">
          <mxGeometry width="50" height="50" relative="1" as="geometry">
            <mxPoint x="1480" y="1060" as="sourcePoint" />
            <mxPoint x="980" y="750" as="targetPoint" />
          </mxGeometry>
        </mxCell>
        <mxCell id="91yoJUOMf4xalkDMiRzU-26" value="" style="endArrow=classic;html=1;rounded=0;exitX=0.5;exitY=1;exitDx=0;exitDy=0;entryX=0.5;entryY=0;entryDx=0;entryDy=0;" edge="1" parent="1" source="SIZ0XicZLE3Qhef7tmIG-23" target="SIZ0XicZLE3Qhef7tmIG-21">
          <mxGeometry width="50" height="50" relative="1" as="geometry">
            <mxPoint x="1480" y="1060" as="sourcePoint" />
            <mxPoint x="1530" y="1010" as="targetPoint" />
          </mxGeometry>
        </mxCell>
        <mxCell id="91yoJUOMf4xalkDMiRzU-27" value="" style="endArrow=classic;html=1;rounded=0;exitX=0.5;exitY=1;exitDx=0;exitDy=0;" edge="1" parent="1" source="SIZ0XicZLE3Qhef7tmIG-20">
          <mxGeometry width="50" height="50" relative="1" as="geometry">
            <mxPoint x="1480" y="1060" as="sourcePoint" />
            <mxPoint x="980" y="670" as="targetPoint" />
          </mxGeometry>
        </mxCell>
        <mxCell id="91yoJUOMf4xalkDMiRzU-29" value="" style="endArrow=classic;html=1;rounded=0;exitX=0.5;exitY=1;exitDx=0;exitDy=0;" edge="1" parent="1" source="daKX51HI0IIDQK8d72Ty-4">
          <mxGeometry width="50" height="50" relative="1" as="geometry">
            <mxPoint x="1580" y="1180" as="sourcePoint" />
            <mxPoint x="980" y="1650" as="targetPoint" />
          </mxGeometry>
        </mxCell>
        <mxCell id="91yoJUOMf4xalkDMiRzU-30" value="" style="endArrow=classic;html=1;rounded=0;exitX=0.5;exitY=1;exitDx=0;exitDy=0;" edge="1" parent="1" source="daKX51HI0IIDQK8d72Ty-2">
          <mxGeometry width="50" height="50" relative="1" as="geometry">
            <mxPoint x="1580" y="1180" as="sourcePoint" />
            <mxPoint x="980" y="1570" as="targetPoint" />
          </mxGeometry>
        </mxCell>
        <mxCell id="91yoJUOMf4xalkDMiRzU-31" value="" style="endArrow=classic;html=1;rounded=0;exitX=0.5;exitY=1;exitDx=0;exitDy=0;" edge="1" parent="1" source="ojqht0Lz8iFX4zpYmRi0-2">
          <mxGeometry width="50" height="50" relative="1" as="geometry">
            <mxPoint x="1580" y="1180" as="sourcePoint" />
            <mxPoint x="980" y="1490" as="targetPoint" />
          </mxGeometry>
        </mxCell>
        <mxCell id="91yoJUOMf4xalkDMiRzU-32" value="" style="endArrow=classic;html=1;rounded=0;exitX=0.5;exitY=1;exitDx=0;exitDy=0;" edge="1" parent="1" source="SIZ0XicZLE3Qhef7tmIG-39">
          <mxGeometry width="50" height="50" relative="1" as="geometry">
            <mxPoint x="1580" y="1180" as="sourcePoint" />
            <mxPoint x="980" y="1410" as="targetPoint" />
          </mxGeometry>
        </mxCell>
        <mxCell id="91yoJUOMf4xalkDMiRzU-33" value="" style="endArrow=classic;html=1;rounded=0;exitX=0.5;exitY=1;exitDx=0;exitDy=0;" edge="1" parent="1" source="SIZ0XicZLE3Qhef7tmIG-37">
          <mxGeometry width="50" height="50" relative="1" as="geometry">
            <mxPoint x="1580" y="1180" as="sourcePoint" />
            <mxPoint x="980" y="1330" as="targetPoint" />
          </mxGeometry>
        </mxCell>
        <mxCell id="91yoJUOMf4xalkDMiRzU-34" value="" style="endArrow=classic;html=1;rounded=0;exitX=0.524;exitY=1;exitDx=0;exitDy=0;exitPerimeter=0;" edge="1" parent="1" source="SIZ0XicZLE3Qhef7tmIG-35">
          <mxGeometry width="50" height="50" relative="1" as="geometry">
            <mxPoint x="1580" y="1180" as="sourcePoint" />
            <mxPoint x="980" y="1250" as="targetPoint" />
          </mxGeometry>
        </mxCell>
        <mxCell id="91yoJUOMf4xalkDMiRzU-35" value="" style="endArrow=classic;html=1;rounded=0;exitX=0.5;exitY=1;exitDx=0;exitDy=0;" edge="1" parent="1" source="SIZ0XicZLE3Qhef7tmIG-33">
          <mxGeometry width="50" height="50" relative="1" as="geometry">
            <mxPoint x="1580" y="1180" as="sourcePoint" />
            <mxPoint x="990" y="1170" as="targetPoint" />
          </mxGeometry>
        </mxCell>
        <mxCell id="91yoJUOMf4xalkDMiRzU-36" value="" style="endArrow=classic;html=1;rounded=0;entryX=0.024;entryY=0.508;entryDx=0;entryDy=0;entryPerimeter=0;exitX=0.933;exitY=0.557;exitDx=0;exitDy=0;exitPerimeter=0;" edge="1" parent="1" source="SIZ0XicZLE3Qhef7tmIG-34" target="SIZ0XicZLE3Qhef7tmIG-35">
          <mxGeometry width="50" height="50" relative="1" as="geometry">
            <mxPoint x="1580" y="1180" as="sourcePoint" />
            <mxPoint x="1630" y="1130" as="targetPoint" />
          </mxGeometry>
        </mxCell>
        <mxCell id="91yoJUOMf4xalkDMiRzU-37" value="" style="endArrow=classic;html=1;rounded=0;entryX=0;entryY=0.5;entryDx=0;entryDy=0;exitX=1;exitY=0.5;exitDx=0;exitDy=0;" edge="1" parent="1" source="SIZ0XicZLE3Qhef7tmIG-32" target="SIZ0XicZLE3Qhef7tmIG-33">
          <mxGeometry width="50" height="50" relative="1" as="geometry">
            <mxPoint x="1580" y="1180" as="sourcePoint" />
            <mxPoint x="1630" y="1130" as="targetPoint" />
          </mxGeometry>
        </mxCell>
        <mxCell id="91yoJUOMf4xalkDMiRzU-38" value="" style="endArrow=classic;html=1;rounded=0;exitX=0.5;exitY=1;exitDx=0;exitDy=0;" edge="1" parent="1" source="SIZ0XicZLE3Qhef7tmIG-31">
          <mxGeometry width="50" height="50" relative="1" as="geometry">
            <mxPoint x="1580" y="1180" as="sourcePoint" />
            <mxPoint x="990" y="1090" as="targetPoint" />
          </mxGeometry>
        </mxCell>
        <mxCell id="91yoJUOMf4xalkDMiRzU-39" value="" style="endArrow=classic;html=1;rounded=0;exitX=0.5;exitY=1;exitDx=0;exitDy=0;entryX=0.5;entryY=0;entryDx=0;entryDy=0;" edge="1" parent="1" source="SIZ0XicZLE3Qhef7tmIG-36" target="SIZ0XicZLE3Qhef7tmIG-38">
          <mxGeometry width="50" height="50" relative="1" as="geometry">
            <mxPoint x="1578" y="1180" as="sourcePoint" />
            <mxPoint x="1628" y="1130" as="targetPoint" />
          </mxGeometry>
        </mxCell>
        <mxCell id="91yoJUOMf4xalkDMiRzU-40" value="" style="endArrow=classic;html=1;rounded=0;exitX=0.5;exitY=1;exitDx=0;exitDy=0;entryX=0.5;entryY=0;entryDx=0;entryDy=0;" edge="1" parent="1" source="SIZ0XicZLE3Qhef7tmIG-34" target="SIZ0XicZLE3Qhef7tmIG-36">
          <mxGeometry width="50" height="50" relative="1" as="geometry">
            <mxPoint x="1578" y="1180" as="sourcePoint" />
            <mxPoint x="1628" y="1130" as="targetPoint" />
          </mxGeometry>
        </mxCell>
        <mxCell id="91yoJUOMf4xalkDMiRzU-41" value="" style="endArrow=classic;html=1;rounded=0;exitX=0.5;exitY=1;exitDx=0;exitDy=0;" edge="1" parent="1" source="SIZ0XicZLE3Qhef7tmIG-32" target="SIZ0XicZLE3Qhef7tmIG-34">
          <mxGeometry width="50" height="50" relative="1" as="geometry">
            <mxPoint x="1579" y="1180" as="sourcePoint" />
            <mxPoint x="1629" y="1130" as="targetPoint" />
          </mxGeometry>
        </mxCell>
        <mxCell id="91yoJUOMf4xalkDMiRzU-42" value="" style="endArrow=classic;html=1;rounded=0;exitX=0.5;exitY=1;exitDx=0;exitDy=0;entryX=0.5;entryY=0;entryDx=0;entryDy=0;" edge="1" parent="1" source="SIZ0XicZLE3Qhef7tmIG-30" target="SIZ0XicZLE3Qhef7tmIG-32">
          <mxGeometry width="50" height="50" relative="1" as="geometry">
            <mxPoint x="1579" y="1180" as="sourcePoint" />
            <mxPoint x="1629" y="1130" as="targetPoint" />
          </mxGeometry>
        </mxCell>
        <mxCell id="91yoJUOMf4xalkDMiRzU-43" value="" style="endArrow=classic;html=1;rounded=0;exitX=0.5;exitY=1;exitDx=0;exitDy=0;" edge="1" parent="1" source="SIZ0XicZLE3Qhef7tmIG-28">
          <mxGeometry width="50" height="50" relative="1" as="geometry">
            <mxPoint x="1580" y="1180" as="sourcePoint" />
            <mxPoint x="980" y="1010" as="targetPoint" />
          </mxGeometry>
        </mxCell>
        <mxCell id="91yoJUOMf4xalkDMiRzU-63" value="" style="endArrow=classic;html=1;rounded=0;exitX=0.5;exitY=1;exitDx=0;exitDy=0;" edge="1" parent="1" source="daKX51HI0IIDQK8d72Ty-14">
          <mxGeometry width="50" height="50" relative="1" as="geometry">
            <mxPoint x="1030" y="1850" as="sourcePoint" />
            <mxPoint x="980" y="2060" as="targetPoint" />
          </mxGeometry>
        </mxCell>
        <mxCell id="91yoJUOMf4xalkDMiRzU-64" value="" style="endArrow=classic;html=1;rounded=0;exitX=0.479;exitY=1.049;exitDx=0;exitDy=0;exitPerimeter=0;" edge="1" parent="1" source="daKX51HI0IIDQK8d72Ty-12">
          <mxGeometry width="50" height="50" relative="1" as="geometry">
            <mxPoint x="1030" y="1850" as="sourcePoint" />
            <mxPoint x="980" y="1970" as="targetPoint" />
          </mxGeometry>
        </mxCell>
        <mxCell id="91yoJUOMf4xalkDMiRzU-65" value="" style="endArrow=classic;html=1;rounded=0;exitX=0.5;exitY=1;exitDx=0;exitDy=0;" edge="1" parent="1" source="daKX51HI0IIDQK8d72Ty-10">
          <mxGeometry width="50" height="50" relative="1" as="geometry">
            <mxPoint x="1030" y="1850" as="sourcePoint" />
            <mxPoint x="980" y="1890" as="targetPoint" />
          </mxGeometry>
        </mxCell>
        <mxCell id="91yoJUOMf4xalkDMiRzU-66" value="" style="endArrow=classic;html=1;rounded=0;exitX=0.5;exitY=1;exitDx=0;exitDy=0;" edge="1" parent="1" source="daKX51HI0IIDQK8d72Ty-8">
          <mxGeometry width="50" height="50" relative="1" as="geometry">
            <mxPoint x="1030" y="1850" as="sourcePoint" />
            <mxPoint x="980" y="1810" as="targetPoint" />
          </mxGeometry>
        </mxCell>
        <mxCell id="91yoJUOMf4xalkDMiRzU-68" value="종목 추천 리스트 append" style="rounded=1;whiteSpace=wrap;html=1;" vertex="1" parent="1">
          <mxGeometry x="920" y="2090" width="120" height="40" as="geometry" />
        </mxCell>
        <mxCell id="91yoJUOMf4xalkDMiRzU-69" value="" style="endArrow=classic;html=1;rounded=0;entryX=0.5;entryY=0;entryDx=0;entryDy=0;exitX=0.5;exitY=1;exitDx=0;exitDy=0;" edge="1" parent="1" source="daKX51HI0IIDQK8d72Ty-13" target="91yoJUOMf4xalkDMiRzU-68">
          <mxGeometry width="50" height="50" relative="1" as="geometry">
            <mxPoint x="850" y="2070" as="sourcePoint" />
            <mxPoint x="900" y="2020" as="targetPoint" />
          </mxGeometry>
        </mxCell>
        <mxCell id="91yoJUOMf4xalkDMiRzU-70" value="break&lt;br&gt;다음 코인 조건 탐색" style="rounded=1;whiteSpace=wrap;html=1;" vertex="1" parent="1">
          <mxGeometry x="1459" y="2050" width="120" height="60" as="geometry" />
        </mxCell>
        <mxCell id="91yoJUOMf4xalkDMiRzU-95" value="" style="swimlane;startSize=0;" vertex="1" parent="1">
          <mxGeometry x="890" width="710" height="2150" as="geometry">
            <mxRectangle x="890" width="50" height="40" as="alternateBounds" />
          </mxGeometry>
        </mxCell>
        <mxCell id="TeY4YUzSOAcdukQ_QpdO-111" value="No" style="text;html=1;align=center;verticalAlign=middle;resizable=0;points=[];autosize=1;strokeColor=none;fillColor=none;fontSize=10;" vertex="1" parent="91yoJUOMf4xalkDMiRzU-95">
          <mxGeometry x="50" y="240" width="40" height="30" as="geometry" />
        </mxCell>
        <mxCell id="TeY4YUzSOAcdukQ_QpdO-113" value="No" style="text;html=1;align=center;verticalAlign=middle;resizable=0;points=[];autosize=1;strokeColor=none;fillColor=none;fontSize=10;" vertex="1" parent="91yoJUOMf4xalkDMiRzU-95">
          <mxGeometry x="50" y="330" width="40" height="30" as="geometry" />
        </mxCell>
        <mxCell id="TeY4YUzSOAcdukQ_QpdO-109" value="No" style="text;html=1;align=center;verticalAlign=middle;resizable=0;points=[];autosize=1;strokeColor=none;fillColor=none;fontSize=10;" vertex="1" parent="91yoJUOMf4xalkDMiRzU-95">
          <mxGeometry x="50" y="150" width="40" height="30" as="geometry" />
        </mxCell>
        <mxCell id="dsnRNY9ZzONW7Tr965tl-1" value="No" style="text;html=1;align=center;verticalAlign=middle;resizable=0;points=[];autosize=1;strokeColor=none;fillColor=none;fontSize=10;" vertex="1" parent="91yoJUOMf4xalkDMiRzU-95">
          <mxGeometry x="60" y="410" width="40" height="30" as="geometry" />
        </mxCell>
        <mxCell id="dsnRNY9ZzONW7Tr965tl-2" value="No" style="text;html=1;align=center;verticalAlign=middle;resizable=0;points=[];autosize=1;strokeColor=none;fillColor=none;fontSize=10;" vertex="1" parent="91yoJUOMf4xalkDMiRzU-95">
          <mxGeometry x="50" y="490" width="40" height="30" as="geometry" />
        </mxCell>
        <mxCell id="dsnRNY9ZzONW7Tr965tl-3" value="No" style="text;html=1;align=center;verticalAlign=middle;resizable=0;points=[];autosize=1;strokeColor=none;fillColor=none;fontSize=10;" vertex="1" parent="91yoJUOMf4xalkDMiRzU-95">
          <mxGeometry x="50" y="570" width="40" height="30" as="geometry" />
        </mxCell>
        <mxCell id="dsnRNY9ZzONW7Tr965tl-4" value="No" style="text;html=1;align=center;verticalAlign=middle;resizable=0;points=[];autosize=1;strokeColor=none;fillColor=none;fontSize=10;" vertex="1" parent="91yoJUOMf4xalkDMiRzU-95">
          <mxGeometry x="50" y="660" width="40" height="30" as="geometry" />
        </mxCell>
        <mxCell id="dsnRNY9ZzONW7Tr965tl-5" value="No" style="text;html=1;align=center;verticalAlign=middle;resizable=0;points=[];autosize=1;strokeColor=none;fillColor=none;fontSize=10;" vertex="1" parent="91yoJUOMf4xalkDMiRzU-95">
          <mxGeometry x="50" y="730" width="40" height="30" as="geometry" />
        </mxCell>
        <mxCell id="dsnRNY9ZzONW7Tr965tl-6" value="No" style="text;html=1;align=center;verticalAlign=middle;resizable=0;points=[];autosize=1;strokeColor=none;fillColor=none;fontSize=10;" vertex="1" parent="91yoJUOMf4xalkDMiRzU-95">
          <mxGeometry x="50" y="820" width="40" height="30" as="geometry" />
        </mxCell>
        <mxCell id="dsnRNY9ZzONW7Tr965tl-7" value="No" style="text;html=1;align=center;verticalAlign=middle;resizable=0;points=[];autosize=1;strokeColor=none;fillColor=none;fontSize=10;" vertex="1" parent="91yoJUOMf4xalkDMiRzU-95">
          <mxGeometry x="50" y="910" width="40" height="30" as="geometry" />
        </mxCell>
        <mxCell id="dsnRNY9ZzONW7Tr965tl-8" value="No" style="text;html=1;align=center;verticalAlign=middle;resizable=0;points=[];autosize=1;strokeColor=none;fillColor=none;fontSize=10;" vertex="1" parent="91yoJUOMf4xalkDMiRzU-95">
          <mxGeometry x="50" y="990" width="40" height="30" as="geometry" />
        </mxCell>
        <mxCell id="dsnRNY9ZzONW7Tr965tl-9" value="No" style="text;html=1;align=center;verticalAlign=middle;resizable=0;points=[];autosize=1;strokeColor=none;fillColor=none;fontSize=10;" vertex="1" parent="91yoJUOMf4xalkDMiRzU-95">
          <mxGeometry x="50" y="1080" width="40" height="30" as="geometry" />
        </mxCell>
        <mxCell id="dsnRNY9ZzONW7Tr965tl-10" value="No" style="text;html=1;align=center;verticalAlign=middle;resizable=0;points=[];autosize=1;strokeColor=none;fillColor=none;fontSize=10;" vertex="1" parent="91yoJUOMf4xalkDMiRzU-95">
          <mxGeometry x="50" y="1150" width="40" height="30" as="geometry" />
        </mxCell>
        <mxCell id="dsnRNY9ZzONW7Tr965tl-11" value="No" style="text;html=1;align=center;verticalAlign=middle;resizable=0;points=[];autosize=1;strokeColor=none;fillColor=none;fontSize=10;" vertex="1" parent="91yoJUOMf4xalkDMiRzU-95">
          <mxGeometry x="50" y="1230" width="40" height="30" as="geometry" />
        </mxCell>
        <mxCell id="dsnRNY9ZzONW7Tr965tl-12" value="No" style="text;html=1;align=center;verticalAlign=middle;resizable=0;points=[];autosize=1;strokeColor=none;fillColor=none;fontSize=10;" vertex="1" parent="91yoJUOMf4xalkDMiRzU-95">
          <mxGeometry x="50" y="1310" width="40" height="30" as="geometry" />
        </mxCell>
        <mxCell id="dsnRNY9ZzONW7Tr965tl-13" value="No" style="text;html=1;align=center;verticalAlign=middle;resizable=0;points=[];autosize=1;strokeColor=none;fillColor=none;fontSize=10;" vertex="1" parent="91yoJUOMf4xalkDMiRzU-95">
          <mxGeometry x="50" y="1390" width="40" height="30" as="geometry" />
        </mxCell>
        <mxCell id="dsnRNY9ZzONW7Tr965tl-14" value="No" style="text;html=1;align=center;verticalAlign=middle;resizable=0;points=[];autosize=1;strokeColor=none;fillColor=none;fontSize=10;" vertex="1" parent="91yoJUOMf4xalkDMiRzU-95">
          <mxGeometry x="50" y="1480" width="40" height="30" as="geometry" />
        </mxCell>
        <mxCell id="dsnRNY9ZzONW7Tr965tl-15" value="No" style="text;html=1;align=center;verticalAlign=middle;resizable=0;points=[];autosize=1;strokeColor=none;fillColor=none;fontSize=10;" vertex="1" parent="91yoJUOMf4xalkDMiRzU-95">
          <mxGeometry x="50" y="1550" width="40" height="30" as="geometry" />
        </mxCell>
        <mxCell id="dsnRNY9ZzONW7Tr965tl-16" value="No" style="text;html=1;align=center;verticalAlign=middle;resizable=0;points=[];autosize=1;strokeColor=none;fillColor=none;fontSize=10;" vertex="1" parent="91yoJUOMf4xalkDMiRzU-95">
          <mxGeometry x="50" y="1630" width="40" height="30" as="geometry" />
        </mxCell>
        <mxCell id="dsnRNY9ZzONW7Tr965tl-17" value="No" style="text;html=1;align=center;verticalAlign=middle;resizable=0;points=[];autosize=1;strokeColor=none;fillColor=none;fontSize=10;" vertex="1" parent="91yoJUOMf4xalkDMiRzU-95">
          <mxGeometry x="50" y="1710" width="40" height="30" as="geometry" />
        </mxCell>
        <mxCell id="dsnRNY9ZzONW7Tr965tl-18" value="No" style="text;html=1;align=center;verticalAlign=middle;resizable=0;points=[];autosize=1;strokeColor=none;fillColor=none;fontSize=10;" vertex="1" parent="91yoJUOMf4xalkDMiRzU-95">
          <mxGeometry x="50" y="1790" width="40" height="30" as="geometry" />
        </mxCell>
        <mxCell id="dsnRNY9ZzONW7Tr965tl-19" value="No" style="text;html=1;align=center;verticalAlign=middle;resizable=0;points=[];autosize=1;strokeColor=none;fillColor=none;fontSize=10;" vertex="1" parent="91yoJUOMf4xalkDMiRzU-95">
          <mxGeometry x="50" y="1880" width="40" height="30" as="geometry" />
        </mxCell>
        <mxCell id="dsnRNY9ZzONW7Tr965tl-20" value="No" style="text;html=1;align=center;verticalAlign=middle;resizable=0;points=[];autosize=1;strokeColor=none;fillColor=none;fontSize=10;" vertex="1" parent="91yoJUOMf4xalkDMiRzU-95">
          <mxGeometry x="50" y="1960" width="40" height="30" as="geometry" />
        </mxCell>
        <mxCell id="dsnRNY9ZzONW7Tr965tl-21" value="No" style="text;html=1;align=center;verticalAlign=middle;resizable=0;points=[];autosize=1;strokeColor=none;fillColor=none;fontSize=10;" vertex="1" parent="91yoJUOMf4xalkDMiRzU-95">
          <mxGeometry x="50" y="2020" width="40" height="30" as="geometry" />
        </mxCell>
        <mxCell id="dsnRNY9ZzONW7Tr965tl-22" value="Yes" style="text;html=1;align=center;verticalAlign=middle;resizable=0;points=[];autosize=1;strokeColor=none;fillColor=none;" vertex="1" parent="91yoJUOMf4xalkDMiRzU-95">
          <mxGeometry x="150" y="90" width="40" height="30" as="geometry" />
        </mxCell>
        <mxCell id="dsnRNY9ZzONW7Tr965tl-23" value="Yes" style="text;html=1;align=center;verticalAlign=middle;resizable=0;points=[];autosize=1;strokeColor=none;fillColor=none;" vertex="1" parent="91yoJUOMf4xalkDMiRzU-95">
          <mxGeometry x="130" y="130" width="40" height="30" as="geometry" />
        </mxCell>
        <mxCell id="dsnRNY9ZzONW7Tr965tl-24" value="Yes" style="text;html=1;align=center;verticalAlign=middle;resizable=0;points=[];autosize=1;strokeColor=none;fillColor=none;" vertex="1" parent="91yoJUOMf4xalkDMiRzU-95">
          <mxGeometry x="150" y="180" width="40" height="30" as="geometry" />
        </mxCell>
        <mxCell id="dsnRNY9ZzONW7Tr965tl-25" value="Yes" style="text;html=1;align=center;verticalAlign=middle;resizable=0;points=[];autosize=1;strokeColor=none;fillColor=none;" vertex="1" parent="91yoJUOMf4xalkDMiRzU-95">
          <mxGeometry x="140" y="220" width="40" height="30" as="geometry" />
        </mxCell>
        <mxCell id="dsnRNY9ZzONW7Tr965tl-26" value="Yes" style="text;html=1;align=center;verticalAlign=middle;resizable=0;points=[];autosize=1;strokeColor=none;fillColor=none;" vertex="1" parent="91yoJUOMf4xalkDMiRzU-95">
          <mxGeometry x="150" y="270" width="40" height="30" as="geometry" />
        </mxCell>
        <mxCell id="dsnRNY9ZzONW7Tr965tl-27" value="Yes" style="text;html=1;align=center;verticalAlign=middle;resizable=0;points=[];autosize=1;strokeColor=none;fillColor=none;" vertex="1" parent="91yoJUOMf4xalkDMiRzU-95">
          <mxGeometry x="150" y="310" width="40" height="30" as="geometry" />
        </mxCell>
        <mxCell id="dsnRNY9ZzONW7Tr965tl-28" value="Yes" style="text;html=1;align=center;verticalAlign=middle;resizable=0;points=[];autosize=1;strokeColor=none;fillColor=none;" vertex="1" parent="91yoJUOMf4xalkDMiRzU-95">
          <mxGeometry x="150" y="360" width="40" height="30" as="geometry" />
        </mxCell>
        <mxCell id="dsnRNY9ZzONW7Tr965tl-29" value="Yes" style="text;html=1;align=center;verticalAlign=middle;resizable=0;points=[];autosize=1;strokeColor=none;fillColor=none;" vertex="1" parent="91yoJUOMf4xalkDMiRzU-95">
          <mxGeometry x="150" y="400" width="40" height="30" as="geometry" />
        </mxCell>
        <mxCell id="dsnRNY9ZzONW7Tr965tl-31" value="Yes" style="text;html=1;align=center;verticalAlign=middle;resizable=0;points=[];autosize=1;strokeColor=none;fillColor=none;" vertex="1" parent="91yoJUOMf4xalkDMiRzU-95">
          <mxGeometry x="150" y="440" width="40" height="30" as="geometry" />
        </mxCell>
        <mxCell id="dsnRNY9ZzONW7Tr965tl-32" value="Yes" style="text;html=1;align=center;verticalAlign=middle;resizable=0;points=[];autosize=1;strokeColor=none;fillColor=none;" vertex="1" parent="91yoJUOMf4xalkDMiRzU-95">
          <mxGeometry x="150" y="480" width="40" height="30" as="geometry" />
        </mxCell>
        <mxCell id="dsnRNY9ZzONW7Tr965tl-33" value="Yes" style="text;html=1;align=center;verticalAlign=middle;resizable=0;points=[];autosize=1;strokeColor=none;fillColor=none;" vertex="1" parent="91yoJUOMf4xalkDMiRzU-95">
          <mxGeometry x="150" y="520" width="40" height="30" as="geometry" />
        </mxCell>
        <mxCell id="dsnRNY9ZzONW7Tr965tl-35" value="Yes" style="text;html=1;align=center;verticalAlign=middle;resizable=0;points=[];autosize=1;strokeColor=none;fillColor=none;" vertex="1" parent="91yoJUOMf4xalkDMiRzU-95">
          <mxGeometry x="150" y="555" width="40" height="30" as="geometry" />
        </mxCell>
        <mxCell id="dsnRNY9ZzONW7Tr965tl-36" value="Yes" style="text;html=1;align=center;verticalAlign=middle;resizable=0;points=[];autosize=1;strokeColor=none;fillColor=none;" vertex="1" parent="91yoJUOMf4xalkDMiRzU-95">
          <mxGeometry x="150" y="600" width="40" height="30" as="geometry" />
        </mxCell>
        <mxCell id="dsnRNY9ZzONW7Tr965tl-37" value="Yes" style="text;html=1;align=center;verticalAlign=middle;resizable=0;points=[];autosize=1;strokeColor=none;fillColor=none;" vertex="1" parent="91yoJUOMf4xalkDMiRzU-95">
          <mxGeometry x="150" y="640" width="40" height="30" as="geometry" />
        </mxCell>
        <mxCell id="dsnRNY9ZzONW7Tr965tl-38" value="Yes" style="text;html=1;align=center;verticalAlign=middle;resizable=0;points=[];autosize=1;strokeColor=none;fillColor=none;" vertex="1" parent="91yoJUOMf4xalkDMiRzU-95">
          <mxGeometry x="150" y="680" width="40" height="30" as="geometry" />
        </mxCell>
        <mxCell id="dsnRNY9ZzONW7Tr965tl-39" value="Yes" style="text;html=1;align=center;verticalAlign=middle;resizable=0;points=[];autosize=1;strokeColor=none;fillColor=none;" vertex="1" parent="91yoJUOMf4xalkDMiRzU-95">
          <mxGeometry x="150" y="720" width="40" height="30" as="geometry" />
        </mxCell>
        <mxCell id="dsnRNY9ZzONW7Tr965tl-40" value="Yes" style="text;html=1;align=center;verticalAlign=middle;resizable=0;points=[];autosize=1;strokeColor=none;fillColor=none;" vertex="1" parent="91yoJUOMf4xalkDMiRzU-95">
          <mxGeometry x="150" y="760" width="40" height="30" as="geometry" />
        </mxCell>
        <mxCell id="dsnRNY9ZzONW7Tr965tl-41" value="Yes" style="text;html=1;align=center;verticalAlign=middle;resizable=0;points=[];autosize=1;strokeColor=none;fillColor=none;" vertex="1" parent="91yoJUOMf4xalkDMiRzU-95">
          <mxGeometry x="150" y="800" width="40" height="30" as="geometry" />
        </mxCell>
        <mxCell id="dsnRNY9ZzONW7Tr965tl-42" value="Yes" style="text;html=1;align=center;verticalAlign=middle;resizable=0;points=[];autosize=1;strokeColor=none;fillColor=none;" vertex="1" parent="91yoJUOMf4xalkDMiRzU-95">
          <mxGeometry x="150" y="850" width="40" height="30" as="geometry" />
        </mxCell>
        <mxCell id="dsnRNY9ZzONW7Tr965tl-43" value="Yes" style="text;html=1;align=center;verticalAlign=middle;resizable=0;points=[];autosize=1;strokeColor=none;fillColor=none;" vertex="1" parent="91yoJUOMf4xalkDMiRzU-95">
          <mxGeometry x="150" y="890" width="40" height="30" as="geometry" />
        </mxCell>
        <mxCell id="dsnRNY9ZzONW7Tr965tl-44" value="Yes" style="text;html=1;align=center;verticalAlign=middle;resizable=0;points=[];autosize=1;strokeColor=none;fillColor=none;" vertex="1" parent="91yoJUOMf4xalkDMiRzU-95">
          <mxGeometry x="150" y="940" width="40" height="30" as="geometry" />
        </mxCell>
        <mxCell id="dsnRNY9ZzONW7Tr965tl-45" value="Yes" style="text;html=1;align=center;verticalAlign=middle;resizable=0;points=[];autosize=1;strokeColor=none;fillColor=none;" vertex="1" parent="91yoJUOMf4xalkDMiRzU-95">
          <mxGeometry x="150" y="980" width="40" height="30" as="geometry" />
        </mxCell>
        <mxCell id="dsnRNY9ZzONW7Tr965tl-46" value="Yes" style="text;html=1;align=center;verticalAlign=middle;resizable=0;points=[];autosize=1;strokeColor=none;fillColor=none;" vertex="1" parent="91yoJUOMf4xalkDMiRzU-95">
          <mxGeometry x="150" y="1020" width="40" height="30" as="geometry" />
        </mxCell>
        <mxCell id="dsnRNY9ZzONW7Tr965tl-47" value="Yes" style="text;html=1;align=center;verticalAlign=middle;resizable=0;points=[];autosize=1;strokeColor=none;fillColor=none;" vertex="1" parent="91yoJUOMf4xalkDMiRzU-95">
          <mxGeometry x="150" y="1060" width="40" height="30" as="geometry" />
        </mxCell>
        <mxCell id="dsnRNY9ZzONW7Tr965tl-48" value="Yes" style="text;html=1;align=center;verticalAlign=middle;resizable=0;points=[];autosize=1;strokeColor=none;fillColor=none;" vertex="1" parent="91yoJUOMf4xalkDMiRzU-95">
          <mxGeometry x="150" y="1100" width="40" height="30" as="geometry" />
        </mxCell>
        <mxCell id="dsnRNY9ZzONW7Tr965tl-49" value="Yes" style="text;html=1;align=center;verticalAlign=middle;resizable=0;points=[];autosize=1;strokeColor=none;fillColor=none;" vertex="1" parent="91yoJUOMf4xalkDMiRzU-95">
          <mxGeometry x="150" y="1139" width="40" height="30" as="geometry" />
        </mxCell>
        <mxCell id="dsnRNY9ZzONW7Tr965tl-50" value="Yes" style="text;html=1;align=center;verticalAlign=middle;resizable=0;points=[];autosize=1;strokeColor=none;fillColor=none;" vertex="1" parent="91yoJUOMf4xalkDMiRzU-95">
          <mxGeometry x="150" y="1180" width="40" height="30" as="geometry" />
        </mxCell>
        <mxCell id="dsnRNY9ZzONW7Tr965tl-51" value="Yes" style="text;html=1;align=center;verticalAlign=middle;resizable=0;points=[];autosize=1;strokeColor=none;fillColor=none;" vertex="1" parent="91yoJUOMf4xalkDMiRzU-95">
          <mxGeometry x="150" y="1220" width="40" height="30" as="geometry" />
        </mxCell>
        <mxCell id="dsnRNY9ZzONW7Tr965tl-52" value="Yes" style="text;html=1;align=center;verticalAlign=middle;resizable=0;points=[];autosize=1;strokeColor=none;fillColor=none;" vertex="1" parent="91yoJUOMf4xalkDMiRzU-95">
          <mxGeometry x="150" y="1260" width="40" height="30" as="geometry" />
        </mxCell>
        <mxCell id="dsnRNY9ZzONW7Tr965tl-53" value="Yes" style="text;html=1;align=center;verticalAlign=middle;resizable=0;points=[];autosize=1;strokeColor=none;fillColor=none;" vertex="1" parent="91yoJUOMf4xalkDMiRzU-95">
          <mxGeometry x="150" y="1300" width="40" height="30" as="geometry" />
        </mxCell>
        <mxCell id="dsnRNY9ZzONW7Tr965tl-54" value="Yes" style="text;html=1;align=center;verticalAlign=middle;resizable=0;points=[];autosize=1;strokeColor=none;fillColor=none;" vertex="1" parent="91yoJUOMf4xalkDMiRzU-95">
          <mxGeometry x="150" y="1350" width="40" height="30" as="geometry" />
        </mxCell>
        <mxCell id="dsnRNY9ZzONW7Tr965tl-55" value="Yes" style="text;html=1;align=center;verticalAlign=middle;resizable=0;points=[];autosize=1;strokeColor=none;fillColor=none;" vertex="1" parent="91yoJUOMf4xalkDMiRzU-95">
          <mxGeometry x="150" y="1380" width="40" height="30" as="geometry" />
        </mxCell>
        <mxCell id="dsnRNY9ZzONW7Tr965tl-56" value="Yes" style="text;html=1;align=center;verticalAlign=middle;resizable=0;points=[];autosize=1;strokeColor=none;fillColor=none;" vertex="1" parent="91yoJUOMf4xalkDMiRzU-95">
          <mxGeometry x="150" y="1420" width="40" height="30" as="geometry" />
        </mxCell>
        <mxCell id="dsnRNY9ZzONW7Tr965tl-57" value="Yes" style="text;html=1;align=center;verticalAlign=middle;resizable=0;points=[];autosize=1;strokeColor=none;fillColor=none;" vertex="1" parent="91yoJUOMf4xalkDMiRzU-95">
          <mxGeometry x="150" y="1460" width="40" height="30" as="geometry" />
        </mxCell>
        <mxCell id="dsnRNY9ZzONW7Tr965tl-58" value="Yes" style="text;html=1;align=center;verticalAlign=middle;resizable=0;points=[];autosize=1;strokeColor=none;fillColor=none;" vertex="1" parent="91yoJUOMf4xalkDMiRzU-95">
          <mxGeometry x="150" y="1500" width="40" height="30" as="geometry" />
        </mxCell>
        <mxCell id="dsnRNY9ZzONW7Tr965tl-59" value="Yes" style="text;html=1;align=center;verticalAlign=middle;resizable=0;points=[];autosize=1;strokeColor=none;fillColor=none;" vertex="1" parent="91yoJUOMf4xalkDMiRzU-95">
          <mxGeometry x="150" y="1540" width="40" height="30" as="geometry" />
        </mxCell>
        <mxCell id="dsnRNY9ZzONW7Tr965tl-60" value="Yes" style="text;html=1;align=center;verticalAlign=middle;resizable=0;points=[];autosize=1;strokeColor=none;fillColor=none;" vertex="1" parent="91yoJUOMf4xalkDMiRzU-95">
          <mxGeometry x="150" y="1580" width="40" height="30" as="geometry" />
        </mxCell>
        <mxCell id="dsnRNY9ZzONW7Tr965tl-61" value="Yes" style="text;html=1;align=center;verticalAlign=middle;resizable=0;points=[];autosize=1;strokeColor=none;fillColor=none;" vertex="1" parent="91yoJUOMf4xalkDMiRzU-95">
          <mxGeometry x="150" y="1620" width="40" height="30" as="geometry" />
        </mxCell>
        <mxCell id="dsnRNY9ZzONW7Tr965tl-62" value="Yes" style="text;html=1;align=center;verticalAlign=middle;resizable=0;points=[];autosize=1;strokeColor=none;fillColor=none;" vertex="1" parent="91yoJUOMf4xalkDMiRzU-95">
          <mxGeometry x="150" y="1670" width="40" height="30" as="geometry" />
        </mxCell>
        <mxCell id="dsnRNY9ZzONW7Tr965tl-63" value="Yes" style="text;html=1;align=center;verticalAlign=middle;resizable=0;points=[];autosize=1;strokeColor=none;fillColor=none;" vertex="1" parent="91yoJUOMf4xalkDMiRzU-95">
          <mxGeometry x="150" y="1739" width="40" height="30" as="geometry" />
        </mxCell>
        <mxCell id="dsnRNY9ZzONW7Tr965tl-64" value="Yes" style="text;html=1;align=center;verticalAlign=middle;resizable=0;points=[];autosize=1;strokeColor=none;fillColor=none;" vertex="1" parent="91yoJUOMf4xalkDMiRzU-95">
          <mxGeometry x="150" y="1790" width="40" height="30" as="geometry" />
        </mxCell>
        <mxCell id="dsnRNY9ZzONW7Tr965tl-65" value="Yes" style="text;html=1;align=center;verticalAlign=middle;resizable=0;points=[];autosize=1;strokeColor=none;fillColor=none;" vertex="1" parent="91yoJUOMf4xalkDMiRzU-95">
          <mxGeometry x="150" y="1820" width="40" height="30" as="geometry" />
        </mxCell>
        <mxCell id="dsnRNY9ZzONW7Tr965tl-66" value="Yes" style="text;html=1;align=center;verticalAlign=middle;resizable=0;points=[];autosize=1;strokeColor=none;fillColor=none;" vertex="1" parent="91yoJUOMf4xalkDMiRzU-95">
          <mxGeometry x="150" y="1860" width="40" height="30" as="geometry" />
        </mxCell>
        <mxCell id="dsnRNY9ZzONW7Tr965tl-67" value="Yes" style="text;html=1;align=center;verticalAlign=middle;resizable=0;points=[];autosize=1;strokeColor=none;fillColor=none;" vertex="1" parent="91yoJUOMf4xalkDMiRzU-95">
          <mxGeometry x="150" y="1900" width="40" height="30" as="geometry" />
        </mxCell>
        <mxCell id="dsnRNY9ZzONW7Tr965tl-68" value="Yes" style="text;html=1;align=center;verticalAlign=middle;resizable=0;points=[];autosize=1;strokeColor=none;fillColor=none;" vertex="1" parent="91yoJUOMf4xalkDMiRzU-95">
          <mxGeometry x="150" y="1940" width="40" height="30" as="geometry" />
        </mxCell>
        <mxCell id="dsnRNY9ZzONW7Tr965tl-69" value="Yes" style="text;html=1;align=center;verticalAlign=middle;resizable=0;points=[];autosize=1;strokeColor=none;fillColor=none;" vertex="1" parent="91yoJUOMf4xalkDMiRzU-95">
          <mxGeometry x="150" y="1980" width="40" height="30" as="geometry" />
        </mxCell>
        <mxCell id="dsnRNY9ZzONW7Tr965tl-70" value="Yes" style="text;html=1;align=center;verticalAlign=middle;resizable=0;points=[];autosize=1;strokeColor=none;fillColor=none;" vertex="1" parent="91yoJUOMf4xalkDMiRzU-95">
          <mxGeometry x="150" y="2030" width="40" height="30" as="geometry" />
        </mxCell>
        <mxCell id="dsnRNY9ZzONW7Tr965tl-71" value="No" style="text;html=1;align=center;verticalAlign=middle;resizable=0;points=[];autosize=1;strokeColor=none;fillColor=none;" vertex="1" parent="91yoJUOMf4xalkDMiRzU-95">
          <mxGeometry x="560" y="1980" width="40" height="30" as="geometry" />
        </mxCell>
        <mxCell id="dsnRNY9ZzONW7Tr965tl-72" value="No" style="text;html=1;align=center;verticalAlign=middle;resizable=0;points=[];autosize=1;strokeColor=none;fillColor=none;" vertex="1" parent="91yoJUOMf4xalkDMiRzU-95">
          <mxGeometry x="560" y="1900" width="40" height="30" as="geometry" />
        </mxCell>
        <mxCell id="dsnRNY9ZzONW7Tr965tl-73" value="No" style="text;html=1;align=center;verticalAlign=middle;resizable=0;points=[];autosize=1;strokeColor=none;fillColor=none;" vertex="1" parent="91yoJUOMf4xalkDMiRzU-95">
          <mxGeometry x="560" y="1820" width="40" height="30" as="geometry" />
        </mxCell>
        <mxCell id="dsnRNY9ZzONW7Tr965tl-74" value="No" style="text;html=1;align=center;verticalAlign=middle;resizable=0;points=[];autosize=1;strokeColor=none;fillColor=none;" vertex="1" parent="91yoJUOMf4xalkDMiRzU-95">
          <mxGeometry x="560" y="1739" width="40" height="30" as="geometry" />
        </mxCell>
        <mxCell id="dsnRNY9ZzONW7Tr965tl-75" value="No" style="text;html=1;align=center;verticalAlign=middle;resizable=0;points=[];autosize=1;strokeColor=none;fillColor=none;" vertex="1" parent="91yoJUOMf4xalkDMiRzU-95">
          <mxGeometry x="560" y="1660" width="40" height="30" as="geometry" />
        </mxCell>
        <mxCell id="dsnRNY9ZzONW7Tr965tl-76" value="No" style="text;html=1;align=center;verticalAlign=middle;resizable=0;points=[];autosize=1;strokeColor=none;fillColor=none;" vertex="1" parent="91yoJUOMf4xalkDMiRzU-95">
          <mxGeometry x="560" y="1580" width="40" height="30" as="geometry" />
        </mxCell>
        <mxCell id="dsnRNY9ZzONW7Tr965tl-77" value="No" style="text;html=1;align=center;verticalAlign=middle;resizable=0;points=[];autosize=1;strokeColor=none;fillColor=none;" vertex="1" parent="91yoJUOMf4xalkDMiRzU-95">
          <mxGeometry x="560" y="1500" width="40" height="30" as="geometry" />
        </mxCell>
        <mxCell id="dsnRNY9ZzONW7Tr965tl-78" value="No" style="text;html=1;align=center;verticalAlign=middle;resizable=0;points=[];autosize=1;strokeColor=none;fillColor=none;" vertex="1" parent="91yoJUOMf4xalkDMiRzU-95">
          <mxGeometry x="560" y="1420" width="40" height="30" as="geometry" />
        </mxCell>
        <mxCell id="dsnRNY9ZzONW7Tr965tl-79" value="No" style="text;html=1;align=center;verticalAlign=middle;resizable=0;points=[];autosize=1;strokeColor=none;fillColor=none;" vertex="1" parent="91yoJUOMf4xalkDMiRzU-95">
          <mxGeometry x="560" y="1340" width="40" height="30" as="geometry" />
        </mxCell>
        <mxCell id="dsnRNY9ZzONW7Tr965tl-80" value="No" style="text;html=1;align=center;verticalAlign=middle;resizable=0;points=[];autosize=1;strokeColor=none;fillColor=none;" vertex="1" parent="91yoJUOMf4xalkDMiRzU-95">
          <mxGeometry x="560" y="1260" width="40" height="30" as="geometry" />
        </mxCell>
        <mxCell id="dsnRNY9ZzONW7Tr965tl-81" value="No" style="text;html=1;align=center;verticalAlign=middle;resizable=0;points=[];autosize=1;strokeColor=none;fillColor=none;" vertex="1" parent="91yoJUOMf4xalkDMiRzU-95">
          <mxGeometry x="560" y="1180" width="40" height="30" as="geometry" />
        </mxCell>
        <mxCell id="dsnRNY9ZzONW7Tr965tl-82" value="No" style="text;html=1;align=center;verticalAlign=middle;resizable=0;points=[];autosize=1;strokeColor=none;fillColor=none;" vertex="1" parent="91yoJUOMf4xalkDMiRzU-95">
          <mxGeometry x="560" y="1100" width="40" height="30" as="geometry" />
        </mxCell>
        <mxCell id="dsnRNY9ZzONW7Tr965tl-83" value="No" style="text;html=1;align=center;verticalAlign=middle;resizable=0;points=[];autosize=1;strokeColor=none;fillColor=none;" vertex="1" parent="91yoJUOMf4xalkDMiRzU-95">
          <mxGeometry x="560" y="1020" width="40" height="30" as="geometry" />
        </mxCell>
        <mxCell id="dsnRNY9ZzONW7Tr965tl-84" value="No" style="text;html=1;align=center;verticalAlign=middle;resizable=0;points=[];autosize=1;strokeColor=none;fillColor=none;" vertex="1" parent="91yoJUOMf4xalkDMiRzU-95">
          <mxGeometry x="560" y="970" width="40" height="30" as="geometry" />
        </mxCell>
        <mxCell id="dsnRNY9ZzONW7Tr965tl-85" value="No" style="text;html=1;align=center;verticalAlign=middle;resizable=0;points=[];autosize=1;strokeColor=none;fillColor=none;" vertex="1" parent="91yoJUOMf4xalkDMiRzU-95">
          <mxGeometry x="560" y="850" width="40" height="30" as="geometry" />
        </mxCell>
        <mxCell id="dsnRNY9ZzONW7Tr965tl-86" value="No" style="text;html=1;align=center;verticalAlign=middle;resizable=0;points=[];autosize=1;strokeColor=none;fillColor=none;" vertex="1" parent="91yoJUOMf4xalkDMiRzU-95">
          <mxGeometry x="560" y="760" width="40" height="30" as="geometry" />
        </mxCell>
        <mxCell id="dsnRNY9ZzONW7Tr965tl-87" value="No" style="text;html=1;align=center;verticalAlign=middle;resizable=0;points=[];autosize=1;strokeColor=none;fillColor=none;" vertex="1" parent="91yoJUOMf4xalkDMiRzU-95">
          <mxGeometry x="560" y="680" width="40" height="30" as="geometry" />
        </mxCell>
        <mxCell id="dsnRNY9ZzONW7Tr965tl-88" value="No" style="text;html=1;align=center;verticalAlign=middle;resizable=0;points=[];autosize=1;strokeColor=none;fillColor=none;" vertex="1" parent="91yoJUOMf4xalkDMiRzU-95">
          <mxGeometry x="560" y="600" width="40" height="30" as="geometry" />
        </mxCell>
        <mxCell id="dsnRNY9ZzONW7Tr965tl-89" value="No" style="text;html=1;align=center;verticalAlign=middle;resizable=0;points=[];autosize=1;strokeColor=none;fillColor=none;" vertex="1" parent="91yoJUOMf4xalkDMiRzU-95">
          <mxGeometry x="560" y="550" width="40" height="30" as="geometry" />
        </mxCell>
        <mxCell id="dsnRNY9ZzONW7Tr965tl-90" value="No" style="text;html=1;align=center;verticalAlign=middle;resizable=0;points=[];autosize=1;strokeColor=none;fillColor=none;" vertex="1" parent="91yoJUOMf4xalkDMiRzU-95">
          <mxGeometry x="560" y="440" width="40" height="30" as="geometry" />
        </mxCell>
        <mxCell id="dsnRNY9ZzONW7Tr965tl-91" value="No" style="text;html=1;align=center;verticalAlign=middle;resizable=0;points=[];autosize=1;strokeColor=none;fillColor=none;" vertex="1" parent="91yoJUOMf4xalkDMiRzU-95">
          <mxGeometry x="560" y="360" width="40" height="30" as="geometry" />
        </mxCell>
        <mxCell id="dsnRNY9ZzONW7Tr965tl-92" value="No" style="text;html=1;align=center;verticalAlign=middle;resizable=0;points=[];autosize=1;strokeColor=none;fillColor=none;" vertex="1" parent="91yoJUOMf4xalkDMiRzU-95">
          <mxGeometry x="560" y="290" width="40" height="30" as="geometry" />
        </mxCell>
        <mxCell id="dsnRNY9ZzONW7Tr965tl-93" value="No" style="text;html=1;align=center;verticalAlign=middle;resizable=0;points=[];autosize=1;strokeColor=none;fillColor=none;" vertex="1" parent="91yoJUOMf4xalkDMiRzU-95">
          <mxGeometry x="560" y="180" width="40" height="30" as="geometry" />
        </mxCell>
        <mxCell id="dsnRNY9ZzONW7Tr965tl-94" value="No" style="text;html=1;align=center;verticalAlign=middle;resizable=0;points=[];autosize=1;strokeColor=none;fillColor=none;" vertex="1" parent="91yoJUOMf4xalkDMiRzU-95">
          <mxGeometry x="560" y="90" width="40" height="30" as="geometry" />
        </mxCell>
        <mxCell id="dsnRNY9ZzONW7Tr965tl-30" value="" style="endArrow=classic;html=1;rounded=0;exitX=0.5;exitY=1;exitDx=0;exitDy=0;" edge="1" parent="1" source="SIZ0XicZLE3Qhef7tmIG-11">
          <mxGeometry width="50" height="50" relative="1" as="geometry">
            <mxPoint x="500" y="410" as="sourcePoint" />
            <mxPoint x="980" y="430" as="targetPoint" />
          </mxGeometry>
        </mxCell>
        <mxCell id="dsnRNY9ZzONW7Tr965tl-34" value="" style="endArrow=classic;html=1;rounded=0;entryX=0;entryY=0.5;entryDx=0;entryDy=0;exitX=1;exitY=0.5;exitDx=0;exitDy=0;" edge="1" parent="1" source="SIZ0XicZLE3Qhef7tmIG-17" target="SIZ0XicZLE3Qhef7tmIG-18">
          <mxGeometry width="50" height="50" relative="1" as="geometry">
            <mxPoint x="950" y="410" as="sourcePoint" />
            <mxPoint x="750" y="510" as="targetPoint" />
          </mxGeometry>
        </mxCell>
      </root>
    </mxGraphModel>
  </diagram>
</mxfile>
